G75*
%MOIN*%
%OFA0B0*%
%FSLAX25Y25*%
%IPPOS*%
%LPD*%
%AMOC8*
5,1,8,0,0,1.08239X$1,22.5*
%
%ADD10C,0.04500*%
%ADD11R,0.05315X0.05315*%
%ADD12C,0.05315*%
%ADD13R,0.05200X0.05200*%
%ADD14C,0.05200*%
%ADD15C,0.06000*%
%ADD16OC8,0.05200*%
%ADD17C,0.01040*%
%ADD18R,0.05543X0.05543*%
%ADD19C,0.05543*%
%ADD20R,0.07500X0.07500*%
%ADD21C,0.07500*%
%ADD22OC8,0.06300*%
%ADD23C,0.03200*%
%ADD24C,0.05118*%
D10*
X0048817Y0127888D03*
X0048817Y0137888D03*
X0100465Y0185989D03*
X0110465Y0185989D03*
X0113365Y0197864D03*
X0106294Y0204935D03*
X0228308Y0191786D03*
X0235379Y0198857D03*
X0266053Y0167591D03*
X0265948Y0157592D03*
D11*
X0231833Y0123340D03*
D12*
X0231833Y0115466D03*
D13*
X0189306Y0095448D03*
X0247926Y0184148D03*
D14*
X0257926Y0184148D03*
X0189306Y0085448D03*
X0111339Y0162852D03*
X0124774Y0176287D03*
D15*
X0128792Y0217321D02*
X0128792Y0223321D01*
X0118792Y0223321D02*
X0118792Y0217321D01*
X0108792Y0217321D02*
X0108792Y0223321D01*
X0098792Y0223321D02*
X0098792Y0217321D01*
X0088792Y0217321D02*
X0088792Y0223321D01*
X0078792Y0223321D02*
X0078792Y0217321D01*
X0068792Y0217321D02*
X0068792Y0223321D01*
X0058792Y0223321D02*
X0058792Y0217321D01*
X0143792Y0217321D02*
X0143792Y0223321D01*
X0153792Y0223321D02*
X0153792Y0217321D01*
X0163792Y0217321D02*
X0163792Y0223321D01*
X0173792Y0223321D02*
X0173792Y0217321D01*
X0183792Y0217321D02*
X0183792Y0223321D01*
X0193792Y0223321D02*
X0193792Y0217321D01*
X0203792Y0217321D02*
X0203792Y0223321D01*
X0213792Y0223321D02*
X0213792Y0217321D01*
X0051792Y0115321D02*
X0045792Y0115321D01*
X0045792Y0105321D02*
X0051792Y0105321D01*
X0051792Y0095321D02*
X0045792Y0095321D01*
X0045792Y0085321D02*
X0051792Y0085321D01*
X0051792Y0075321D02*
X0045792Y0075321D01*
X0045792Y0065321D02*
X0051792Y0065321D01*
X0058792Y0033321D02*
X0058792Y0027321D01*
X0068792Y0027321D02*
X0068792Y0033321D01*
X0078792Y0033321D02*
X0078792Y0027321D01*
X0088792Y0027321D02*
X0088792Y0033321D01*
X0098792Y0033321D02*
X0098792Y0027321D01*
X0108792Y0027321D02*
X0108792Y0033321D01*
X0128792Y0033321D02*
X0128792Y0027321D01*
X0138792Y0027321D02*
X0138792Y0033321D01*
X0148792Y0033321D02*
X0148792Y0027321D01*
X0158792Y0027321D02*
X0158792Y0033321D01*
X0168792Y0033321D02*
X0168792Y0027321D01*
X0178792Y0027321D02*
X0178792Y0033321D01*
D16*
X0188635Y0050467D03*
X0148635Y0050467D03*
X0247924Y0128447D03*
X0247924Y0168447D03*
D17*
X0188578Y0136401D02*
X0188058Y0136921D01*
X0189780Y0136921D01*
X0190998Y0135703D01*
X0190998Y0133981D01*
X0189780Y0132763D01*
X0188058Y0132763D01*
X0186840Y0133981D01*
X0186840Y0135703D01*
X0188058Y0136921D01*
X0188381Y0136141D01*
X0189457Y0136141D01*
X0190218Y0135380D01*
X0190218Y0134304D01*
X0189457Y0133543D01*
X0188381Y0133543D01*
X0187620Y0134304D01*
X0187620Y0135380D01*
X0188381Y0136141D01*
X0188704Y0135361D01*
X0189134Y0135361D01*
X0189438Y0135057D01*
X0189438Y0134627D01*
X0189134Y0134323D01*
X0188704Y0134323D01*
X0188400Y0134627D01*
X0188400Y0135057D01*
X0188704Y0135361D01*
X0216862Y0108117D02*
X0216342Y0108637D01*
X0218064Y0108637D01*
X0219282Y0107419D01*
X0219282Y0105697D01*
X0218064Y0104479D01*
X0216342Y0104479D01*
X0215124Y0105697D01*
X0215124Y0107419D01*
X0216342Y0108637D01*
X0216665Y0107857D01*
X0217741Y0107857D01*
X0218502Y0107096D01*
X0218502Y0106020D01*
X0217741Y0105259D01*
X0216665Y0105259D01*
X0215904Y0106020D01*
X0215904Y0107096D01*
X0216665Y0107857D01*
X0216988Y0107077D01*
X0217418Y0107077D01*
X0217722Y0106773D01*
X0217722Y0106343D01*
X0217418Y0106039D01*
X0216988Y0106039D01*
X0216684Y0106343D01*
X0216684Y0106773D01*
X0216988Y0107077D01*
D18*
G36*
X0076142Y0094966D02*
X0072224Y0091048D01*
X0068306Y0094966D01*
X0072224Y0098884D01*
X0076142Y0094966D01*
G37*
D19*
X0079295Y0102037D03*
X0086366Y0109108D03*
X0093437Y0116179D03*
X0100508Y0123250D03*
X0107579Y0130321D03*
X0114650Y0137392D03*
X0121721Y0144463D03*
X0128792Y0151534D03*
X0135863Y0158605D03*
X0142934Y0165676D03*
X0150005Y0172748D03*
X0157076Y0179819D03*
X0164147Y0186890D03*
X0185361Y0165676D03*
X0178290Y0158605D03*
X0171218Y0151534D03*
X0164147Y0144463D03*
X0157076Y0137392D03*
X0150005Y0130321D03*
X0142934Y0123250D03*
X0135863Y0116179D03*
X0128792Y0109108D03*
X0121721Y0102037D03*
X0114650Y0094966D03*
X0107579Y0087895D03*
X0100508Y0080824D03*
X0093437Y0073753D03*
D20*
X0049837Y0150559D03*
D21*
X0032837Y0150559D03*
X0032837Y0179559D03*
X0049837Y0179559D03*
D22*
X0172940Y0124951D03*
X0172940Y0104951D03*
D23*
X0042557Y0018863D02*
X0023694Y0018840D01*
X0023489Y0033273D01*
X0023489Y0034441D01*
X0023471Y0034484D01*
X0023471Y0034531D01*
X0023008Y0035604D01*
X0022562Y0036684D01*
X0022529Y0036717D01*
X0022510Y0036760D01*
X0021672Y0037575D01*
X0018950Y0040300D01*
X0022566Y0041216D01*
X0022566Y0041216D01*
X0026197Y0043588D01*
X0026197Y0043588D01*
X0028861Y0047011D01*
X0028861Y0047011D01*
X0030270Y0051113D01*
X0030270Y0055451D01*
X0028861Y0059553D01*
X0028861Y0059553D01*
X0026197Y0062976D01*
X0026197Y0062976D01*
X0022566Y0065348D01*
X0022566Y0065348D01*
X0018361Y0066413D01*
X0018361Y0066413D01*
X0014039Y0066055D01*
X0014039Y0066055D01*
X0013289Y0065726D01*
X0013245Y0130398D01*
X0014090Y0130027D01*
X0014090Y0130027D01*
X0018413Y0129669D01*
X0018413Y0129669D01*
X0022618Y0130734D01*
X0022618Y0130734D01*
X0026249Y0133106D01*
X0026249Y0133106D01*
X0026249Y0133106D01*
X0028913Y0136529D01*
X0028913Y0136529D01*
X0029224Y0137437D01*
X0029224Y0097013D01*
X0030397Y0094183D01*
X0032563Y0092017D01*
X0035786Y0088793D01*
X0037147Y0088230D01*
X0036692Y0087131D01*
X0036692Y0083511D01*
X0038013Y0080321D01*
X0036692Y0077131D01*
X0036692Y0073511D01*
X0038077Y0070166D01*
X0040637Y0067607D01*
X0040666Y0067595D01*
X0040602Y0067471D01*
X0040330Y0066632D01*
X0040192Y0065762D01*
X0040192Y0065321D01*
X0048792Y0065321D01*
X0048792Y0059721D01*
X0045351Y0059721D01*
X0044481Y0059859D01*
X0043642Y0060131D01*
X0042857Y0060532D01*
X0042144Y0061050D01*
X0041521Y0061673D01*
X0041003Y0062386D01*
X0040602Y0063171D01*
X0040330Y0064010D01*
X0040192Y0064880D01*
X0040192Y0065321D01*
X0048792Y0065321D01*
X0048792Y0065321D01*
X0048792Y0065321D01*
X0048792Y0059721D01*
X0052233Y0059721D01*
X0053103Y0059859D01*
X0053942Y0060131D01*
X0054719Y0060527D01*
X0043359Y0049167D01*
X0041193Y0047001D01*
X0040020Y0044171D01*
X0040020Y0023057D01*
X0041193Y0020227D01*
X0042557Y0018863D01*
X0042388Y0019031D02*
X0023691Y0019031D01*
X0023645Y0022230D02*
X0040363Y0022230D01*
X0040020Y0025428D02*
X0023600Y0025428D01*
X0023555Y0028627D02*
X0040020Y0028627D01*
X0040020Y0031825D02*
X0023509Y0031825D01*
X0023259Y0035024D02*
X0040020Y0035024D01*
X0040020Y0038222D02*
X0021025Y0038222D01*
X0022880Y0041421D02*
X0040020Y0041421D01*
X0040206Y0044619D02*
X0027000Y0044619D01*
X0029138Y0047818D02*
X0042009Y0047818D01*
X0045208Y0051016D02*
X0030236Y0051016D01*
X0030270Y0054215D02*
X0048406Y0054215D01*
X0051605Y0057413D02*
X0029596Y0057413D01*
X0028037Y0060612D02*
X0042747Y0060612D01*
X0040395Y0063810D02*
X0024920Y0063810D01*
X0026197Y0062976D02*
X0026197Y0062976D01*
X0031150Y0070386D02*
X0031201Y0146553D01*
X0032837Y0150559D01*
X0026500Y0156895D01*
X0026500Y0225711D01*
X0031111Y0230321D01*
X0203825Y0230321D01*
X0218392Y0230321D01*
X0235941Y0212772D01*
X0235941Y0212450D01*
X0243367Y0205024D01*
X0243689Y0205024D01*
X0257926Y0190786D01*
X0257926Y0184148D01*
X0257926Y0184148D01*
X0257926Y0189348D01*
X0257517Y0189348D01*
X0256709Y0189220D01*
X0256177Y0189047D01*
X0255698Y0190203D01*
X0253982Y0191919D01*
X0251740Y0192848D01*
X0244113Y0192848D01*
X0242985Y0192381D01*
X0242985Y0195399D01*
X0243729Y0197196D01*
X0243729Y0200518D01*
X0242458Y0203587D01*
X0240109Y0205935D01*
X0238540Y0206585D01*
X0222892Y0222233D01*
X0222892Y0225131D01*
X0221507Y0228476D01*
X0219447Y0230536D01*
X0246360Y0230554D01*
X0245383Y0230473D01*
X0245383Y0230473D01*
X0241411Y0228731D01*
X0241411Y0228731D01*
X0238220Y0225793D01*
X0238220Y0225793D01*
X0236155Y0221978D01*
X0236155Y0221978D01*
X0235441Y0217700D01*
X0236155Y0213422D01*
X0236155Y0213422D01*
X0238220Y0209607D01*
X0238220Y0209607D01*
X0241411Y0206670D01*
X0241411Y0206670D01*
X0245383Y0204927D01*
X0245383Y0204927D01*
X0249705Y0204569D01*
X0249705Y0204569D01*
X0253910Y0205634D01*
X0253910Y0205634D01*
X0257541Y0208006D01*
X0257541Y0208006D01*
X0257541Y0208006D01*
X0260205Y0211429D01*
X0260205Y0211429D01*
X0261614Y0215531D01*
X0261614Y0219869D01*
X0260205Y0223971D01*
X0260205Y0223971D01*
X0257541Y0227394D01*
X0257541Y0227394D01*
X0253910Y0229766D01*
X0253910Y0229766D01*
X0250788Y0230557D01*
X0274958Y0230574D01*
X0275152Y0018871D01*
X0260027Y0018871D01*
X0262716Y0020627D01*
X0262716Y0020627D01*
X0262716Y0020627D01*
X0265380Y0024050D01*
X0266788Y0028152D01*
X0266788Y0032490D01*
X0265380Y0036592D01*
X0262716Y0040015D01*
X0262716Y0040015D01*
X0259085Y0042387D01*
X0259085Y0042387D01*
X0254880Y0043452D01*
X0254880Y0043452D01*
X0250558Y0043094D01*
X0250558Y0043094D01*
X0246585Y0041352D01*
X0246585Y0041352D01*
X0243394Y0038414D01*
X0243394Y0038414D01*
X0243394Y0038414D01*
X0241330Y0034599D01*
X0241330Y0034599D01*
X0240616Y0030321D01*
X0241330Y0026043D01*
X0241330Y0026043D01*
X0243394Y0022228D01*
X0243394Y0022228D01*
X0246585Y0019291D01*
X0246585Y0019291D01*
X0247543Y0018871D01*
X0194342Y0018871D01*
X0194973Y0019614D01*
X0195833Y0020474D01*
X0195957Y0020774D01*
X0196167Y0021022D01*
X0196540Y0022180D01*
X0197005Y0023304D01*
X0197005Y0023629D01*
X0197105Y0023938D01*
X0197005Y0025151D01*
X0197005Y0043047D01*
X0200731Y0043047D01*
X0203561Y0044219D01*
X0205727Y0046385D01*
X0254452Y0095110D01*
X0255624Y0097940D01*
X0255624Y0123843D01*
X0256624Y0124843D01*
X0256624Y0126257D01*
X0272476Y0142109D01*
X0273648Y0144940D01*
X0273648Y0154361D01*
X0274298Y0155931D01*
X0274298Y0159253D01*
X0273027Y0162322D01*
X0270678Y0164670D01*
X0270100Y0164910D01*
X0270201Y0165049D01*
X0270548Y0165729D01*
X0270784Y0166455D01*
X0270903Y0167209D01*
X0270903Y0167540D01*
X0266053Y0167591D01*
X0266053Y0167591D01*
X0261203Y0167642D01*
X0261203Y0167973D01*
X0261323Y0168727D01*
X0261558Y0169453D01*
X0261905Y0170133D01*
X0262354Y0170751D01*
X0262894Y0171290D01*
X0263511Y0171739D01*
X0264191Y0172086D01*
X0264917Y0172322D01*
X0265671Y0172441D01*
X0266104Y0172441D01*
X0266435Y0172441D01*
X0267189Y0172322D01*
X0267915Y0172086D01*
X0268595Y0171739D01*
X0269213Y0171290D01*
X0269753Y0170751D01*
X0270201Y0170133D01*
X0270548Y0169453D01*
X0270784Y0168727D01*
X0270903Y0167973D01*
X0270903Y0167540D01*
X0266053Y0167591D01*
X0261203Y0167642D01*
X0261203Y0167209D01*
X0261323Y0166455D01*
X0261558Y0165729D01*
X0261905Y0165049D01*
X0261958Y0164977D01*
X0261219Y0164670D01*
X0258870Y0162322D01*
X0257598Y0159253D01*
X0257598Y0155931D01*
X0258248Y0154361D01*
X0258248Y0149661D01*
X0245735Y0137147D01*
X0244320Y0137147D01*
X0239224Y0132050D01*
X0239224Y0131040D01*
X0238074Y0131040D01*
X0237945Y0131169D01*
X0235703Y0132097D01*
X0227962Y0132097D01*
X0225720Y0131169D01*
X0225529Y0130978D01*
X0224754Y0130970D01*
X0239581Y0145280D01*
X0239646Y0145307D01*
X0240681Y0146341D01*
X0241734Y0147358D01*
X0241762Y0147423D01*
X0241812Y0147473D01*
X0242372Y0148825D01*
X0242956Y0150167D01*
X0242957Y0150238D01*
X0242985Y0150303D01*
X0242985Y0151766D01*
X0243011Y0153229D01*
X0242985Y0153295D01*
X0242985Y0161083D01*
X0244320Y0159747D01*
X0251528Y0159747D01*
X0256624Y0164843D01*
X0256624Y0172050D01*
X0255625Y0173050D01*
X0255626Y0178020D01*
X0255698Y0178093D01*
X0256177Y0179249D01*
X0256709Y0179076D01*
X0257517Y0178948D01*
X0257926Y0178948D01*
X0257926Y0184148D01*
X0257926Y0184148D01*
X0257926Y0175718D01*
X0266053Y0167591D01*
X0273580Y0160064D01*
X0273580Y0139208D01*
X0256183Y0121812D01*
X0256183Y0095287D01*
X0248011Y0086752D01*
X0245542Y0086200D02*
X0275090Y0086200D01*
X0275087Y0089398D02*
X0248741Y0089398D01*
X0251939Y0092597D02*
X0275084Y0092597D01*
X0275081Y0095795D02*
X0254736Y0095795D01*
X0255624Y0098994D02*
X0275078Y0098994D01*
X0275075Y0102193D02*
X0255624Y0102193D01*
X0255624Y0105391D02*
X0275072Y0105391D01*
X0275069Y0108590D02*
X0255624Y0108590D01*
X0255624Y0111788D02*
X0275066Y0111788D01*
X0275063Y0114987D02*
X0255624Y0114987D01*
X0255624Y0118185D02*
X0275061Y0118185D01*
X0275058Y0121384D02*
X0255624Y0121384D01*
X0256363Y0124582D02*
X0275055Y0124582D01*
X0275052Y0127781D02*
X0258147Y0127781D01*
X0261346Y0130979D02*
X0275049Y0130979D01*
X0275046Y0134178D02*
X0264544Y0134178D01*
X0267743Y0137376D02*
X0275043Y0137376D01*
X0275040Y0140575D02*
X0270941Y0140575D01*
X0273165Y0143773D02*
X0275037Y0143773D01*
X0275034Y0146972D02*
X0273648Y0146972D01*
X0273648Y0150170D02*
X0275031Y0150170D01*
X0275028Y0153369D02*
X0273648Y0153369D01*
X0274298Y0156567D02*
X0275025Y0156567D01*
X0275022Y0159766D02*
X0274086Y0159766D01*
X0275020Y0162964D02*
X0272385Y0162964D01*
X0270689Y0166163D02*
X0275017Y0166163D01*
X0275014Y0169361D02*
X0270578Y0169361D01*
X0266072Y0169361D02*
X0266072Y0169361D01*
X0266053Y0167591D02*
X0266104Y0172441D01*
X0266053Y0167591D01*
X0266053Y0167591D01*
X0266053Y0167591D01*
X0261418Y0166163D02*
X0256624Y0166163D01*
X0256624Y0169361D02*
X0261529Y0169361D01*
X0256115Y0172560D02*
X0275011Y0172560D01*
X0275008Y0175758D02*
X0255625Y0175758D01*
X0256056Y0178957D02*
X0257462Y0178957D01*
X0257926Y0178957D02*
X0257926Y0178957D01*
X0257926Y0178948D02*
X0257926Y0184148D01*
X0257926Y0189348D01*
X0258336Y0189348D01*
X0259144Y0189220D01*
X0259923Y0188967D01*
X0260652Y0188595D01*
X0261314Y0188114D01*
X0261893Y0187536D01*
X0262374Y0186873D01*
X0262745Y0186144D01*
X0262998Y0185366D01*
X0263126Y0184557D01*
X0263126Y0184148D01*
X0263126Y0183739D01*
X0262998Y0182930D01*
X0262745Y0182152D01*
X0262374Y0181423D01*
X0261893Y0180760D01*
X0261314Y0180182D01*
X0260652Y0179701D01*
X0259923Y0179329D01*
X0259144Y0179076D01*
X0258336Y0178948D01*
X0257926Y0178948D01*
X0258391Y0178957D02*
X0275005Y0178957D01*
X0275002Y0182155D02*
X0262747Y0182155D01*
X0263126Y0184148D02*
X0257927Y0184148D01*
X0257927Y0184148D01*
X0263126Y0184148D01*
X0263000Y0185354D02*
X0274999Y0185354D01*
X0274996Y0188552D02*
X0260711Y0188552D01*
X0257926Y0188552D02*
X0257926Y0188552D01*
X0257926Y0185354D02*
X0257926Y0185354D01*
X0257926Y0182155D02*
X0257926Y0182155D01*
X0247926Y0184148D02*
X0247924Y0168447D01*
X0254745Y0162964D02*
X0259512Y0162964D01*
X0257811Y0159766D02*
X0251547Y0159766D01*
X0257598Y0156567D02*
X0242985Y0156567D01*
X0242985Y0153369D02*
X0258248Y0153369D01*
X0258248Y0150170D02*
X0242956Y0150170D01*
X0241334Y0146972D02*
X0255560Y0146972D01*
X0252361Y0143773D02*
X0238020Y0143773D01*
X0234705Y0140575D02*
X0249163Y0140575D01*
X0245964Y0137376D02*
X0231391Y0137376D01*
X0228077Y0134178D02*
X0241351Y0134178D01*
X0247924Y0128447D02*
X0265948Y0146471D01*
X0265948Y0157592D01*
X0244302Y0159766D02*
X0242985Y0159766D01*
X0235285Y0151835D02*
X0235285Y0198762D01*
X0235379Y0198857D01*
X0213914Y0220321D01*
X0213792Y0220321D01*
X0204984Y0219129D02*
X0204984Y0215031D01*
X0228229Y0191786D01*
X0228308Y0191786D01*
X0221482Y0188021D02*
X0221451Y0169129D01*
X0221272Y0153054D01*
X0203204Y0134985D01*
X0188919Y0134842D01*
X0189021Y0135006D01*
X0160094Y0134973D01*
X0157675Y0137392D01*
X0157076Y0137392D01*
X0148215Y0139182D02*
X0149555Y0142418D01*
X0152051Y0144913D01*
X0155286Y0146253D01*
X0156626Y0149489D01*
X0159122Y0151984D01*
X0162357Y0153324D01*
X0163697Y0156560D01*
X0166193Y0159055D01*
X0169428Y0160395D01*
X0170769Y0163631D01*
X0173264Y0166126D01*
X0176500Y0167467D01*
X0177840Y0170702D01*
X0180335Y0173197D01*
X0182651Y0174157D01*
X0172628Y0184180D01*
X0171668Y0181864D01*
X0169173Y0179369D01*
X0165937Y0178029D01*
X0164597Y0174793D01*
X0162102Y0172298D01*
X0158866Y0170957D01*
X0157526Y0167722D01*
X0155031Y0165227D01*
X0151795Y0163886D01*
X0150455Y0160651D01*
X0147960Y0158155D01*
X0144724Y0156815D01*
X0143384Y0153580D01*
X0140889Y0151084D01*
X0137653Y0149744D01*
X0136313Y0146509D01*
X0133817Y0144013D01*
X0130557Y0142663D01*
X0127027Y0142663D01*
X0126813Y0142752D01*
X0126699Y0142401D01*
X0126315Y0141648D01*
X0125818Y0140964D01*
X0125519Y0140665D01*
X0125220Y0140366D01*
X0124536Y0139869D01*
X0123783Y0139485D01*
X0123433Y0139371D01*
X0123522Y0139157D01*
X0123522Y0135628D01*
X0122350Y0132799D01*
X0122350Y0115212D01*
X0123767Y0116629D01*
X0127027Y0117980D01*
X0130557Y0117980D01*
X0130771Y0117891D01*
X0130885Y0118241D01*
X0131269Y0118994D01*
X0131766Y0119678D01*
X0132065Y0119977D01*
X0135863Y0116179D01*
X0135863Y0116179D01*
X0135863Y0115527D01*
X0135863Y0116179D02*
X0139661Y0112381D01*
X0139363Y0112082D01*
X0138679Y0111585D01*
X0137925Y0111201D01*
X0137575Y0111087D01*
X0137664Y0110873D01*
X0137664Y0107343D01*
X0136492Y0104515D01*
X0136492Y0058470D01*
X0144335Y0058470D01*
X0145031Y0059167D01*
X0152238Y0059167D01*
X0157335Y0054070D01*
X0157335Y0046863D01*
X0152238Y0041767D01*
X0152182Y0041767D01*
X0153947Y0041036D01*
X0156507Y0038476D01*
X0156518Y0038448D01*
X0156642Y0038511D01*
X0157481Y0038783D01*
X0158351Y0038921D01*
X0158792Y0038921D01*
X0158792Y0030321D01*
X0168792Y0030321D01*
X0168792Y0030321D01*
X0163192Y0030321D01*
X0158792Y0030321D01*
X0158792Y0030321D01*
X0158792Y0030321D01*
X0168792Y0030321D01*
X0168752Y0030361D01*
X0168752Y0083810D01*
X0167114Y0085448D01*
X0166159Y0085448D01*
X0135428Y0116179D01*
X0126916Y0124690D01*
X0126916Y0139268D01*
X0121721Y0144463D01*
X0125519Y0140665D01*
X0121721Y0144463D01*
X0121721Y0144463D01*
X0121294Y0144463D01*
X0114379Y0151378D01*
X0108214Y0157085D01*
X0092579Y0172764D01*
X0092572Y0191100D01*
X0094981Y0193774D01*
X0108496Y0193928D01*
X0110408Y0192172D01*
X0106408Y0195501D01*
X0106294Y0204935D01*
X0106294Y0204935D01*
X0102865Y0201506D01*
X0103135Y0201236D01*
X0103752Y0200787D01*
X0104433Y0200441D01*
X0105159Y0200205D01*
X0105288Y0200184D01*
X0105015Y0199525D01*
X0105015Y0196203D01*
X0106287Y0193134D01*
X0108635Y0190786D01*
X0109030Y0190622D01*
X0108603Y0190483D01*
X0107923Y0190137D01*
X0107817Y0190060D01*
X0107544Y0190719D01*
X0105195Y0193068D01*
X0102126Y0194339D01*
X0098804Y0194339D01*
X0095735Y0193068D01*
X0094325Y0191657D01*
X0094325Y0195719D01*
X0101925Y0202828D01*
X0102146Y0202393D01*
X0102595Y0201776D01*
X0102865Y0201506D01*
X0106294Y0204935D01*
X0105904Y0204545D02*
X0105904Y0204545D01*
X0103024Y0201346D02*
X0100341Y0201346D01*
X0096922Y0198148D02*
X0105015Y0198148D01*
X0105535Y0194949D02*
X0094325Y0194949D01*
X0094325Y0191751D02*
X0094418Y0191751D01*
X0100465Y0185989D02*
X0100371Y0181554D01*
X0112340Y0168996D01*
X0111695Y0163468D01*
X0111339Y0162852D01*
X0111471Y0163344D01*
X0112211Y0167664D01*
X0128265Y0151534D01*
X0128792Y0151534D01*
X0133238Y0143773D02*
X0150911Y0143773D01*
X0148792Y0140575D02*
X0125429Y0140575D01*
X0122411Y0143773D02*
X0122411Y0143773D01*
X0121721Y0144463D02*
X0117923Y0148262D01*
X0118222Y0148561D01*
X0118906Y0149058D01*
X0119543Y0149382D01*
X0114291Y0154658D01*
X0113069Y0154152D01*
X0109608Y0154152D01*
X0106411Y0155477D01*
X0103963Y0157924D01*
X0102639Y0161122D01*
X0102639Y0164583D01*
X0103629Y0166974D01*
X0094805Y0176234D01*
X0094325Y0176734D01*
X0094325Y0154886D01*
X0106947Y0141980D01*
X0107129Y0142418D01*
X0109625Y0144913D01*
X0112885Y0146264D01*
X0116415Y0146264D01*
X0116629Y0146175D01*
X0116743Y0146525D01*
X0117127Y0147279D01*
X0117624Y0147963D01*
X0117923Y0148262D01*
X0121721Y0144463D01*
X0121721Y0144463D01*
X0119213Y0146972D02*
X0119213Y0146972D01*
X0116970Y0146972D02*
X0102065Y0146972D01*
X0105193Y0143773D02*
X0108485Y0143773D01*
X0114650Y0137392D02*
X0114650Y0110052D01*
X0079178Y0074038D01*
X0081973Y0076892D01*
X0047720Y0042639D01*
X0047720Y0024589D01*
X0051988Y0020321D01*
X0148687Y0020239D01*
X0185355Y0020181D01*
X0189305Y0024836D01*
X0189305Y0049336D01*
X0188635Y0050467D01*
X0188915Y0050747D01*
X0199200Y0050747D01*
X0247924Y0099471D01*
X0247924Y0128447D01*
X0242817Y0123340D01*
X0231833Y0123340D01*
X0221578Y0123239D01*
X0203184Y0104915D01*
X0182036Y0104923D01*
X0172940Y0104951D01*
X0165816Y0098994D02*
X0136492Y0098994D01*
X0136492Y0102193D02*
X0163690Y0102193D01*
X0163690Y0101120D02*
X0163690Y0107484D01*
X0151149Y0107490D01*
X0149649Y0107478D01*
X0149618Y0107491D01*
X0149585Y0107491D01*
X0148200Y0108065D01*
X0146810Y0108628D01*
X0146786Y0108652D01*
X0146756Y0108664D01*
X0145695Y0109726D01*
X0140937Y0114411D01*
X0140841Y0114117D01*
X0140457Y0113364D01*
X0139960Y0112680D01*
X0139662Y0112381D01*
X0135863Y0116179D01*
X0135428Y0116179D01*
X0135863Y0116179D02*
X0132065Y0119977D01*
X0132364Y0120276D01*
X0133048Y0120773D01*
X0133801Y0121157D01*
X0134151Y0121271D01*
X0134063Y0121485D01*
X0134063Y0125015D01*
X0135413Y0128275D01*
X0137909Y0130771D01*
X0141144Y0132111D01*
X0142484Y0135347D01*
X0144980Y0137842D01*
X0148215Y0139182D01*
X0144514Y0137376D02*
X0123522Y0137376D01*
X0122921Y0134178D02*
X0142000Y0134178D01*
X0138411Y0130979D02*
X0122350Y0130979D01*
X0122350Y0127781D02*
X0135208Y0127781D01*
X0134063Y0124582D02*
X0122350Y0124582D01*
X0122350Y0121384D02*
X0134105Y0121384D01*
X0133857Y0118185D02*
X0133857Y0118185D01*
X0135863Y0116179D02*
X0135863Y0116179D01*
X0137055Y0114987D02*
X0137056Y0114987D01*
X0138958Y0111788D02*
X0143601Y0111788D01*
X0146906Y0108590D02*
X0137664Y0108590D01*
X0136855Y0105391D02*
X0163690Y0105391D01*
X0163690Y0101120D02*
X0169108Y0095701D01*
X0176771Y0095701D01*
X0178305Y0097235D01*
X0180491Y0097228D01*
X0180501Y0097224D01*
X0180606Y0097224D01*
X0180606Y0091635D01*
X0181535Y0089393D01*
X0183251Y0087677D01*
X0184407Y0087198D01*
X0184234Y0086666D01*
X0184106Y0085857D01*
X0184106Y0085448D01*
X0189306Y0085448D01*
X0189306Y0085448D01*
X0184106Y0085448D01*
X0184106Y0085039D01*
X0184234Y0084230D01*
X0184487Y0083452D01*
X0184859Y0082723D01*
X0185340Y0082060D01*
X0185919Y0081482D01*
X0186581Y0081001D01*
X0187310Y0080629D01*
X0188089Y0080376D01*
X0188897Y0080248D01*
X0189306Y0080248D01*
X0189306Y0085448D01*
X0189306Y0085448D01*
X0167114Y0085448D01*
X0169014Y0095795D02*
X0136492Y0095795D01*
X0136492Y0092597D02*
X0180606Y0092597D01*
X0180606Y0095795D02*
X0176866Y0095795D01*
X0181533Y0089398D02*
X0136492Y0089398D01*
X0136492Y0086200D02*
X0184161Y0086200D01*
X0189306Y0085448D02*
X0217105Y0085448D01*
X0231833Y0100176D01*
X0231833Y0115466D01*
X0231832Y0114582D02*
X0231832Y0110208D01*
X0231419Y0110208D01*
X0230601Y0110338D01*
X0229814Y0110593D01*
X0229077Y0110969D01*
X0228407Y0111456D01*
X0227822Y0112041D01*
X0227336Y0112710D01*
X0226960Y0113448D01*
X0226704Y0114235D01*
X0226575Y0115052D01*
X0226575Y0115157D01*
X0225720Y0115511D01*
X0225652Y0115578D01*
X0224790Y0115570D01*
X0222638Y0113426D01*
X0225903Y0110161D01*
X0225903Y0102954D01*
X0224903Y0101954D01*
X0224903Y0101587D01*
X0223731Y0098757D01*
X0216113Y0091140D01*
X0213947Y0088974D01*
X0211117Y0087802D01*
X0195487Y0087802D01*
X0195362Y0087677D01*
X0194205Y0087198D01*
X0194378Y0086666D01*
X0194506Y0085857D01*
X0194506Y0085448D01*
X0194506Y0085039D01*
X0194378Y0084230D01*
X0194125Y0083452D01*
X0193754Y0082723D01*
X0193273Y0082060D01*
X0192694Y0081482D01*
X0192032Y0081001D01*
X0191303Y0080629D01*
X0190524Y0080376D01*
X0189716Y0080248D01*
X0189306Y0080248D01*
X0189306Y0085448D01*
X0189307Y0085448D02*
X0194506Y0085448D01*
X0189307Y0085448D01*
X0189307Y0085448D01*
X0189306Y0083001D02*
X0189306Y0083001D01*
X0184717Y0083001D02*
X0136492Y0083001D01*
X0136492Y0079803D02*
X0217366Y0079803D01*
X0214168Y0076604D02*
X0136492Y0076604D01*
X0136492Y0073406D02*
X0210969Y0073406D01*
X0207771Y0070207D02*
X0136492Y0070207D01*
X0136492Y0067009D02*
X0204572Y0067009D01*
X0201374Y0063810D02*
X0136492Y0063810D01*
X0136492Y0060612D02*
X0198175Y0060612D01*
X0196010Y0058447D02*
X0240224Y0102661D01*
X0240224Y0115640D01*
X0238074Y0115640D01*
X0237945Y0115511D01*
X0237090Y0115157D01*
X0237090Y0115052D01*
X0236961Y0114235D01*
X0236705Y0113448D01*
X0236329Y0112710D01*
X0235843Y0112041D01*
X0235258Y0111456D01*
X0234588Y0110969D01*
X0233851Y0110593D01*
X0233064Y0110338D01*
X0232246Y0110208D01*
X0231833Y0110208D01*
X0231833Y0114582D01*
X0231832Y0114582D01*
X0231833Y0111788D02*
X0231832Y0111788D01*
X0228075Y0111788D02*
X0224276Y0111788D01*
X0224205Y0114987D02*
X0226585Y0114987D01*
X0225903Y0108590D02*
X0240224Y0108590D01*
X0240224Y0111788D02*
X0235590Y0111788D01*
X0237080Y0114987D02*
X0240224Y0114987D01*
X0240224Y0105391D02*
X0225903Y0105391D01*
X0225141Y0102193D02*
X0239756Y0102193D01*
X0236557Y0098994D02*
X0223829Y0098994D01*
X0220769Y0095795D02*
X0233359Y0095795D01*
X0230160Y0092597D02*
X0217570Y0092597D01*
X0214372Y0089398D02*
X0226962Y0089398D01*
X0223763Y0086200D02*
X0194452Y0086200D01*
X0193896Y0083001D02*
X0220565Y0083001D01*
X0232748Y0073406D02*
X0275102Y0073406D01*
X0275105Y0070207D02*
X0229550Y0070207D01*
X0226351Y0067009D02*
X0275107Y0067009D01*
X0275110Y0063810D02*
X0223153Y0063810D01*
X0219954Y0060612D02*
X0275113Y0060612D01*
X0275116Y0057413D02*
X0216756Y0057413D01*
X0213557Y0054215D02*
X0275119Y0054215D01*
X0275122Y0051016D02*
X0210359Y0051016D01*
X0207160Y0047818D02*
X0275125Y0047818D01*
X0275128Y0044619D02*
X0203962Y0044619D01*
X0197005Y0041421D02*
X0246743Y0041421D01*
X0243291Y0038222D02*
X0197005Y0038222D01*
X0197005Y0035024D02*
X0241560Y0035024D01*
X0240867Y0031825D02*
X0197005Y0031825D01*
X0197005Y0028627D02*
X0240899Y0028627D01*
X0241663Y0025428D02*
X0197005Y0025428D01*
X0196560Y0022230D02*
X0243394Y0022230D01*
X0247177Y0019031D02*
X0194478Y0019031D01*
X0173637Y0041036D02*
X0171077Y0038476D01*
X0171066Y0038448D01*
X0170942Y0038511D01*
X0170103Y0038783D01*
X0169233Y0038921D01*
X0168792Y0038921D01*
X0168792Y0030321D01*
X0168792Y0030321D01*
X0168792Y0038921D01*
X0168351Y0038921D01*
X0167481Y0038783D01*
X0166642Y0038511D01*
X0165857Y0038111D01*
X0165144Y0037593D01*
X0164521Y0036969D01*
X0164003Y0036256D01*
X0163792Y0035843D01*
X0163582Y0036256D01*
X0163064Y0036969D01*
X0162440Y0037593D01*
X0161727Y0038111D01*
X0160942Y0038511D01*
X0160103Y0038783D01*
X0159233Y0038921D01*
X0158792Y0038921D01*
X0158792Y0030321D01*
X0158792Y0031825D02*
X0158792Y0031825D01*
X0158792Y0035024D02*
X0158792Y0035024D01*
X0158792Y0038222D02*
X0158792Y0038222D01*
X0161508Y0038222D02*
X0166076Y0038222D01*
X0168792Y0038222D02*
X0168792Y0038222D01*
X0168792Y0035024D02*
X0168792Y0035024D01*
X0168792Y0031825D02*
X0168792Y0031825D01*
X0173637Y0041036D02*
X0176982Y0042421D01*
X0180602Y0042421D01*
X0181605Y0042006D01*
X0181605Y0045193D01*
X0179935Y0046863D01*
X0179935Y0054070D01*
X0185031Y0059167D01*
X0192238Y0059167D01*
X0192958Y0058447D01*
X0196010Y0058447D01*
X0183278Y0057413D02*
X0153992Y0057413D01*
X0157190Y0054215D02*
X0180079Y0054215D01*
X0179935Y0051016D02*
X0157335Y0051016D01*
X0157335Y0047818D02*
X0179935Y0047818D01*
X0181605Y0044619D02*
X0155091Y0044619D01*
X0153017Y0041421D02*
X0174567Y0041421D01*
X0148635Y0050467D02*
X0147161Y0050770D01*
X0133581Y0050770D01*
X0128792Y0045981D01*
X0128792Y0030321D01*
X0124107Y0030321D01*
X0118734Y0035753D01*
X0108480Y0036151D02*
X0108480Y0030634D01*
X0108792Y0030321D01*
X0108480Y0036151D02*
X0128792Y0056464D01*
X0128792Y0109108D01*
X0121721Y0102037D02*
X0121721Y0060183D01*
X0099643Y0038106D01*
X0099633Y0038106D01*
X0098606Y0037078D01*
X0098606Y0030507D01*
X0098792Y0030321D01*
X0088792Y0030321D02*
X0088600Y0030513D01*
X0088600Y0037701D01*
X0114650Y0063751D01*
X0114650Y0094966D01*
X0107579Y0087895D02*
X0107579Y0066646D01*
X0079173Y0038240D01*
X0079173Y0030702D01*
X0078792Y0030321D01*
X0068792Y0030321D02*
X0068534Y0030580D01*
X0068534Y0038375D01*
X0100508Y0070349D01*
X0100508Y0080824D01*
X0093437Y0073753D02*
X0091924Y0073753D01*
X0058837Y0040666D01*
X0058837Y0030366D01*
X0058792Y0030321D01*
X0048792Y0060612D02*
X0048792Y0060612D01*
X0048792Y0063810D02*
X0048792Y0063810D01*
X0048792Y0065321D02*
X0057392Y0065321D01*
X0057392Y0064880D01*
X0057254Y0064010D01*
X0056982Y0063171D01*
X0056586Y0062394D01*
X0062750Y0068559D01*
X0062287Y0069053D01*
X0060001Y0071359D01*
X0059507Y0070166D01*
X0056947Y0067607D01*
X0056919Y0067595D01*
X0056982Y0067471D01*
X0057254Y0066632D01*
X0057392Y0065762D01*
X0057392Y0065321D01*
X0048792Y0065321D01*
X0035707Y0065322D01*
X0031150Y0070386D01*
X0036736Y0073406D02*
X0013284Y0073406D01*
X0013286Y0070207D02*
X0038061Y0070207D01*
X0040452Y0067009D02*
X0013288Y0067009D01*
X0013281Y0076604D02*
X0036692Y0076604D01*
X0037799Y0079803D02*
X0013279Y0079803D01*
X0013277Y0083001D02*
X0036903Y0083001D01*
X0036692Y0086200D02*
X0013275Y0086200D01*
X0013273Y0089398D02*
X0035181Y0089398D01*
X0031982Y0092597D02*
X0013271Y0092597D01*
X0013269Y0095795D02*
X0029729Y0095795D01*
X0029224Y0098994D02*
X0013266Y0098994D01*
X0013264Y0102193D02*
X0029224Y0102193D01*
X0029224Y0105391D02*
X0013262Y0105391D01*
X0013260Y0108590D02*
X0029224Y0108590D01*
X0029224Y0111788D02*
X0013258Y0111788D01*
X0013256Y0114987D02*
X0029224Y0114987D01*
X0029224Y0118185D02*
X0013253Y0118185D01*
X0013251Y0121384D02*
X0029224Y0121384D01*
X0029224Y0124582D02*
X0013249Y0124582D01*
X0013247Y0127781D02*
X0029224Y0127781D01*
X0029224Y0130979D02*
X0022993Y0130979D01*
X0027083Y0134178D02*
X0029224Y0134178D01*
X0029224Y0137376D02*
X0029204Y0137376D01*
X0036924Y0141154D02*
X0036924Y0098544D01*
X0040148Y0095321D01*
X0048792Y0095321D01*
X0048792Y0085321D02*
X0056998Y0085321D01*
X0057392Y0084927D01*
X0047337Y0084927D01*
X0046777Y0084367D01*
X0057392Y0084927D02*
X0067829Y0074399D01*
X0079178Y0074038D01*
X0076266Y0083193D02*
X0071919Y0083193D01*
X0059265Y0095848D01*
X0059265Y0097420D01*
X0051364Y0105321D01*
X0048792Y0105321D01*
X0048792Y0115321D02*
X0048817Y0127888D01*
X0048817Y0137888D02*
X0048817Y0149539D01*
X0049837Y0150559D01*
X0049837Y0179559D01*
X0058792Y0174744D02*
X0058792Y0194416D01*
X0058307Y0193931D01*
X0041726Y0193931D01*
X0040018Y0192223D01*
X0040018Y0144248D01*
X0036924Y0141154D01*
X0048817Y0137888D02*
X0061171Y0121946D01*
X0061417Y0121604D01*
X0061230Y0106201D01*
X0061960Y0104963D01*
X0061975Y0104762D01*
X0061936Y0104816D01*
X0061960Y0104963D02*
X0072224Y0094966D01*
X0079295Y0102037D02*
X0079302Y0102045D01*
X0069928Y0111645D01*
X0070012Y0124819D01*
X0058856Y0137983D01*
X0058792Y0174744D01*
X0058792Y0194416D02*
X0058792Y0220321D01*
X0049692Y0220537D02*
X0023459Y0220537D01*
X0023448Y0217339D02*
X0049692Y0217339D01*
X0049692Y0215511D02*
X0049692Y0225131D01*
X0051077Y0228476D01*
X0053024Y0230422D01*
X0027416Y0230405D01*
X0023482Y0227023D01*
X0023323Y0182343D01*
X0023323Y0182331D01*
X0024486Y0185138D01*
X0027257Y0187909D01*
X0030877Y0189409D01*
X0032318Y0189409D01*
X0032318Y0193754D01*
X0033490Y0196584D01*
X0035199Y0198293D01*
X0037365Y0200459D01*
X0040195Y0201631D01*
X0051092Y0201631D01*
X0051092Y0212152D01*
X0051077Y0212166D01*
X0049692Y0215511D01*
X0050260Y0214140D02*
X0023436Y0214140D01*
X0023425Y0210942D02*
X0051092Y0210942D01*
X0051092Y0207743D02*
X0023414Y0207743D01*
X0023402Y0204545D02*
X0051092Y0204545D01*
X0039508Y0201346D02*
X0023391Y0201346D01*
X0023379Y0198148D02*
X0035054Y0198148D01*
X0032813Y0194949D02*
X0023368Y0194949D01*
X0023357Y0191751D02*
X0032318Y0191751D01*
X0028810Y0188552D02*
X0023345Y0188552D01*
X0023334Y0185354D02*
X0024702Y0185354D01*
X0022987Y0180323D02*
X0022855Y0180008D01*
X0022395Y0178898D01*
X0022387Y0178889D01*
X0022382Y0178879D01*
X0021529Y0178031D01*
X0013219Y0169718D01*
X0013229Y0155195D01*
X0014090Y0155573D01*
X0014090Y0155573D01*
X0018413Y0155931D01*
X0022618Y0154866D01*
X0026249Y0152494D01*
X0026635Y0151997D01*
X0026643Y0152046D01*
X0026952Y0152996D01*
X0027406Y0153887D01*
X0027993Y0154696D01*
X0028700Y0155402D01*
X0029509Y0155990D01*
X0030399Y0156444D01*
X0031350Y0156752D01*
X0032318Y0156906D01*
X0032318Y0169709D01*
X0030877Y0169709D01*
X0027257Y0171208D01*
X0024486Y0173979D01*
X0022987Y0177600D01*
X0022987Y0180323D01*
X0022987Y0178957D02*
X0022420Y0178957D01*
X0023749Y0175758D02*
X0019257Y0175758D01*
X0016060Y0172560D02*
X0025906Y0172560D01*
X0032318Y0169361D02*
X0013219Y0169361D01*
X0013221Y0166163D02*
X0032318Y0166163D01*
X0032318Y0162964D02*
X0013223Y0162964D01*
X0013226Y0159766D02*
X0032318Y0159766D01*
X0030780Y0156567D02*
X0013228Y0156567D01*
X0018413Y0155931D02*
X0018413Y0155931D01*
X0022618Y0154866D02*
X0022618Y0154866D01*
X0024910Y0153369D02*
X0027142Y0153369D01*
X0026249Y0152494D02*
X0026249Y0152494D01*
X0026249Y0152494D01*
X0066693Y0139509D02*
X0077675Y0127499D01*
X0077665Y0117864D01*
X0078792Y0116794D01*
X0086366Y0109108D01*
X0092544Y0102929D01*
X0092544Y0099472D01*
X0076266Y0083193D01*
X0061142Y0070207D02*
X0059524Y0070207D01*
X0061200Y0067009D02*
X0057132Y0067009D01*
X0057189Y0063810D02*
X0058002Y0063810D01*
X0048792Y0065321D02*
X0048792Y0065321D01*
X0093437Y0116179D02*
X0084964Y0124967D01*
X0085170Y0131926D01*
X0073744Y0143797D01*
X0073814Y0210891D01*
X0078792Y0215986D01*
X0078792Y0220321D01*
X0088779Y0220449D02*
X0088779Y0213183D01*
X0080254Y0204923D01*
X0080236Y0148367D01*
X0093826Y0134640D01*
X0093826Y0129960D01*
X0100508Y0123279D01*
X0100508Y0123250D01*
X0107579Y0130321D02*
X0086625Y0151747D01*
X0086625Y0199060D01*
X0098792Y0210441D01*
X0098792Y0220321D01*
X0108792Y0220321D02*
X0108727Y0215146D01*
X0140795Y0182777D01*
X0140817Y0168184D01*
X0142934Y0165676D01*
X0149570Y0159766D02*
X0167908Y0159766D01*
X0170492Y0162964D02*
X0151413Y0162964D01*
X0155967Y0166163D02*
X0173352Y0166163D01*
X0177284Y0169361D02*
X0158205Y0169361D01*
X0162364Y0172560D02*
X0179698Y0172560D01*
X0181049Y0175758D02*
X0164997Y0175758D01*
X0168178Y0178957D02*
X0177851Y0178957D01*
X0174652Y0182155D02*
X0171789Y0182155D01*
X0164147Y0186890D02*
X0164147Y0194145D01*
X0144727Y0213566D01*
X0144727Y0219387D01*
X0143792Y0220321D01*
X0153792Y0220321D02*
X0153792Y0213782D01*
X0161863Y0205712D01*
X0161985Y0205712D01*
X0190414Y0177283D01*
X0190414Y0170729D01*
X0185361Y0165676D01*
X0178290Y0158605D02*
X0179779Y0157116D01*
X0191282Y0157116D01*
X0197758Y0163592D01*
X0197758Y0181139D01*
X0163792Y0215105D01*
X0163792Y0220321D01*
X0173792Y0220321D02*
X0173849Y0220265D01*
X0173849Y0214469D01*
X0205776Y0182542D01*
X0205776Y0159454D01*
X0195019Y0148698D01*
X0175074Y0148698D01*
X0172237Y0151534D01*
X0171218Y0151534D01*
X0162376Y0153369D02*
X0143173Y0153369D01*
X0144622Y0156567D02*
X0163705Y0156567D01*
X0157308Y0150170D02*
X0138681Y0150170D01*
X0136505Y0146972D02*
X0155584Y0146972D01*
X0164147Y0144463D02*
X0164635Y0144463D01*
X0167250Y0141849D01*
X0198083Y0141849D01*
X0213982Y0157747D01*
X0213982Y0184963D01*
X0214116Y0184828D01*
X0213982Y0184963D02*
X0187574Y0211370D01*
X0187451Y0211370D01*
X0183792Y0215029D01*
X0183792Y0220321D01*
X0193792Y0220321D02*
X0193775Y0215538D01*
X0221482Y0188021D01*
X0242985Y0194949D02*
X0274990Y0194949D01*
X0274987Y0198148D02*
X0243729Y0198148D01*
X0243386Y0201346D02*
X0274984Y0201346D01*
X0274981Y0204545D02*
X0241499Y0204545D01*
X0240244Y0207743D02*
X0237382Y0207743D01*
X0237497Y0210942D02*
X0234183Y0210942D01*
X0236035Y0214140D02*
X0230985Y0214140D01*
X0227786Y0217339D02*
X0235502Y0217339D01*
X0235915Y0220537D02*
X0224588Y0220537D01*
X0222892Y0223736D02*
X0237106Y0223736D01*
X0239459Y0226934D02*
X0222145Y0226934D01*
X0219850Y0230133D02*
X0244608Y0230133D01*
X0252463Y0230133D02*
X0274958Y0230133D01*
X0274961Y0226934D02*
X0257899Y0226934D01*
X0257541Y0227394D02*
X0257541Y0227394D01*
X0260286Y0223736D02*
X0274964Y0223736D01*
X0274967Y0220537D02*
X0261384Y0220537D01*
X0261614Y0217339D02*
X0274970Y0217339D01*
X0274973Y0214140D02*
X0261136Y0214140D01*
X0259826Y0210942D02*
X0274976Y0210942D01*
X0274979Y0207743D02*
X0257139Y0207743D01*
X0254150Y0191751D02*
X0274993Y0191751D01*
X0235285Y0151835D02*
X0197292Y0115167D01*
X0151120Y0115190D01*
X0142934Y0123250D01*
X0150005Y0130321D02*
X0156500Y0124937D01*
X0170746Y0124969D01*
X0172940Y0124951D01*
X0189360Y0095502D02*
X0209586Y0095502D01*
X0217203Y0103119D01*
X0217203Y0106558D01*
X0224763Y0130979D02*
X0225530Y0130979D01*
X0189360Y0095502D02*
X0189306Y0095448D01*
X0235947Y0076604D02*
X0275099Y0076604D01*
X0275096Y0079803D02*
X0239145Y0079803D01*
X0242344Y0083001D02*
X0275093Y0083001D01*
X0275131Y0041421D02*
X0260564Y0041421D01*
X0264111Y0038222D02*
X0275134Y0038222D01*
X0275137Y0035024D02*
X0265919Y0035024D01*
X0266788Y0031825D02*
X0275140Y0031825D01*
X0275143Y0028627D02*
X0266788Y0028627D01*
X0265853Y0025428D02*
X0275146Y0025428D01*
X0275148Y0022230D02*
X0263963Y0022230D01*
X0260273Y0019031D02*
X0275151Y0019031D01*
X0148687Y0020239D02*
X0148792Y0030321D01*
X0130867Y0118185D02*
X0122350Y0118185D01*
X0118759Y0150170D02*
X0098937Y0150170D01*
X0095809Y0153369D02*
X0115575Y0153369D01*
X0105320Y0156567D02*
X0094325Y0156567D01*
X0094325Y0159766D02*
X0103200Y0159766D01*
X0102639Y0162964D02*
X0094325Y0162964D01*
X0094325Y0166163D02*
X0103293Y0166163D01*
X0101355Y0169361D02*
X0094325Y0169361D01*
X0094325Y0172560D02*
X0098306Y0172560D01*
X0095258Y0175758D02*
X0094325Y0175758D01*
X0110465Y0185989D02*
X0110408Y0192172D01*
X0107670Y0191751D02*
X0106512Y0191751D01*
X0113365Y0197864D02*
X0125449Y0186257D01*
X0124774Y0176287D01*
X0124245Y0170101D01*
X0135863Y0158605D01*
X0150005Y0172748D02*
X0149746Y0185021D01*
X0120788Y0213978D01*
X0119750Y0215195D01*
X0118426Y0218467D01*
X0119140Y0219973D01*
X0118792Y0220321D01*
X0128792Y0220321D02*
X0129240Y0219873D01*
X0129370Y0217139D01*
X0157011Y0189238D01*
X0157076Y0179819D01*
X0203792Y0220321D02*
X0204984Y0219129D01*
X0203792Y0220321D02*
X0203792Y0225321D01*
X0203825Y0230321D01*
X0203792Y0228921D02*
X0204233Y0228921D01*
X0205103Y0228783D01*
X0205942Y0228511D01*
X0206066Y0228448D01*
X0206077Y0228476D01*
X0208130Y0230528D01*
X0199461Y0230522D01*
X0201507Y0228476D01*
X0201518Y0228448D01*
X0201642Y0228511D01*
X0202481Y0228783D01*
X0203351Y0228921D01*
X0203792Y0228921D01*
X0203792Y0220321D01*
X0203792Y0220321D01*
X0203792Y0228921D01*
X0203792Y0226934D02*
X0203792Y0226934D01*
X0199850Y0230133D02*
X0207735Y0230133D01*
X0203792Y0223736D02*
X0203792Y0223736D01*
X0203792Y0220537D02*
X0203792Y0220537D01*
X0088792Y0220321D02*
X0088779Y0220449D01*
X0068792Y0220321D02*
X0068850Y0215106D01*
X0066651Y0212907D01*
X0066651Y0210915D01*
X0066693Y0139509D01*
X0049692Y0223736D02*
X0023470Y0223736D01*
X0023482Y0226934D02*
X0050439Y0226934D01*
X0052735Y0230133D02*
X0027100Y0230133D01*
D24*
X0061936Y0104816D03*
X0118734Y0035753D03*
X0231833Y0100176D03*
X0248011Y0086752D03*
M02*
