G75*
%MOIN*%
%OFA0B0*%
%FSLAX25Y25*%
%IPPOS*%
%LPD*%
%AMOC8*
5,1,8,0,0,1.08239X$1,22.5*
%
%ADD10C,0.04500*%
%ADD11R,0.05315X0.05315*%
%ADD12C,0.05315*%
%ADD13R,0.05200X0.05200*%
%ADD14C,0.05200*%
%ADD15C,0.06000*%
%ADD16OC8,0.05200*%
%ADD17C,0.01040*%
%ADD18R,0.05543X0.05543*%
%ADD19C,0.05543*%
%ADD20R,0.07500X0.07500*%
%ADD21C,0.07500*%
%ADD22OC8,0.06300*%
%ADD23C,0.05118*%
%ADD24C,0.03200*%
D10*
X0048817Y0127888D03*
X0048817Y0137888D03*
X0100465Y0185989D03*
X0110465Y0185989D03*
X0113365Y0197864D03*
X0106294Y0204935D03*
X0228308Y0191786D03*
X0235379Y0198857D03*
X0266053Y0167591D03*
X0265948Y0157592D03*
D11*
X0231833Y0123340D03*
D12*
X0231833Y0115466D03*
D13*
X0189306Y0095448D03*
X0247926Y0184148D03*
D14*
X0257926Y0184148D03*
X0189306Y0085448D03*
X0111339Y0162852D03*
X0124774Y0176287D03*
D15*
X0058792Y0033321D02*
X0058792Y0027321D01*
X0068792Y0027321D02*
X0068792Y0033321D01*
X0078792Y0033321D02*
X0078792Y0027321D01*
X0088792Y0027321D02*
X0088792Y0033321D01*
X0098792Y0033321D02*
X0098792Y0027321D01*
X0108792Y0027321D02*
X0108792Y0033321D01*
X0128792Y0033321D02*
X0128792Y0027321D01*
X0138792Y0027321D02*
X0138792Y0033321D01*
X0148792Y0033321D02*
X0148792Y0027321D01*
X0158792Y0027321D02*
X0158792Y0033321D01*
X0168792Y0033321D02*
X0168792Y0027321D01*
X0178792Y0027321D02*
X0178792Y0033321D01*
X0051792Y0065321D02*
X0045792Y0065321D01*
X0045792Y0075321D02*
X0051792Y0075321D01*
X0051792Y0085321D02*
X0045792Y0085321D01*
X0045792Y0095321D02*
X0051792Y0095321D01*
X0051792Y0105321D02*
X0045792Y0105321D01*
X0045792Y0115321D02*
X0051792Y0115321D01*
X0058792Y0217321D02*
X0058792Y0223321D01*
X0068792Y0223321D02*
X0068792Y0217321D01*
X0078792Y0217321D02*
X0078792Y0223321D01*
X0088792Y0223321D02*
X0088792Y0217321D01*
X0098792Y0217321D02*
X0098792Y0223321D01*
X0108792Y0223321D02*
X0108792Y0217321D01*
X0118792Y0217321D02*
X0118792Y0223321D01*
X0128792Y0223321D02*
X0128792Y0217321D01*
X0143792Y0217321D02*
X0143792Y0223321D01*
X0153792Y0223321D02*
X0153792Y0217321D01*
X0163792Y0217321D02*
X0163792Y0223321D01*
X0173792Y0223321D02*
X0173792Y0217321D01*
X0183792Y0217321D02*
X0183792Y0223321D01*
X0193792Y0223321D02*
X0193792Y0217321D01*
X0203792Y0217321D02*
X0203792Y0223321D01*
X0213792Y0223321D02*
X0213792Y0217321D01*
D16*
X0247924Y0168447D03*
X0247924Y0128447D03*
X0188635Y0050467D03*
X0148635Y0050467D03*
D17*
X0216862Y0108117D02*
X0216342Y0108637D01*
X0218064Y0108637D01*
X0219282Y0107419D01*
X0219282Y0105697D01*
X0218064Y0104479D01*
X0216342Y0104479D01*
X0215124Y0105697D01*
X0215124Y0107419D01*
X0216342Y0108637D01*
X0216665Y0107857D01*
X0217741Y0107857D01*
X0218502Y0107096D01*
X0218502Y0106020D01*
X0217741Y0105259D01*
X0216665Y0105259D01*
X0215904Y0106020D01*
X0215904Y0107096D01*
X0216665Y0107857D01*
X0216988Y0107077D01*
X0217418Y0107077D01*
X0217722Y0106773D01*
X0217722Y0106343D01*
X0217418Y0106039D01*
X0216988Y0106039D01*
X0216684Y0106343D01*
X0216684Y0106773D01*
X0216988Y0107077D01*
X0188578Y0136401D02*
X0188058Y0136921D01*
X0189780Y0136921D01*
X0190998Y0135703D01*
X0190998Y0133981D01*
X0189780Y0132763D01*
X0188058Y0132763D01*
X0186840Y0133981D01*
X0186840Y0135703D01*
X0188058Y0136921D01*
X0188381Y0136141D01*
X0189457Y0136141D01*
X0190218Y0135380D01*
X0190218Y0134304D01*
X0189457Y0133543D01*
X0188381Y0133543D01*
X0187620Y0134304D01*
X0187620Y0135380D01*
X0188381Y0136141D01*
X0188704Y0135361D01*
X0189134Y0135361D01*
X0189438Y0135057D01*
X0189438Y0134627D01*
X0189134Y0134323D01*
X0188704Y0134323D01*
X0188400Y0134627D01*
X0188400Y0135057D01*
X0188704Y0135361D01*
D18*
G36*
X0076142Y0094966D02*
X0072224Y0091048D01*
X0068306Y0094966D01*
X0072224Y0098884D01*
X0076142Y0094966D01*
G37*
D19*
X0079295Y0102037D03*
X0086366Y0109108D03*
X0093437Y0116179D03*
X0100508Y0123250D03*
X0107579Y0130321D03*
X0114650Y0137392D03*
X0121721Y0144463D03*
X0128792Y0151534D03*
X0135863Y0158605D03*
X0142934Y0165676D03*
X0150005Y0172748D03*
X0157076Y0179819D03*
X0164147Y0186890D03*
X0185361Y0165676D03*
X0178290Y0158605D03*
X0171218Y0151534D03*
X0164147Y0144463D03*
X0157076Y0137392D03*
X0150005Y0130321D03*
X0142934Y0123250D03*
X0135863Y0116179D03*
X0128792Y0109108D03*
X0121721Y0102037D03*
X0114650Y0094966D03*
X0107579Y0087895D03*
X0100508Y0080824D03*
X0093437Y0073753D03*
D20*
X0049837Y0150559D03*
D21*
X0032837Y0150559D03*
X0032837Y0179559D03*
X0049837Y0179559D03*
D22*
X0172940Y0124951D03*
X0172940Y0104951D03*
D23*
X0231833Y0100176D03*
X0248011Y0086752D03*
X0118734Y0035753D03*
X0061936Y0104816D03*
D24*
X0058194Y0101236D01*
X0058194Y0096600D01*
X0117989Y0036571D01*
X0118734Y0035753D01*
X0231833Y0100176D02*
X0247082Y0086510D01*
X0247383Y0086573D01*
X0248011Y0086752D01*
M02*
