G75*
%MOIN*%
%OFA0B0*%
%FSLAX25Y25*%
%IPPOS*%
%LPD*%
%AMOC8*
5,1,8,0,0,1.08239X$1,22.5*
%
%ADD10C,0.00000*%
%ADD11C,0.00010*%
D10*
X0017680Y0012733D02*
X0017389Y0033232D01*
X0007204Y0043430D01*
X0007117Y0172242D01*
X0017223Y0182352D01*
X0017392Y0229832D01*
X0025153Y0236503D01*
X0281052Y0236678D01*
X0281257Y0012771D01*
X0048871Y0012771D01*
X0017680Y0012733D01*
D11*
X0010202Y0053282D02*
X0010204Y0053456D01*
X0010211Y0053629D01*
X0010221Y0053802D01*
X0010236Y0053975D01*
X0010255Y0054148D01*
X0010279Y0054320D01*
X0010306Y0054491D01*
X0010338Y0054661D01*
X0010374Y0054831D01*
X0010414Y0055000D01*
X0010458Y0055168D01*
X0010506Y0055335D01*
X0010559Y0055500D01*
X0010615Y0055664D01*
X0010676Y0055827D01*
X0010740Y0055988D01*
X0010809Y0056147D01*
X0010881Y0056305D01*
X0010957Y0056461D01*
X0011037Y0056615D01*
X0011121Y0056767D01*
X0011208Y0056917D01*
X0011299Y0057065D01*
X0011394Y0057210D01*
X0011492Y0057354D01*
X0011594Y0057494D01*
X0011699Y0057632D01*
X0011807Y0057768D01*
X0011919Y0057901D01*
X0012034Y0058031D01*
X0012152Y0058158D01*
X0012273Y0058282D01*
X0012397Y0058403D01*
X0012524Y0058521D01*
X0012654Y0058636D01*
X0012787Y0058748D01*
X0012923Y0058856D01*
X0013061Y0058961D01*
X0013201Y0059063D01*
X0013345Y0059161D01*
X0013490Y0059256D01*
X0013638Y0059347D01*
X0013788Y0059434D01*
X0013940Y0059518D01*
X0014094Y0059598D01*
X0014250Y0059674D01*
X0014408Y0059746D01*
X0014567Y0059815D01*
X0014728Y0059879D01*
X0014891Y0059940D01*
X0015055Y0059996D01*
X0015220Y0060049D01*
X0015387Y0060097D01*
X0015555Y0060141D01*
X0015724Y0060181D01*
X0015894Y0060217D01*
X0016064Y0060249D01*
X0016235Y0060276D01*
X0016407Y0060300D01*
X0016580Y0060319D01*
X0016753Y0060334D01*
X0016926Y0060344D01*
X0017099Y0060351D01*
X0017273Y0060353D01*
X0017447Y0060351D01*
X0017620Y0060344D01*
X0017793Y0060334D01*
X0017966Y0060319D01*
X0018139Y0060300D01*
X0018311Y0060276D01*
X0018482Y0060249D01*
X0018652Y0060217D01*
X0018822Y0060181D01*
X0018991Y0060141D01*
X0019159Y0060097D01*
X0019326Y0060049D01*
X0019491Y0059996D01*
X0019655Y0059940D01*
X0019818Y0059879D01*
X0019979Y0059815D01*
X0020138Y0059746D01*
X0020296Y0059674D01*
X0020452Y0059598D01*
X0020606Y0059518D01*
X0020758Y0059434D01*
X0020908Y0059347D01*
X0021056Y0059256D01*
X0021201Y0059161D01*
X0021345Y0059063D01*
X0021485Y0058961D01*
X0021623Y0058856D01*
X0021759Y0058748D01*
X0021892Y0058636D01*
X0022022Y0058521D01*
X0022149Y0058403D01*
X0022273Y0058282D01*
X0022394Y0058158D01*
X0022512Y0058031D01*
X0022627Y0057901D01*
X0022739Y0057768D01*
X0022847Y0057632D01*
X0022952Y0057494D01*
X0023054Y0057354D01*
X0023152Y0057210D01*
X0023247Y0057065D01*
X0023338Y0056917D01*
X0023425Y0056767D01*
X0023509Y0056615D01*
X0023589Y0056461D01*
X0023665Y0056305D01*
X0023737Y0056147D01*
X0023806Y0055988D01*
X0023870Y0055827D01*
X0023931Y0055664D01*
X0023987Y0055500D01*
X0024040Y0055335D01*
X0024088Y0055168D01*
X0024132Y0055000D01*
X0024172Y0054831D01*
X0024208Y0054661D01*
X0024240Y0054491D01*
X0024267Y0054320D01*
X0024291Y0054148D01*
X0024310Y0053975D01*
X0024325Y0053802D01*
X0024335Y0053629D01*
X0024342Y0053456D01*
X0024344Y0053282D01*
X0024342Y0053108D01*
X0024335Y0052935D01*
X0024325Y0052762D01*
X0024310Y0052589D01*
X0024291Y0052416D01*
X0024267Y0052244D01*
X0024240Y0052073D01*
X0024208Y0051903D01*
X0024172Y0051733D01*
X0024132Y0051564D01*
X0024088Y0051396D01*
X0024040Y0051229D01*
X0023987Y0051064D01*
X0023931Y0050900D01*
X0023870Y0050737D01*
X0023806Y0050576D01*
X0023737Y0050417D01*
X0023665Y0050259D01*
X0023589Y0050103D01*
X0023509Y0049949D01*
X0023425Y0049797D01*
X0023338Y0049647D01*
X0023247Y0049499D01*
X0023152Y0049354D01*
X0023054Y0049210D01*
X0022952Y0049070D01*
X0022847Y0048932D01*
X0022739Y0048796D01*
X0022627Y0048663D01*
X0022512Y0048533D01*
X0022394Y0048406D01*
X0022273Y0048282D01*
X0022149Y0048161D01*
X0022022Y0048043D01*
X0021892Y0047928D01*
X0021759Y0047816D01*
X0021623Y0047708D01*
X0021485Y0047603D01*
X0021345Y0047501D01*
X0021201Y0047403D01*
X0021056Y0047308D01*
X0020908Y0047217D01*
X0020758Y0047130D01*
X0020606Y0047046D01*
X0020452Y0046966D01*
X0020296Y0046890D01*
X0020138Y0046818D01*
X0019979Y0046749D01*
X0019818Y0046685D01*
X0019655Y0046624D01*
X0019491Y0046568D01*
X0019326Y0046515D01*
X0019159Y0046467D01*
X0018991Y0046423D01*
X0018822Y0046383D01*
X0018652Y0046347D01*
X0018482Y0046315D01*
X0018311Y0046288D01*
X0018139Y0046264D01*
X0017966Y0046245D01*
X0017793Y0046230D01*
X0017620Y0046220D01*
X0017447Y0046213D01*
X0017273Y0046211D01*
X0017099Y0046213D01*
X0016926Y0046220D01*
X0016753Y0046230D01*
X0016580Y0046245D01*
X0016407Y0046264D01*
X0016235Y0046288D01*
X0016064Y0046315D01*
X0015894Y0046347D01*
X0015724Y0046383D01*
X0015555Y0046423D01*
X0015387Y0046467D01*
X0015220Y0046515D01*
X0015055Y0046568D01*
X0014891Y0046624D01*
X0014728Y0046685D01*
X0014567Y0046749D01*
X0014408Y0046818D01*
X0014250Y0046890D01*
X0014094Y0046966D01*
X0013940Y0047046D01*
X0013788Y0047130D01*
X0013638Y0047217D01*
X0013490Y0047308D01*
X0013345Y0047403D01*
X0013201Y0047501D01*
X0013061Y0047603D01*
X0012923Y0047708D01*
X0012787Y0047816D01*
X0012654Y0047928D01*
X0012524Y0048043D01*
X0012397Y0048161D01*
X0012273Y0048282D01*
X0012152Y0048406D01*
X0012034Y0048533D01*
X0011919Y0048663D01*
X0011807Y0048796D01*
X0011699Y0048932D01*
X0011594Y0049070D01*
X0011492Y0049210D01*
X0011394Y0049354D01*
X0011299Y0049499D01*
X0011208Y0049647D01*
X0011121Y0049797D01*
X0011037Y0049949D01*
X0010957Y0050103D01*
X0010881Y0050259D01*
X0010809Y0050417D01*
X0010740Y0050576D01*
X0010676Y0050737D01*
X0010615Y0050900D01*
X0010559Y0051064D01*
X0010506Y0051229D01*
X0010458Y0051396D01*
X0010414Y0051564D01*
X0010374Y0051733D01*
X0010338Y0051903D01*
X0010306Y0052073D01*
X0010279Y0052244D01*
X0010255Y0052416D01*
X0010236Y0052589D01*
X0010221Y0052762D01*
X0010211Y0052935D01*
X0010204Y0053108D01*
X0010202Y0053282D01*
X0010254Y0142800D02*
X0010256Y0142974D01*
X0010263Y0143147D01*
X0010273Y0143320D01*
X0010288Y0143493D01*
X0010307Y0143666D01*
X0010331Y0143838D01*
X0010358Y0144009D01*
X0010390Y0144179D01*
X0010426Y0144349D01*
X0010466Y0144518D01*
X0010510Y0144686D01*
X0010558Y0144853D01*
X0010611Y0145018D01*
X0010667Y0145182D01*
X0010728Y0145345D01*
X0010792Y0145506D01*
X0010861Y0145665D01*
X0010933Y0145823D01*
X0011009Y0145979D01*
X0011089Y0146133D01*
X0011173Y0146285D01*
X0011260Y0146435D01*
X0011351Y0146583D01*
X0011446Y0146728D01*
X0011544Y0146872D01*
X0011646Y0147012D01*
X0011751Y0147150D01*
X0011859Y0147286D01*
X0011971Y0147419D01*
X0012086Y0147549D01*
X0012204Y0147676D01*
X0012325Y0147800D01*
X0012449Y0147921D01*
X0012576Y0148039D01*
X0012706Y0148154D01*
X0012839Y0148266D01*
X0012975Y0148374D01*
X0013113Y0148479D01*
X0013253Y0148581D01*
X0013397Y0148679D01*
X0013542Y0148774D01*
X0013690Y0148865D01*
X0013840Y0148952D01*
X0013992Y0149036D01*
X0014146Y0149116D01*
X0014302Y0149192D01*
X0014460Y0149264D01*
X0014619Y0149333D01*
X0014780Y0149397D01*
X0014943Y0149458D01*
X0015107Y0149514D01*
X0015272Y0149567D01*
X0015439Y0149615D01*
X0015607Y0149659D01*
X0015776Y0149699D01*
X0015946Y0149735D01*
X0016116Y0149767D01*
X0016287Y0149794D01*
X0016459Y0149818D01*
X0016632Y0149837D01*
X0016805Y0149852D01*
X0016978Y0149862D01*
X0017151Y0149869D01*
X0017325Y0149871D01*
X0017499Y0149869D01*
X0017672Y0149862D01*
X0017845Y0149852D01*
X0018018Y0149837D01*
X0018191Y0149818D01*
X0018363Y0149794D01*
X0018534Y0149767D01*
X0018704Y0149735D01*
X0018874Y0149699D01*
X0019043Y0149659D01*
X0019211Y0149615D01*
X0019378Y0149567D01*
X0019543Y0149514D01*
X0019707Y0149458D01*
X0019870Y0149397D01*
X0020031Y0149333D01*
X0020190Y0149264D01*
X0020348Y0149192D01*
X0020504Y0149116D01*
X0020658Y0149036D01*
X0020810Y0148952D01*
X0020960Y0148865D01*
X0021108Y0148774D01*
X0021253Y0148679D01*
X0021397Y0148581D01*
X0021537Y0148479D01*
X0021675Y0148374D01*
X0021811Y0148266D01*
X0021944Y0148154D01*
X0022074Y0148039D01*
X0022201Y0147921D01*
X0022325Y0147800D01*
X0022446Y0147676D01*
X0022564Y0147549D01*
X0022679Y0147419D01*
X0022791Y0147286D01*
X0022899Y0147150D01*
X0023004Y0147012D01*
X0023106Y0146872D01*
X0023204Y0146728D01*
X0023299Y0146583D01*
X0023390Y0146435D01*
X0023477Y0146285D01*
X0023561Y0146133D01*
X0023641Y0145979D01*
X0023717Y0145823D01*
X0023789Y0145665D01*
X0023858Y0145506D01*
X0023922Y0145345D01*
X0023983Y0145182D01*
X0024039Y0145018D01*
X0024092Y0144853D01*
X0024140Y0144686D01*
X0024184Y0144518D01*
X0024224Y0144349D01*
X0024260Y0144179D01*
X0024292Y0144009D01*
X0024319Y0143838D01*
X0024343Y0143666D01*
X0024362Y0143493D01*
X0024377Y0143320D01*
X0024387Y0143147D01*
X0024394Y0142974D01*
X0024396Y0142800D01*
X0024394Y0142626D01*
X0024387Y0142453D01*
X0024377Y0142280D01*
X0024362Y0142107D01*
X0024343Y0141934D01*
X0024319Y0141762D01*
X0024292Y0141591D01*
X0024260Y0141421D01*
X0024224Y0141251D01*
X0024184Y0141082D01*
X0024140Y0140914D01*
X0024092Y0140747D01*
X0024039Y0140582D01*
X0023983Y0140418D01*
X0023922Y0140255D01*
X0023858Y0140094D01*
X0023789Y0139935D01*
X0023717Y0139777D01*
X0023641Y0139621D01*
X0023561Y0139467D01*
X0023477Y0139315D01*
X0023390Y0139165D01*
X0023299Y0139017D01*
X0023204Y0138872D01*
X0023106Y0138728D01*
X0023004Y0138588D01*
X0022899Y0138450D01*
X0022791Y0138314D01*
X0022679Y0138181D01*
X0022564Y0138051D01*
X0022446Y0137924D01*
X0022325Y0137800D01*
X0022201Y0137679D01*
X0022074Y0137561D01*
X0021944Y0137446D01*
X0021811Y0137334D01*
X0021675Y0137226D01*
X0021537Y0137121D01*
X0021397Y0137019D01*
X0021253Y0136921D01*
X0021108Y0136826D01*
X0020960Y0136735D01*
X0020810Y0136648D01*
X0020658Y0136564D01*
X0020504Y0136484D01*
X0020348Y0136408D01*
X0020190Y0136336D01*
X0020031Y0136267D01*
X0019870Y0136203D01*
X0019707Y0136142D01*
X0019543Y0136086D01*
X0019378Y0136033D01*
X0019211Y0135985D01*
X0019043Y0135941D01*
X0018874Y0135901D01*
X0018704Y0135865D01*
X0018534Y0135833D01*
X0018363Y0135806D01*
X0018191Y0135782D01*
X0018018Y0135763D01*
X0017845Y0135748D01*
X0017672Y0135738D01*
X0017499Y0135731D01*
X0017325Y0135729D01*
X0017151Y0135731D01*
X0016978Y0135738D01*
X0016805Y0135748D01*
X0016632Y0135763D01*
X0016459Y0135782D01*
X0016287Y0135806D01*
X0016116Y0135833D01*
X0015946Y0135865D01*
X0015776Y0135901D01*
X0015607Y0135941D01*
X0015439Y0135985D01*
X0015272Y0136033D01*
X0015107Y0136086D01*
X0014943Y0136142D01*
X0014780Y0136203D01*
X0014619Y0136267D01*
X0014460Y0136336D01*
X0014302Y0136408D01*
X0014146Y0136484D01*
X0013992Y0136564D01*
X0013840Y0136648D01*
X0013690Y0136735D01*
X0013542Y0136826D01*
X0013397Y0136921D01*
X0013253Y0137019D01*
X0013113Y0137121D01*
X0012975Y0137226D01*
X0012839Y0137334D01*
X0012706Y0137446D01*
X0012576Y0137561D01*
X0012449Y0137679D01*
X0012325Y0137800D01*
X0012204Y0137924D01*
X0012086Y0138051D01*
X0011971Y0138181D01*
X0011859Y0138314D01*
X0011751Y0138450D01*
X0011646Y0138588D01*
X0011544Y0138728D01*
X0011446Y0138872D01*
X0011351Y0139017D01*
X0011260Y0139165D01*
X0011173Y0139315D01*
X0011089Y0139467D01*
X0011009Y0139621D01*
X0010933Y0139777D01*
X0010861Y0139935D01*
X0010792Y0140094D01*
X0010728Y0140255D01*
X0010667Y0140418D01*
X0010611Y0140582D01*
X0010558Y0140747D01*
X0010510Y0140914D01*
X0010466Y0141082D01*
X0010426Y0141251D01*
X0010390Y0141421D01*
X0010358Y0141591D01*
X0010331Y0141762D01*
X0010307Y0141934D01*
X0010288Y0142107D01*
X0010273Y0142280D01*
X0010263Y0142453D01*
X0010256Y0142626D01*
X0010254Y0142800D01*
X0241546Y0217700D02*
X0241548Y0217874D01*
X0241555Y0218047D01*
X0241565Y0218220D01*
X0241580Y0218393D01*
X0241599Y0218566D01*
X0241623Y0218738D01*
X0241650Y0218909D01*
X0241682Y0219079D01*
X0241718Y0219249D01*
X0241758Y0219418D01*
X0241802Y0219586D01*
X0241850Y0219753D01*
X0241903Y0219918D01*
X0241959Y0220082D01*
X0242020Y0220245D01*
X0242084Y0220406D01*
X0242153Y0220565D01*
X0242225Y0220723D01*
X0242301Y0220879D01*
X0242381Y0221033D01*
X0242465Y0221185D01*
X0242552Y0221335D01*
X0242643Y0221483D01*
X0242738Y0221628D01*
X0242836Y0221772D01*
X0242938Y0221912D01*
X0243043Y0222050D01*
X0243151Y0222186D01*
X0243263Y0222319D01*
X0243378Y0222449D01*
X0243496Y0222576D01*
X0243617Y0222700D01*
X0243741Y0222821D01*
X0243868Y0222939D01*
X0243998Y0223054D01*
X0244131Y0223166D01*
X0244267Y0223274D01*
X0244405Y0223379D01*
X0244545Y0223481D01*
X0244689Y0223579D01*
X0244834Y0223674D01*
X0244982Y0223765D01*
X0245132Y0223852D01*
X0245284Y0223936D01*
X0245438Y0224016D01*
X0245594Y0224092D01*
X0245752Y0224164D01*
X0245911Y0224233D01*
X0246072Y0224297D01*
X0246235Y0224358D01*
X0246399Y0224414D01*
X0246564Y0224467D01*
X0246731Y0224515D01*
X0246899Y0224559D01*
X0247068Y0224599D01*
X0247238Y0224635D01*
X0247408Y0224667D01*
X0247579Y0224694D01*
X0247751Y0224718D01*
X0247924Y0224737D01*
X0248097Y0224752D01*
X0248270Y0224762D01*
X0248443Y0224769D01*
X0248617Y0224771D01*
X0248791Y0224769D01*
X0248964Y0224762D01*
X0249137Y0224752D01*
X0249310Y0224737D01*
X0249483Y0224718D01*
X0249655Y0224694D01*
X0249826Y0224667D01*
X0249996Y0224635D01*
X0250166Y0224599D01*
X0250335Y0224559D01*
X0250503Y0224515D01*
X0250670Y0224467D01*
X0250835Y0224414D01*
X0250999Y0224358D01*
X0251162Y0224297D01*
X0251323Y0224233D01*
X0251482Y0224164D01*
X0251640Y0224092D01*
X0251796Y0224016D01*
X0251950Y0223936D01*
X0252102Y0223852D01*
X0252252Y0223765D01*
X0252400Y0223674D01*
X0252545Y0223579D01*
X0252689Y0223481D01*
X0252829Y0223379D01*
X0252967Y0223274D01*
X0253103Y0223166D01*
X0253236Y0223054D01*
X0253366Y0222939D01*
X0253493Y0222821D01*
X0253617Y0222700D01*
X0253738Y0222576D01*
X0253856Y0222449D01*
X0253971Y0222319D01*
X0254083Y0222186D01*
X0254191Y0222050D01*
X0254296Y0221912D01*
X0254398Y0221772D01*
X0254496Y0221628D01*
X0254591Y0221483D01*
X0254682Y0221335D01*
X0254769Y0221185D01*
X0254853Y0221033D01*
X0254933Y0220879D01*
X0255009Y0220723D01*
X0255081Y0220565D01*
X0255150Y0220406D01*
X0255214Y0220245D01*
X0255275Y0220082D01*
X0255331Y0219918D01*
X0255384Y0219753D01*
X0255432Y0219586D01*
X0255476Y0219418D01*
X0255516Y0219249D01*
X0255552Y0219079D01*
X0255584Y0218909D01*
X0255611Y0218738D01*
X0255635Y0218566D01*
X0255654Y0218393D01*
X0255669Y0218220D01*
X0255679Y0218047D01*
X0255686Y0217874D01*
X0255688Y0217700D01*
X0255686Y0217526D01*
X0255679Y0217353D01*
X0255669Y0217180D01*
X0255654Y0217007D01*
X0255635Y0216834D01*
X0255611Y0216662D01*
X0255584Y0216491D01*
X0255552Y0216321D01*
X0255516Y0216151D01*
X0255476Y0215982D01*
X0255432Y0215814D01*
X0255384Y0215647D01*
X0255331Y0215482D01*
X0255275Y0215318D01*
X0255214Y0215155D01*
X0255150Y0214994D01*
X0255081Y0214835D01*
X0255009Y0214677D01*
X0254933Y0214521D01*
X0254853Y0214367D01*
X0254769Y0214215D01*
X0254682Y0214065D01*
X0254591Y0213917D01*
X0254496Y0213772D01*
X0254398Y0213628D01*
X0254296Y0213488D01*
X0254191Y0213350D01*
X0254083Y0213214D01*
X0253971Y0213081D01*
X0253856Y0212951D01*
X0253738Y0212824D01*
X0253617Y0212700D01*
X0253493Y0212579D01*
X0253366Y0212461D01*
X0253236Y0212346D01*
X0253103Y0212234D01*
X0252967Y0212126D01*
X0252829Y0212021D01*
X0252689Y0211919D01*
X0252545Y0211821D01*
X0252400Y0211726D01*
X0252252Y0211635D01*
X0252102Y0211548D01*
X0251950Y0211464D01*
X0251796Y0211384D01*
X0251640Y0211308D01*
X0251482Y0211236D01*
X0251323Y0211167D01*
X0251162Y0211103D01*
X0250999Y0211042D01*
X0250835Y0210986D01*
X0250670Y0210933D01*
X0250503Y0210885D01*
X0250335Y0210841D01*
X0250166Y0210801D01*
X0249996Y0210765D01*
X0249826Y0210733D01*
X0249655Y0210706D01*
X0249483Y0210682D01*
X0249310Y0210663D01*
X0249137Y0210648D01*
X0248964Y0210638D01*
X0248791Y0210631D01*
X0248617Y0210629D01*
X0248443Y0210631D01*
X0248270Y0210638D01*
X0248097Y0210648D01*
X0247924Y0210663D01*
X0247751Y0210682D01*
X0247579Y0210706D01*
X0247408Y0210733D01*
X0247238Y0210765D01*
X0247068Y0210801D01*
X0246899Y0210841D01*
X0246731Y0210885D01*
X0246564Y0210933D01*
X0246399Y0210986D01*
X0246235Y0211042D01*
X0246072Y0211103D01*
X0245911Y0211167D01*
X0245752Y0211236D01*
X0245594Y0211308D01*
X0245438Y0211384D01*
X0245284Y0211464D01*
X0245132Y0211548D01*
X0244982Y0211635D01*
X0244834Y0211726D01*
X0244689Y0211821D01*
X0244545Y0211919D01*
X0244405Y0212021D01*
X0244267Y0212126D01*
X0244131Y0212234D01*
X0243998Y0212346D01*
X0243868Y0212461D01*
X0243741Y0212579D01*
X0243617Y0212700D01*
X0243496Y0212824D01*
X0243378Y0212951D01*
X0243263Y0213081D01*
X0243151Y0213214D01*
X0243043Y0213350D01*
X0242938Y0213488D01*
X0242836Y0213628D01*
X0242738Y0213772D01*
X0242643Y0213917D01*
X0242552Y0214065D01*
X0242465Y0214215D01*
X0242381Y0214367D01*
X0242301Y0214521D01*
X0242225Y0214677D01*
X0242153Y0214835D01*
X0242084Y0214994D01*
X0242020Y0215155D01*
X0241959Y0215318D01*
X0241903Y0215482D01*
X0241850Y0215647D01*
X0241802Y0215814D01*
X0241758Y0215982D01*
X0241718Y0216151D01*
X0241682Y0216321D01*
X0241650Y0216491D01*
X0241623Y0216662D01*
X0241599Y0216834D01*
X0241580Y0217007D01*
X0241565Y0217180D01*
X0241555Y0217353D01*
X0241548Y0217526D01*
X0241546Y0217700D01*
X0246721Y0030321D02*
X0246723Y0030495D01*
X0246730Y0030668D01*
X0246740Y0030841D01*
X0246755Y0031014D01*
X0246774Y0031187D01*
X0246798Y0031359D01*
X0246825Y0031530D01*
X0246857Y0031700D01*
X0246893Y0031870D01*
X0246933Y0032039D01*
X0246977Y0032207D01*
X0247025Y0032374D01*
X0247078Y0032539D01*
X0247134Y0032703D01*
X0247195Y0032866D01*
X0247259Y0033027D01*
X0247328Y0033186D01*
X0247400Y0033344D01*
X0247476Y0033500D01*
X0247556Y0033654D01*
X0247640Y0033806D01*
X0247727Y0033956D01*
X0247818Y0034104D01*
X0247913Y0034249D01*
X0248011Y0034393D01*
X0248113Y0034533D01*
X0248218Y0034671D01*
X0248326Y0034807D01*
X0248438Y0034940D01*
X0248553Y0035070D01*
X0248671Y0035197D01*
X0248792Y0035321D01*
X0248916Y0035442D01*
X0249043Y0035560D01*
X0249173Y0035675D01*
X0249306Y0035787D01*
X0249442Y0035895D01*
X0249580Y0036000D01*
X0249720Y0036102D01*
X0249864Y0036200D01*
X0250009Y0036295D01*
X0250157Y0036386D01*
X0250307Y0036473D01*
X0250459Y0036557D01*
X0250613Y0036637D01*
X0250769Y0036713D01*
X0250927Y0036785D01*
X0251086Y0036854D01*
X0251247Y0036918D01*
X0251410Y0036979D01*
X0251574Y0037035D01*
X0251739Y0037088D01*
X0251906Y0037136D01*
X0252074Y0037180D01*
X0252243Y0037220D01*
X0252413Y0037256D01*
X0252583Y0037288D01*
X0252754Y0037315D01*
X0252926Y0037339D01*
X0253099Y0037358D01*
X0253272Y0037373D01*
X0253445Y0037383D01*
X0253618Y0037390D01*
X0253792Y0037392D01*
X0253966Y0037390D01*
X0254139Y0037383D01*
X0254312Y0037373D01*
X0254485Y0037358D01*
X0254658Y0037339D01*
X0254830Y0037315D01*
X0255001Y0037288D01*
X0255171Y0037256D01*
X0255341Y0037220D01*
X0255510Y0037180D01*
X0255678Y0037136D01*
X0255845Y0037088D01*
X0256010Y0037035D01*
X0256174Y0036979D01*
X0256337Y0036918D01*
X0256498Y0036854D01*
X0256657Y0036785D01*
X0256815Y0036713D01*
X0256971Y0036637D01*
X0257125Y0036557D01*
X0257277Y0036473D01*
X0257427Y0036386D01*
X0257575Y0036295D01*
X0257720Y0036200D01*
X0257864Y0036102D01*
X0258004Y0036000D01*
X0258142Y0035895D01*
X0258278Y0035787D01*
X0258411Y0035675D01*
X0258541Y0035560D01*
X0258668Y0035442D01*
X0258792Y0035321D01*
X0258913Y0035197D01*
X0259031Y0035070D01*
X0259146Y0034940D01*
X0259258Y0034807D01*
X0259366Y0034671D01*
X0259471Y0034533D01*
X0259573Y0034393D01*
X0259671Y0034249D01*
X0259766Y0034104D01*
X0259857Y0033956D01*
X0259944Y0033806D01*
X0260028Y0033654D01*
X0260108Y0033500D01*
X0260184Y0033344D01*
X0260256Y0033186D01*
X0260325Y0033027D01*
X0260389Y0032866D01*
X0260450Y0032703D01*
X0260506Y0032539D01*
X0260559Y0032374D01*
X0260607Y0032207D01*
X0260651Y0032039D01*
X0260691Y0031870D01*
X0260727Y0031700D01*
X0260759Y0031530D01*
X0260786Y0031359D01*
X0260810Y0031187D01*
X0260829Y0031014D01*
X0260844Y0030841D01*
X0260854Y0030668D01*
X0260861Y0030495D01*
X0260863Y0030321D01*
X0260861Y0030147D01*
X0260854Y0029974D01*
X0260844Y0029801D01*
X0260829Y0029628D01*
X0260810Y0029455D01*
X0260786Y0029283D01*
X0260759Y0029112D01*
X0260727Y0028942D01*
X0260691Y0028772D01*
X0260651Y0028603D01*
X0260607Y0028435D01*
X0260559Y0028268D01*
X0260506Y0028103D01*
X0260450Y0027939D01*
X0260389Y0027776D01*
X0260325Y0027615D01*
X0260256Y0027456D01*
X0260184Y0027298D01*
X0260108Y0027142D01*
X0260028Y0026988D01*
X0259944Y0026836D01*
X0259857Y0026686D01*
X0259766Y0026538D01*
X0259671Y0026393D01*
X0259573Y0026249D01*
X0259471Y0026109D01*
X0259366Y0025971D01*
X0259258Y0025835D01*
X0259146Y0025702D01*
X0259031Y0025572D01*
X0258913Y0025445D01*
X0258792Y0025321D01*
X0258668Y0025200D01*
X0258541Y0025082D01*
X0258411Y0024967D01*
X0258278Y0024855D01*
X0258142Y0024747D01*
X0258004Y0024642D01*
X0257864Y0024540D01*
X0257720Y0024442D01*
X0257575Y0024347D01*
X0257427Y0024256D01*
X0257277Y0024169D01*
X0257125Y0024085D01*
X0256971Y0024005D01*
X0256815Y0023929D01*
X0256657Y0023857D01*
X0256498Y0023788D01*
X0256337Y0023724D01*
X0256174Y0023663D01*
X0256010Y0023607D01*
X0255845Y0023554D01*
X0255678Y0023506D01*
X0255510Y0023462D01*
X0255341Y0023422D01*
X0255171Y0023386D01*
X0255001Y0023354D01*
X0254830Y0023327D01*
X0254658Y0023303D01*
X0254485Y0023284D01*
X0254312Y0023269D01*
X0254139Y0023259D01*
X0253966Y0023252D01*
X0253792Y0023250D01*
X0253618Y0023252D01*
X0253445Y0023259D01*
X0253272Y0023269D01*
X0253099Y0023284D01*
X0252926Y0023303D01*
X0252754Y0023327D01*
X0252583Y0023354D01*
X0252413Y0023386D01*
X0252243Y0023422D01*
X0252074Y0023462D01*
X0251906Y0023506D01*
X0251739Y0023554D01*
X0251574Y0023607D01*
X0251410Y0023663D01*
X0251247Y0023724D01*
X0251086Y0023788D01*
X0250927Y0023857D01*
X0250769Y0023929D01*
X0250613Y0024005D01*
X0250459Y0024085D01*
X0250307Y0024169D01*
X0250157Y0024256D01*
X0250009Y0024347D01*
X0249864Y0024442D01*
X0249720Y0024540D01*
X0249580Y0024642D01*
X0249442Y0024747D01*
X0249306Y0024855D01*
X0249173Y0024967D01*
X0249043Y0025082D01*
X0248916Y0025200D01*
X0248792Y0025321D01*
X0248671Y0025445D01*
X0248553Y0025572D01*
X0248438Y0025702D01*
X0248326Y0025835D01*
X0248218Y0025971D01*
X0248113Y0026109D01*
X0248011Y0026249D01*
X0247913Y0026393D01*
X0247818Y0026538D01*
X0247727Y0026686D01*
X0247640Y0026836D01*
X0247556Y0026988D01*
X0247476Y0027142D01*
X0247400Y0027298D01*
X0247328Y0027456D01*
X0247259Y0027615D01*
X0247195Y0027776D01*
X0247134Y0027939D01*
X0247078Y0028103D01*
X0247025Y0028268D01*
X0246977Y0028435D01*
X0246933Y0028603D01*
X0246893Y0028772D01*
X0246857Y0028942D01*
X0246825Y0029112D01*
X0246798Y0029283D01*
X0246774Y0029455D01*
X0246755Y0029628D01*
X0246740Y0029801D01*
X0246730Y0029974D01*
X0246723Y0030147D01*
X0246721Y0030321D01*
M02*
