%
M48
M72
T01C0.0236
T02C0.0250
T03C0.0295
T04C0.0315
T05C0.0320
T06C0.0354
T07C0.0400
T08C0.0450
%
T01
X11873Y3575
X6194Y10482
T02
X4882Y12789
X4882Y13789
X10047Y18599
X11047Y18599
X11337Y19786
X10629Y20494
X22831Y19179
X23538Y19886
X26605Y16759
X26595Y15759
T03
X23183Y10018
X24801Y8675
T04
X23183Y11547
X23183Y12334
T05
X24792Y12845
X21720Y10656
X18931Y9545
X18931Y8545
X17294Y10495
X17294Y12495
X18892Y13484
X24792Y16845
X24793Y18415
X25793Y18415
X12477Y17629
X11134Y16285
X14863Y5047
X18863Y5047
T06
X12172Y10204
X12879Y10911
X13586Y11618
X14293Y12325
X15001Y13032
X15708Y13739
X16415Y14446
X17122Y15153
X17829Y15861
X18536Y16568
X16415Y18689
X15708Y17982
X15001Y17275
X14293Y16568
X13586Y15861
X12879Y15153
X12172Y14446
X11465Y13739
X10758Y13032
X10051Y12325
X9344Y11618
X8637Y10911
X7929Y10204
X7222Y9497
X9344Y7375
X10051Y8082
X10758Y8789
X11465Y9497
T07
X5879Y3032
X6879Y3032
X7879Y3032
X8879Y3032
X9879Y3032
X10879Y3032
X12879Y3032
X13879Y3032
X14879Y3032
X15879Y3032
X16879Y3032
X17879Y3032
X4879Y6532
X4879Y7532
X4879Y8532
X4879Y9532
X4879Y10532
X4879Y11532
X5879Y22032
X6879Y22032
X7879Y22032
X8879Y22032
X9879Y22032
X10879Y22032
X11879Y22032
X12879Y22032
X14379Y22032
X15379Y22032
X16379Y22032
X17379Y22032
X18379Y22032
X19379Y22032
X20379Y22032
X21379Y22032
T08
X4984Y17956
X3284Y17956
X3284Y15056
X4984Y15056
M30
