G75*
%MOIN*%
%OFA0B0*%
%FSLAX25Y25*%
%IPPOS*%
%LPD*%
%AMOC8*
5,1,8,0,0,1.08239X$1,22.5*
%
%ADD10C,0.04500*%
%ADD11R,0.05315X0.05315*%
%ADD12C,0.05315*%
%ADD13R,0.05200X0.05200*%
%ADD14C,0.05200*%
%ADD15C,0.06000*%
%ADD16OC8,0.05200*%
%ADD17C,0.01040*%
%ADD18R,0.05543X0.05543*%
%ADD19C,0.05543*%
%ADD20R,0.07500X0.07500*%
%ADD21C,0.07500*%
%ADD22OC8,0.06300*%
%ADD23C,0.03200*%
%ADD24C,0.05118*%
D10*
X0028837Y0158979D03*
X0028733Y0168979D03*
X0059407Y0200244D03*
X0066478Y0193173D03*
X0181421Y0199252D03*
X0188492Y0206323D03*
X0184321Y0187376D03*
X0194321Y0187376D03*
X0245969Y0139276D03*
X0245969Y0129276D03*
D11*
X0062953Y0124727D03*
D12*
X0062953Y0116853D03*
D13*
X0105480Y0096835D03*
X0046860Y0185535D03*
D14*
X0036860Y0185535D03*
X0105480Y0086835D03*
X0183447Y0164240D03*
X0170012Y0177675D03*
D15*
X0165994Y0218709D02*
X0165994Y0224709D01*
X0175994Y0224709D02*
X0175994Y0218709D01*
X0185994Y0218709D02*
X0185994Y0224709D01*
X0195994Y0224709D02*
X0195994Y0218709D01*
X0205994Y0218709D02*
X0205994Y0224709D01*
X0215994Y0224709D02*
X0215994Y0218709D01*
X0225994Y0218709D02*
X0225994Y0224709D01*
X0235994Y0224709D02*
X0235994Y0218709D01*
X0150994Y0218709D02*
X0150994Y0224709D01*
X0140994Y0224709D02*
X0140994Y0218709D01*
X0130994Y0218709D02*
X0130994Y0224709D01*
X0120994Y0224709D02*
X0120994Y0218709D01*
X0110994Y0218709D02*
X0110994Y0224709D01*
X0100994Y0224709D02*
X0100994Y0218709D01*
X0090994Y0218709D02*
X0090994Y0224709D01*
X0080994Y0224709D02*
X0080994Y0218709D01*
X0242994Y0116709D02*
X0248994Y0116709D01*
X0248994Y0106709D02*
X0242994Y0106709D01*
X0242994Y0096709D02*
X0248994Y0096709D01*
X0248994Y0086709D02*
X0242994Y0086709D01*
X0242994Y0076709D02*
X0248994Y0076709D01*
X0248994Y0066709D02*
X0242994Y0066709D01*
X0235994Y0034709D02*
X0235994Y0028709D01*
X0225994Y0028709D02*
X0225994Y0034709D01*
X0215994Y0034709D02*
X0215994Y0028709D01*
X0205994Y0028709D02*
X0205994Y0034709D01*
X0195994Y0034709D02*
X0195994Y0028709D01*
X0185994Y0028709D02*
X0185994Y0034709D01*
X0165994Y0034709D02*
X0165994Y0028709D01*
X0155994Y0028709D02*
X0155994Y0034709D01*
X0145994Y0034709D02*
X0145994Y0028709D01*
X0135994Y0028709D02*
X0135994Y0034709D01*
X0125994Y0034709D02*
X0125994Y0028709D01*
X0115994Y0028709D02*
X0115994Y0034709D01*
D16*
X0106151Y0051854D03*
X0146151Y0051854D03*
X0046862Y0129834D03*
X0046862Y0169834D03*
D17*
X0107426Y0136570D02*
X0107946Y0137090D01*
X0107946Y0135368D01*
X0106728Y0134150D01*
X0105006Y0134150D01*
X0103788Y0135368D01*
X0103788Y0137090D01*
X0105006Y0138308D01*
X0106728Y0138308D01*
X0107946Y0137090D01*
X0107166Y0136767D01*
X0107166Y0135691D01*
X0106405Y0134930D01*
X0105329Y0134930D01*
X0104568Y0135691D01*
X0104568Y0136767D01*
X0105329Y0137528D01*
X0106405Y0137528D01*
X0107166Y0136767D01*
X0106386Y0136444D01*
X0106386Y0136014D01*
X0106082Y0135710D01*
X0105652Y0135710D01*
X0105348Y0136014D01*
X0105348Y0136444D01*
X0105652Y0136748D01*
X0106082Y0136748D01*
X0106386Y0136444D01*
X0079142Y0108286D02*
X0079662Y0108806D01*
X0079662Y0107084D01*
X0078444Y0105866D01*
X0076722Y0105866D01*
X0075504Y0107084D01*
X0075504Y0108806D01*
X0076722Y0110024D01*
X0078444Y0110024D01*
X0079662Y0108806D01*
X0078882Y0108483D01*
X0078882Y0107407D01*
X0078121Y0106646D01*
X0077045Y0106646D01*
X0076284Y0107407D01*
X0076284Y0108483D01*
X0077045Y0109244D01*
X0078121Y0109244D01*
X0078882Y0108483D01*
X0078102Y0108160D01*
X0078102Y0107730D01*
X0077798Y0107426D01*
X0077368Y0107426D01*
X0077064Y0107730D01*
X0077064Y0108160D01*
X0077368Y0108464D01*
X0077798Y0108464D01*
X0078102Y0108160D01*
D18*
G36*
X0222562Y0100271D02*
X0226480Y0096353D01*
X0222562Y0092435D01*
X0218644Y0096353D01*
X0222562Y0100271D01*
G37*
D19*
X0215491Y0103424D03*
X0208420Y0110495D03*
X0201349Y0117566D03*
X0194278Y0124638D03*
X0187207Y0131709D03*
X0180136Y0138780D03*
X0173065Y0145851D03*
X0165994Y0152922D03*
X0158923Y0159993D03*
X0151852Y0167064D03*
X0144781Y0174135D03*
X0137710Y0181206D03*
X0130639Y0188277D03*
X0109425Y0167064D03*
X0116496Y0159993D03*
X0123567Y0152922D03*
X0130639Y0145851D03*
X0137710Y0138780D03*
X0144781Y0131709D03*
X0151852Y0124638D03*
X0158923Y0117566D03*
X0165994Y0110495D03*
X0173065Y0103424D03*
X0180136Y0096353D03*
X0187207Y0089282D03*
X0194278Y0082211D03*
X0201349Y0075140D03*
D20*
X0244949Y0151946D03*
D21*
X0261949Y0151946D03*
X0261949Y0180946D03*
X0244949Y0180946D03*
D22*
X0121846Y0126339D03*
X0121846Y0106339D03*
D23*
X0020135Y0020758D02*
X0020328Y0231461D01*
X0040081Y0231447D01*
X0037661Y0230050D01*
X0035060Y0227449D01*
X0033220Y0224262D01*
X0032268Y0220708D01*
X0032268Y0217029D01*
X0033220Y0213475D01*
X0035060Y0210288D01*
X0037661Y0207686D01*
X0040848Y0205847D01*
X0044402Y0204894D01*
X0048081Y0204894D01*
X0051635Y0205847D01*
X0054822Y0207686D01*
X0057424Y0210288D01*
X0059263Y0213475D01*
X0060216Y0217029D01*
X0060216Y0220708D01*
X0059263Y0224262D01*
X0057424Y0227449D01*
X0054822Y0230050D01*
X0052417Y0231439D01*
X0074839Y0231423D01*
X0073279Y0229863D01*
X0071894Y0226519D01*
X0071894Y0223620D01*
X0056246Y0207973D01*
X0054677Y0207323D01*
X0052328Y0204974D01*
X0051057Y0201905D01*
X0051057Y0198583D01*
X0051801Y0196786D01*
X0051801Y0193768D01*
X0050673Y0194235D01*
X0043046Y0194235D01*
X0040804Y0193307D01*
X0039088Y0191591D01*
X0038609Y0190434D01*
X0038077Y0190607D01*
X0037269Y0190735D01*
X0036860Y0190735D01*
X0036860Y0185536D01*
X0036859Y0185536D01*
X0036859Y0190735D01*
X0036450Y0190735D01*
X0035642Y0190607D01*
X0034863Y0190354D01*
X0034134Y0189983D01*
X0033472Y0189502D01*
X0032893Y0188923D01*
X0032412Y0188261D01*
X0032041Y0187532D01*
X0031788Y0186753D01*
X0031660Y0185945D01*
X0031660Y0185535D01*
X0031660Y0185126D01*
X0031788Y0184318D01*
X0032041Y0183539D01*
X0032412Y0182810D01*
X0032893Y0182148D01*
X0033472Y0181569D01*
X0034134Y0181088D01*
X0034863Y0180716D01*
X0035642Y0180463D01*
X0036450Y0180335D01*
X0036859Y0180335D01*
X0036859Y0185535D01*
X0031660Y0185535D01*
X0036859Y0185535D01*
X0036859Y0185535D01*
X0036860Y0185535D01*
X0036860Y0180335D01*
X0037269Y0180335D01*
X0038077Y0180463D01*
X0038609Y0180636D01*
X0039088Y0179480D01*
X0039160Y0179408D01*
X0039161Y0174437D01*
X0038162Y0173438D01*
X0038162Y0166231D01*
X0043258Y0161134D01*
X0050465Y0161134D01*
X0051801Y0162470D01*
X0051801Y0154683D01*
X0051775Y0154617D01*
X0051801Y0153154D01*
X0051801Y0151691D01*
X0051828Y0151625D01*
X0051830Y0151554D01*
X0052414Y0150212D01*
X0052974Y0148861D01*
X0053024Y0148810D01*
X0053052Y0148745D01*
X0054105Y0147729D01*
X0055140Y0146694D01*
X0055205Y0146667D01*
X0070032Y0132358D01*
X0069257Y0132365D01*
X0069066Y0132556D01*
X0066824Y0133485D01*
X0059083Y0133485D01*
X0056841Y0132556D01*
X0056712Y0132427D01*
X0055562Y0132427D01*
X0055562Y0133438D01*
X0050465Y0138534D01*
X0049051Y0138534D01*
X0036537Y0151048D01*
X0036537Y0155749D01*
X0037187Y0157318D01*
X0037187Y0160640D01*
X0035916Y0163709D01*
X0033567Y0166058D01*
X0032828Y0166364D01*
X0032881Y0166437D01*
X0033227Y0167117D01*
X0033463Y0167843D01*
X0033583Y0168597D01*
X0033583Y0169029D01*
X0028733Y0168978D01*
X0028733Y0168979D01*
X0028733Y0168979D01*
X0028682Y0173829D01*
X0028351Y0173829D01*
X0027597Y0173709D01*
X0026871Y0173473D01*
X0026191Y0173127D01*
X0025573Y0172678D01*
X0025033Y0172138D01*
X0024585Y0171520D01*
X0024238Y0170840D01*
X0024002Y0170114D01*
X0023883Y0169360D01*
X0023883Y0168928D01*
X0028733Y0168979D01*
X0033583Y0169029D01*
X0033583Y0169360D01*
X0033463Y0170114D01*
X0033227Y0170840D01*
X0032881Y0171520D01*
X0032432Y0172138D01*
X0031892Y0172678D01*
X0031275Y0173127D01*
X0030595Y0173473D01*
X0029868Y0173709D01*
X0029114Y0173829D01*
X0028682Y0173829D01*
X0028733Y0168979D01*
X0021206Y0161452D01*
X0021206Y0140596D01*
X0038603Y0123199D01*
X0038603Y0096674D01*
X0046775Y0088140D01*
X0047025Y0089806D02*
X0020198Y0089806D01*
X0020201Y0093005D02*
X0043827Y0093005D01*
X0040628Y0096203D02*
X0020204Y0096203D01*
X0020207Y0099402D02*
X0039162Y0099402D01*
X0039162Y0099327D02*
X0040334Y0096497D01*
X0089059Y0047772D01*
X0091225Y0045606D01*
X0094055Y0044434D01*
X0097781Y0044434D01*
X0097781Y0026538D01*
X0097681Y0025326D01*
X0097781Y0025017D01*
X0097781Y0024692D01*
X0098246Y0023568D01*
X0098619Y0022409D01*
X0098829Y0022162D01*
X0098953Y0021862D01*
X0099813Y0021002D01*
X0100020Y0020758D01*
X0049777Y0020758D01*
X0052162Y0023143D01*
X0054002Y0026330D01*
X0054954Y0029884D01*
X0054954Y0033563D01*
X0054002Y0037117D01*
X0052162Y0040304D01*
X0049560Y0042905D01*
X0046374Y0044745D01*
X0042820Y0045697D01*
X0039140Y0045697D01*
X0035586Y0044745D01*
X0032400Y0042905D01*
X0029798Y0040304D01*
X0027958Y0037117D01*
X0027006Y0033563D01*
X0027006Y0029884D01*
X0027958Y0026330D01*
X0029798Y0023143D01*
X0032183Y0020758D01*
X0020135Y0020758D01*
X0020137Y0022637D02*
X0030304Y0022637D01*
X0028244Y0025836D02*
X0020140Y0025836D01*
X0020142Y0029034D02*
X0027234Y0029034D01*
X0027006Y0032233D02*
X0020145Y0032233D01*
X0020148Y0035431D02*
X0027507Y0035431D01*
X0028832Y0038630D02*
X0020151Y0038630D01*
X0020154Y0041828D02*
X0031323Y0041828D01*
X0036638Y0045027D02*
X0020157Y0045027D01*
X0020160Y0048225D02*
X0088606Y0048225D01*
X0085407Y0051424D02*
X0020163Y0051424D01*
X0020166Y0054622D02*
X0082209Y0054622D01*
X0079010Y0057821D02*
X0020169Y0057821D01*
X0020172Y0061019D02*
X0075812Y0061019D01*
X0072613Y0064218D02*
X0020175Y0064218D01*
X0020178Y0067416D02*
X0069415Y0067416D01*
X0066216Y0070615D02*
X0020181Y0070615D01*
X0020183Y0073813D02*
X0063018Y0073813D01*
X0059819Y0077012D02*
X0020186Y0077012D01*
X0020189Y0080210D02*
X0056621Y0080210D01*
X0053422Y0083409D02*
X0020192Y0083409D01*
X0020195Y0086607D02*
X0050224Y0086607D01*
X0062407Y0096203D02*
X0074997Y0096203D01*
X0078196Y0093005D02*
X0065605Y0093005D01*
X0068804Y0089806D02*
X0082180Y0089806D01*
X0080838Y0090362D02*
X0083669Y0089189D01*
X0099299Y0089189D01*
X0099424Y0089064D01*
X0100580Y0088585D01*
X0100408Y0088053D01*
X0100280Y0087245D01*
X0100280Y0086836D01*
X0105479Y0086836D01*
X0105479Y0086835D01*
X0100280Y0086835D01*
X0100280Y0086426D01*
X0100408Y0085618D01*
X0100660Y0084839D01*
X0101032Y0084110D01*
X0101513Y0083448D01*
X0102092Y0082869D01*
X0102754Y0082388D01*
X0103483Y0082016D01*
X0104262Y0081763D01*
X0105070Y0081635D01*
X0105479Y0081635D01*
X0105479Y0086835D01*
X0105480Y0086835D01*
X0105480Y0086836D01*
X0110680Y0086836D01*
X0110680Y0087245D01*
X0110551Y0088053D01*
X0110379Y0088585D01*
X0111535Y0089064D01*
X0113251Y0090780D01*
X0114180Y0093022D01*
X0114180Y0098611D01*
X0114285Y0098611D01*
X0114295Y0098615D01*
X0116481Y0098622D01*
X0118015Y0097089D01*
X0125678Y0097089D01*
X0131096Y0102507D01*
X0131096Y0108871D01*
X0143637Y0108877D01*
X0145137Y0108866D01*
X0145168Y0108878D01*
X0145201Y0108878D01*
X0146586Y0109453D01*
X0147976Y0110016D01*
X0148000Y0110039D01*
X0148030Y0110052D01*
X0149091Y0111113D01*
X0153849Y0115798D01*
X0153945Y0115504D01*
X0154329Y0114751D01*
X0154826Y0114067D01*
X0155124Y0113768D01*
X0158923Y0117566D01*
X0155124Y0113768D01*
X0155423Y0113469D01*
X0156107Y0112972D01*
X0156861Y0112588D01*
X0157211Y0112475D01*
X0157122Y0112260D01*
X0157122Y0108731D01*
X0158294Y0105902D01*
X0158294Y0059858D01*
X0150451Y0059858D01*
X0149755Y0060554D01*
X0142548Y0060554D01*
X0137451Y0055458D01*
X0137451Y0048251D01*
X0142548Y0043154D01*
X0142604Y0043154D01*
X0140839Y0042423D01*
X0138279Y0039863D01*
X0138268Y0039835D01*
X0138143Y0039898D01*
X0137305Y0040171D01*
X0136435Y0040309D01*
X0135994Y0040309D01*
X0135994Y0031709D01*
X0135994Y0031709D01*
X0135994Y0040309D01*
X0135553Y0040309D01*
X0134683Y0040171D01*
X0133844Y0039898D01*
X0133059Y0039498D01*
X0132346Y0038980D01*
X0131722Y0038357D01*
X0131204Y0037644D01*
X0130994Y0037231D01*
X0130783Y0037644D01*
X0130265Y0038357D01*
X0129642Y0038980D01*
X0128929Y0039498D01*
X0128143Y0039898D01*
X0127305Y0040171D01*
X0126435Y0040309D01*
X0125994Y0040309D01*
X0125994Y0031709D01*
X0125994Y0031709D01*
X0125994Y0040309D01*
X0125553Y0040309D01*
X0124683Y0040171D01*
X0123844Y0039898D01*
X0123720Y0039835D01*
X0123708Y0039863D01*
X0121149Y0042423D01*
X0117804Y0043809D01*
X0114184Y0043809D01*
X0113181Y0043393D01*
X0113181Y0046580D01*
X0114851Y0048251D01*
X0114851Y0055458D01*
X0109755Y0060554D01*
X0102548Y0060554D01*
X0101827Y0059834D01*
X0098776Y0059834D01*
X0054562Y0104048D01*
X0054562Y0117027D01*
X0056712Y0117027D01*
X0056841Y0116898D01*
X0057696Y0116544D01*
X0057696Y0116439D01*
X0057825Y0115622D01*
X0058081Y0114835D01*
X0058457Y0114098D01*
X0058943Y0113428D01*
X0059528Y0112843D01*
X0060198Y0112357D01*
X0060935Y0111981D01*
X0061722Y0111725D01*
X0062540Y0111596D01*
X0062953Y0111596D01*
X0062953Y0115970D01*
X0062953Y0115970D01*
X0062953Y0111596D01*
X0063367Y0111596D01*
X0064185Y0111725D01*
X0064972Y0111981D01*
X0065709Y0112357D01*
X0066378Y0112843D01*
X0066964Y0113428D01*
X0067450Y0114098D01*
X0067826Y0114835D01*
X0068081Y0115622D01*
X0068211Y0116439D01*
X0068211Y0116544D01*
X0069066Y0116898D01*
X0069134Y0116966D01*
X0069996Y0116957D01*
X0072148Y0114813D01*
X0068883Y0111549D01*
X0068883Y0104341D01*
X0069883Y0103341D01*
X0069883Y0102975D01*
X0071055Y0100145D01*
X0078672Y0092528D01*
X0080838Y0090362D01*
X0077681Y0086835D02*
X0062953Y0101563D01*
X0062953Y0116853D01*
X0062953Y0115394D02*
X0062953Y0115394D01*
X0062953Y0112196D02*
X0062953Y0112196D01*
X0060514Y0112196D02*
X0054562Y0112196D01*
X0054562Y0115394D02*
X0057899Y0115394D01*
X0065393Y0112196D02*
X0069530Y0112196D01*
X0068007Y0115394D02*
X0071565Y0115394D01*
X0068883Y0108997D02*
X0054562Y0108997D01*
X0054562Y0105799D02*
X0068883Y0105799D01*
X0070038Y0102600D02*
X0056010Y0102600D01*
X0059208Y0099402D02*
X0071798Y0099402D01*
X0077583Y0104506D02*
X0085200Y0096889D01*
X0105426Y0096889D01*
X0105480Y0096835D01*
X0112277Y0089806D02*
X0158294Y0089806D01*
X0158294Y0093005D02*
X0114172Y0093005D01*
X0114180Y0096203D02*
X0158294Y0096203D01*
X0158294Y0099402D02*
X0127991Y0099402D01*
X0131096Y0102600D02*
X0158294Y0102600D01*
X0158294Y0105799D02*
X0131096Y0105799D01*
X0121846Y0106339D02*
X0112750Y0106311D01*
X0091602Y0106302D01*
X0073208Y0124626D01*
X0062953Y0124727D01*
X0051969Y0124727D01*
X0046862Y0129834D01*
X0028837Y0147859D01*
X0028837Y0158979D01*
X0021137Y0155749D02*
X0021137Y0146327D01*
X0022310Y0143497D01*
X0038162Y0127645D01*
X0038162Y0126231D01*
X0039162Y0125231D01*
X0039162Y0099327D01*
X0039162Y0102600D02*
X0020210Y0102600D01*
X0020213Y0105799D02*
X0039162Y0105799D01*
X0039162Y0108997D02*
X0020216Y0108997D01*
X0020219Y0112196D02*
X0039162Y0112196D01*
X0039162Y0115394D02*
X0020222Y0115394D01*
X0020224Y0118593D02*
X0039162Y0118593D01*
X0039162Y0121791D02*
X0020227Y0121791D01*
X0020230Y0124990D02*
X0039162Y0124990D01*
X0037619Y0128188D02*
X0020233Y0128188D01*
X0020236Y0131387D02*
X0034420Y0131387D01*
X0031221Y0134585D02*
X0020239Y0134585D01*
X0020242Y0137784D02*
X0028023Y0137784D01*
X0024824Y0140982D02*
X0020245Y0140982D01*
X0020248Y0144181D02*
X0022027Y0144181D01*
X0021137Y0147379D02*
X0020251Y0147379D01*
X0020254Y0150578D02*
X0021137Y0150578D01*
X0021137Y0153776D02*
X0020257Y0153776D01*
X0021137Y0155749D02*
X0020487Y0157318D01*
X0020487Y0160640D01*
X0021759Y0163709D01*
X0024108Y0166058D01*
X0024686Y0166297D01*
X0024585Y0166437D01*
X0024238Y0167117D01*
X0024002Y0167843D01*
X0023883Y0168597D01*
X0023883Y0168928D01*
X0028733Y0168978D01*
X0028733Y0168979D01*
X0036860Y0177105D01*
X0036860Y0185535D01*
X0036860Y0192174D01*
X0051097Y0206412D01*
X0051419Y0206412D01*
X0058845Y0213837D01*
X0058845Y0214159D01*
X0076394Y0231709D01*
X0090961Y0231709D01*
X0263675Y0231709D01*
X0268285Y0227098D01*
X0268285Y0158283D01*
X0261949Y0151946D01*
X0263585Y0147940D01*
X0263636Y0071774D01*
X0259079Y0066709D01*
X0245994Y0066709D01*
X0254594Y0066709D01*
X0254594Y0067149D01*
X0254456Y0068020D01*
X0254184Y0068858D01*
X0254120Y0068982D01*
X0254149Y0068994D01*
X0256708Y0071554D01*
X0258094Y0074898D01*
X0258094Y0078519D01*
X0256773Y0081709D01*
X0258094Y0084898D01*
X0258094Y0088519D01*
X0257639Y0089617D01*
X0259000Y0090181D01*
X0262223Y0093404D01*
X0264389Y0095570D01*
X0265561Y0098400D01*
X0265561Y0136832D01*
X0266330Y0135501D01*
X0268932Y0132899D01*
X0272118Y0131059D01*
X0275672Y0130107D01*
X0279352Y0130107D01*
X0281040Y0130559D01*
X0280998Y0068285D01*
X0279419Y0068708D01*
X0275740Y0068708D01*
X0272186Y0067756D01*
X0268999Y0065916D01*
X0266398Y0063314D01*
X0264558Y0060128D01*
X0263606Y0056574D01*
X0263606Y0052894D01*
X0264558Y0049340D01*
X0266398Y0046154D01*
X0268999Y0043552D01*
X0272186Y0041712D01*
X0274527Y0041085D01*
X0272762Y0039317D01*
X0271856Y0038437D01*
X0271836Y0038390D01*
X0271800Y0038354D01*
X0271317Y0037186D01*
X0270817Y0036025D01*
X0270816Y0035975D01*
X0270797Y0035928D01*
X0270797Y0034664D01*
X0270599Y0020728D01*
X0252729Y0020750D01*
X0253593Y0021614D01*
X0254766Y0024444D01*
X0254766Y0045558D01*
X0253593Y0048388D01*
X0251427Y0050554D01*
X0240067Y0061915D01*
X0240844Y0061519D01*
X0241683Y0061246D01*
X0242553Y0061109D01*
X0245994Y0061109D01*
X0249435Y0061109D01*
X0250305Y0061246D01*
X0251143Y0061519D01*
X0251929Y0061919D01*
X0252642Y0062437D01*
X0253265Y0063060D01*
X0253783Y0063774D01*
X0254184Y0064559D01*
X0254456Y0065397D01*
X0254594Y0066268D01*
X0254594Y0066709D01*
X0245994Y0066709D01*
X0245994Y0066709D01*
X0245994Y0066709D01*
X0237394Y0066709D01*
X0237394Y0067149D01*
X0237532Y0068020D01*
X0237804Y0068858D01*
X0237867Y0068982D01*
X0237839Y0068994D01*
X0235279Y0071554D01*
X0234785Y0072746D01*
X0232499Y0070440D01*
X0232036Y0069946D01*
X0238200Y0063782D01*
X0237804Y0064559D01*
X0237532Y0065397D01*
X0237394Y0066268D01*
X0237394Y0066709D01*
X0245994Y0066709D01*
X0245994Y0066708D02*
X0245994Y0061109D01*
X0245994Y0066708D01*
X0245994Y0066708D01*
X0245994Y0064218D02*
X0245994Y0064218D01*
X0240962Y0061019D02*
X0265073Y0061019D01*
X0263940Y0057821D02*
X0244161Y0057821D01*
X0247359Y0054622D02*
X0263606Y0054622D01*
X0264000Y0051424D02*
X0250558Y0051424D01*
X0253661Y0048225D02*
X0265202Y0048225D01*
X0267524Y0045027D02*
X0254766Y0045027D01*
X0254766Y0041828D02*
X0271985Y0041828D01*
X0272054Y0038630D02*
X0254766Y0038630D01*
X0254766Y0035431D02*
X0270797Y0035431D01*
X0270763Y0032233D02*
X0254766Y0032233D01*
X0254766Y0029034D02*
X0270717Y0029034D01*
X0270672Y0025836D02*
X0254766Y0025836D01*
X0254017Y0022637D02*
X0270627Y0022637D01*
X0247066Y0025976D02*
X0247066Y0044027D01*
X0212813Y0078280D01*
X0215608Y0075426D01*
X0226957Y0075786D01*
X0237394Y0086314D01*
X0237788Y0086709D01*
X0245994Y0086709D01*
X0247449Y0086314D02*
X0248009Y0085755D01*
X0247449Y0086314D02*
X0237394Y0086314D01*
X0245994Y0096709D02*
X0254638Y0096709D01*
X0257861Y0099932D01*
X0257861Y0142542D01*
X0254768Y0145635D01*
X0254768Y0193610D01*
X0253060Y0195318D01*
X0236479Y0195318D01*
X0235994Y0195803D01*
X0235994Y0221709D01*
X0245094Y0220945D02*
X0270831Y0220945D01*
X0270842Y0217746D02*
X0245094Y0217746D01*
X0245094Y0216898D02*
X0245094Y0226519D01*
X0243708Y0229863D01*
X0242263Y0231309D01*
X0267184Y0231292D01*
X0270805Y0228180D01*
X0270958Y0184936D01*
X0270300Y0186526D01*
X0267529Y0189297D01*
X0263908Y0190796D01*
X0262468Y0190796D01*
X0262468Y0195142D01*
X0261296Y0197972D01*
X0259587Y0199680D01*
X0257421Y0201846D01*
X0254591Y0203018D01*
X0243694Y0203018D01*
X0243694Y0213539D01*
X0243708Y0213554D01*
X0245094Y0216898D01*
X0244120Y0214548D02*
X0270853Y0214548D01*
X0270865Y0211349D02*
X0243694Y0211349D01*
X0243694Y0208151D02*
X0270876Y0208151D01*
X0270887Y0204952D02*
X0243694Y0204952D01*
X0235994Y0195803D02*
X0235994Y0176132D01*
X0235930Y0139370D01*
X0224774Y0126207D01*
X0224858Y0113033D01*
X0215484Y0103432D01*
X0215491Y0103424D01*
X0208420Y0110495D02*
X0215994Y0118182D01*
X0217121Y0119252D01*
X0217111Y0128887D01*
X0228092Y0140897D01*
X0228135Y0212303D01*
X0228135Y0214295D01*
X0225936Y0216493D01*
X0225994Y0221709D01*
X0215994Y0221709D02*
X0215994Y0217373D01*
X0220972Y0212278D01*
X0221042Y0145184D01*
X0209616Y0133314D01*
X0209822Y0126354D01*
X0201349Y0117566D01*
X0208420Y0110495D02*
X0202242Y0104317D01*
X0202242Y0100859D01*
X0218520Y0084581D01*
X0222867Y0084581D01*
X0235521Y0097235D01*
X0235521Y0098808D01*
X0243422Y0106709D01*
X0245994Y0106709D01*
X0245994Y0116709D02*
X0245969Y0129276D01*
X0245969Y0139276D02*
X0245969Y0150927D01*
X0244949Y0151946D01*
X0244949Y0180946D01*
X0262468Y0171096D02*
X0263908Y0171096D01*
X0267529Y0172596D01*
X0270300Y0175367D01*
X0271799Y0178987D01*
X0271799Y0180407D01*
X0271967Y0180002D01*
X0271976Y0179993D01*
X0271981Y0179981D01*
X0272902Y0179067D01*
X0281067Y0170898D01*
X0281058Y0157598D01*
X0279352Y0158055D01*
X0275672Y0158055D01*
X0272118Y0157103D01*
X0268932Y0155263D01*
X0267888Y0154219D01*
X0267834Y0154384D01*
X0267380Y0155274D01*
X0266793Y0156083D01*
X0266086Y0156790D01*
X0265277Y0157377D01*
X0264387Y0157831D01*
X0263436Y0158140D01*
X0262468Y0158293D01*
X0262468Y0171096D01*
X0262468Y0169769D02*
X0281066Y0169769D01*
X0278999Y0172967D02*
X0267900Y0172967D01*
X0270631Y0176166D02*
X0275801Y0176166D01*
X0272602Y0179364D02*
X0271799Y0179364D01*
X0270955Y0185761D02*
X0270616Y0185761D01*
X0270944Y0188960D02*
X0267866Y0188960D01*
X0270933Y0192158D02*
X0262468Y0192158D01*
X0262379Y0195357D02*
X0270921Y0195357D01*
X0270910Y0198555D02*
X0260712Y0198555D01*
X0257513Y0201754D02*
X0270899Y0201754D01*
X0270819Y0224143D02*
X0245094Y0224143D01*
X0244753Y0227342D02*
X0270808Y0227342D01*
X0268059Y0230541D02*
X0243031Y0230541D01*
X0214532Y0206311D02*
X0214550Y0149754D01*
X0200960Y0136027D01*
X0200960Y0131348D01*
X0194278Y0124666D01*
X0194278Y0124638D01*
X0187207Y0131709D02*
X0208161Y0153135D01*
X0208161Y0200447D01*
X0195994Y0211829D01*
X0195994Y0221709D01*
X0185994Y0221709D02*
X0186059Y0216533D01*
X0153991Y0184164D01*
X0153969Y0169571D01*
X0151852Y0167064D01*
X0143778Y0163372D02*
X0124699Y0163372D01*
X0125357Y0161783D02*
X0124017Y0165018D01*
X0121522Y0167514D01*
X0118286Y0168854D01*
X0116946Y0172089D01*
X0114451Y0174585D01*
X0112135Y0175544D01*
X0122158Y0185567D01*
X0123117Y0183252D01*
X0125613Y0180756D01*
X0128848Y0179416D01*
X0130189Y0176181D01*
X0132684Y0173685D01*
X0135920Y0172345D01*
X0137260Y0169110D01*
X0139755Y0166614D01*
X0142991Y0165274D01*
X0144331Y0162039D01*
X0146826Y0159543D01*
X0150062Y0158203D01*
X0151402Y0154967D01*
X0153897Y0152472D01*
X0157133Y0151132D01*
X0158473Y0147896D01*
X0160968Y0145401D01*
X0164229Y0144050D01*
X0167759Y0144050D01*
X0167973Y0144139D01*
X0168087Y0143789D01*
X0168471Y0143035D01*
X0168968Y0142351D01*
X0169267Y0142052D01*
X0169566Y0141753D01*
X0170250Y0141256D01*
X0171003Y0140873D01*
X0171353Y0140759D01*
X0171264Y0140544D01*
X0171264Y0137015D01*
X0172436Y0134186D01*
X0172436Y0116600D01*
X0171019Y0118016D01*
X0167759Y0119367D01*
X0164229Y0119367D01*
X0164015Y0119278D01*
X0163901Y0119628D01*
X0163517Y0120382D01*
X0163020Y0121066D01*
X0162721Y0121365D01*
X0162422Y0121664D01*
X0161738Y0122161D01*
X0160985Y0122545D01*
X0160635Y0122658D01*
X0160723Y0122873D01*
X0160723Y0126402D01*
X0159373Y0129663D01*
X0156877Y0132159D01*
X0153642Y0133499D01*
X0152302Y0136734D01*
X0149806Y0139230D01*
X0146571Y0140570D01*
X0145231Y0143805D01*
X0142735Y0146301D01*
X0139500Y0147641D01*
X0138160Y0150876D01*
X0135664Y0153372D01*
X0132429Y0154712D01*
X0131088Y0157947D01*
X0128593Y0160443D01*
X0125357Y0161783D01*
X0128862Y0160173D02*
X0146196Y0160173D01*
X0150570Y0156975D02*
X0131491Y0156975D01*
X0134687Y0153776D02*
X0152593Y0153776D01*
X0157362Y0150578D02*
X0138283Y0150578D01*
X0140131Y0147379D02*
X0158990Y0147379D01*
X0163914Y0144181D02*
X0144855Y0144181D01*
X0146400Y0140982D02*
X0170788Y0140982D01*
X0169267Y0142052D02*
X0173065Y0145851D01*
X0176863Y0149649D01*
X0176564Y0149948D01*
X0175880Y0150445D01*
X0175243Y0150770D01*
X0180494Y0156046D01*
X0181717Y0155540D01*
X0185178Y0155540D01*
X0188375Y0156864D01*
X0190823Y0159311D01*
X0192147Y0162509D01*
X0192147Y0165970D01*
X0191156Y0168362D01*
X0199981Y0177621D01*
X0200461Y0178122D01*
X0200461Y0156274D01*
X0187838Y0143367D01*
X0187657Y0143805D01*
X0185161Y0146301D01*
X0181901Y0147651D01*
X0178371Y0147651D01*
X0178157Y0147562D01*
X0178043Y0147913D01*
X0177659Y0148666D01*
X0177162Y0149350D01*
X0176863Y0149649D01*
X0173065Y0145851D01*
X0173065Y0145851D01*
X0173491Y0145851D01*
X0180407Y0152766D01*
X0186572Y0158472D01*
X0202207Y0174151D01*
X0202214Y0192487D01*
X0199805Y0195162D01*
X0186290Y0195316D01*
X0184378Y0193560D01*
X0188378Y0196889D01*
X0188492Y0206323D01*
X0191921Y0202893D01*
X0188492Y0206323D01*
X0188492Y0206323D01*
X0189862Y0204952D02*
X0189862Y0204952D01*
X0191921Y0202893D02*
X0192191Y0203163D01*
X0192640Y0203781D01*
X0192861Y0204215D01*
X0200461Y0197106D01*
X0200461Y0193045D01*
X0199051Y0194455D01*
X0195982Y0195726D01*
X0192660Y0195726D01*
X0189591Y0194455D01*
X0187242Y0192106D01*
X0186969Y0191447D01*
X0186863Y0191524D01*
X0186183Y0191871D01*
X0185756Y0192010D01*
X0186150Y0192173D01*
X0188499Y0194522D01*
X0189771Y0197591D01*
X0189771Y0200913D01*
X0189498Y0201572D01*
X0189627Y0201592D01*
X0190353Y0201828D01*
X0191034Y0202175D01*
X0191651Y0202623D01*
X0191921Y0202893D01*
X0190125Y0201754D02*
X0195493Y0201754D01*
X0198912Y0198555D02*
X0189771Y0198555D01*
X0188845Y0195357D02*
X0191768Y0195357D01*
X0187294Y0192158D02*
X0186115Y0192158D01*
X0184378Y0193560D02*
X0184321Y0187376D01*
X0194321Y0187376D02*
X0194415Y0182942D01*
X0182446Y0170383D01*
X0183090Y0164855D01*
X0183447Y0164240D01*
X0183315Y0164731D01*
X0182575Y0169051D01*
X0166521Y0152922D01*
X0165994Y0152922D01*
X0158923Y0159993D02*
X0170541Y0171489D01*
X0170012Y0177675D01*
X0169337Y0187644D01*
X0181421Y0199252D01*
X0196873Y0195357D02*
X0200461Y0195357D01*
X0214532Y0206311D02*
X0206007Y0214570D01*
X0206007Y0221836D01*
X0205994Y0221709D01*
X0176360Y0219854D02*
X0175645Y0221360D01*
X0175994Y0221709D01*
X0176360Y0219854D02*
X0175036Y0216582D01*
X0173997Y0215365D01*
X0145040Y0186408D01*
X0144781Y0174135D01*
X0136987Y0169769D02*
X0117908Y0169769D01*
X0116068Y0172967D02*
X0134417Y0172967D01*
X0130203Y0176166D02*
X0112757Y0176166D01*
X0115955Y0179364D02*
X0128870Y0179364D01*
X0123806Y0182563D02*
X0119154Y0182563D01*
X0130639Y0188277D02*
X0130639Y0195532D01*
X0150059Y0214953D01*
X0150059Y0220774D01*
X0150994Y0221709D01*
X0140994Y0221709D02*
X0140994Y0215170D01*
X0132923Y0207099D01*
X0132801Y0207099D01*
X0104372Y0178671D01*
X0104372Y0172117D01*
X0109425Y0167064D01*
X0116496Y0159993D02*
X0115007Y0158503D01*
X0103504Y0158503D01*
X0097028Y0164979D01*
X0097028Y0182526D01*
X0130994Y0216492D01*
X0130994Y0221709D01*
X0120994Y0221709D02*
X0120937Y0221652D01*
X0120937Y0215857D01*
X0089010Y0183929D01*
X0089010Y0160842D01*
X0099766Y0150085D01*
X0119712Y0150085D01*
X0122549Y0152922D01*
X0123567Y0152922D01*
X0130151Y0145851D02*
X0127536Y0143236D01*
X0096703Y0143236D01*
X0080804Y0159135D01*
X0080804Y0186350D01*
X0080670Y0186216D01*
X0080804Y0186350D02*
X0107212Y0212758D01*
X0107335Y0212758D01*
X0110994Y0216416D01*
X0110994Y0221709D01*
X0100994Y0221709D02*
X0101011Y0216925D01*
X0073304Y0189408D01*
X0073334Y0170517D01*
X0073514Y0154442D01*
X0091582Y0136372D01*
X0105867Y0136229D01*
X0105765Y0136393D01*
X0134692Y0136361D01*
X0137111Y0138780D01*
X0137710Y0138780D01*
X0144781Y0131709D02*
X0138286Y0126324D01*
X0124040Y0126356D01*
X0121846Y0126339D01*
X0130151Y0145851D02*
X0130639Y0145851D01*
X0151252Y0137784D02*
X0171264Y0137784D01*
X0172271Y0134585D02*
X0153192Y0134585D01*
X0157649Y0131387D02*
X0172436Y0131387D01*
X0172436Y0128188D02*
X0159984Y0128188D01*
X0160723Y0124990D02*
X0172436Y0124990D01*
X0172436Y0121791D02*
X0162247Y0121791D01*
X0162721Y0121365D02*
X0158923Y0117567D01*
X0158923Y0117566D01*
X0158923Y0117566D01*
X0162721Y0121365D01*
X0159949Y0118593D02*
X0159949Y0118593D01*
X0159358Y0117566D02*
X0128627Y0086835D01*
X0127672Y0086835D01*
X0126034Y0085198D01*
X0126034Y0031749D01*
X0125994Y0031709D01*
X0135994Y0031709D01*
X0125994Y0031709D01*
X0125994Y0031709D01*
X0131594Y0031709D01*
X0135994Y0031709D01*
X0135994Y0031709D01*
X0135994Y0032233D02*
X0135994Y0032233D01*
X0135994Y0035431D02*
X0135994Y0035431D01*
X0135994Y0038630D02*
X0135994Y0038630D01*
X0131995Y0038630D02*
X0129992Y0038630D01*
X0125994Y0038630D02*
X0125994Y0038630D01*
X0125994Y0035431D02*
X0125994Y0035431D01*
X0125994Y0032233D02*
X0125994Y0032233D01*
X0121743Y0041828D02*
X0140244Y0041828D01*
X0140675Y0045027D02*
X0113181Y0045027D01*
X0114826Y0048225D02*
X0137476Y0048225D01*
X0137451Y0051424D02*
X0114851Y0051424D01*
X0114851Y0054622D02*
X0137451Y0054622D01*
X0139814Y0057821D02*
X0112488Y0057821D01*
X0106151Y0051854D02*
X0105871Y0052134D01*
X0095586Y0052134D01*
X0046862Y0100859D01*
X0046862Y0129834D01*
X0054415Y0134585D02*
X0067724Y0134585D01*
X0064410Y0137784D02*
X0051216Y0137784D01*
X0046603Y0140982D02*
X0061096Y0140982D01*
X0057782Y0144181D02*
X0043405Y0144181D01*
X0040206Y0147379D02*
X0054455Y0147379D01*
X0052255Y0150578D02*
X0037008Y0150578D01*
X0036537Y0153776D02*
X0051790Y0153776D01*
X0051801Y0156975D02*
X0037045Y0156975D01*
X0037187Y0160173D02*
X0051801Y0160173D01*
X0059501Y0153222D02*
X0059501Y0200150D01*
X0059407Y0200244D01*
X0080872Y0221709D01*
X0080994Y0221709D01*
X0089802Y0220517D02*
X0089802Y0216418D01*
X0066557Y0193173D01*
X0066478Y0193173D01*
X0051801Y0195357D02*
X0020295Y0195357D01*
X0020298Y0198555D02*
X0051069Y0198555D01*
X0051057Y0201754D02*
X0020301Y0201754D01*
X0020304Y0204952D02*
X0044185Y0204952D01*
X0048298Y0204952D02*
X0052319Y0204952D01*
X0055287Y0208151D02*
X0056424Y0208151D01*
X0058036Y0211349D02*
X0059623Y0211349D01*
X0059551Y0214548D02*
X0062821Y0214548D01*
X0060216Y0217746D02*
X0066020Y0217746D01*
X0069218Y0220945D02*
X0060152Y0220945D01*
X0059295Y0224143D02*
X0071894Y0224143D01*
X0072235Y0227342D02*
X0057485Y0227342D01*
X0053973Y0230541D02*
X0073956Y0230541D01*
X0087157Y0231415D02*
X0094826Y0231410D01*
X0093279Y0229863D01*
X0093268Y0229835D01*
X0093143Y0229898D01*
X0092305Y0230171D01*
X0091435Y0230309D01*
X0090994Y0230309D01*
X0090994Y0221709D01*
X0090994Y0221709D01*
X0090994Y0230309D01*
X0090553Y0230309D01*
X0089683Y0230171D01*
X0088844Y0229898D01*
X0088720Y0229835D01*
X0088708Y0229863D01*
X0087157Y0231415D01*
X0088031Y0230541D02*
X0093956Y0230541D01*
X0090961Y0231709D02*
X0090994Y0226709D01*
X0090994Y0221709D01*
X0089802Y0220517D01*
X0090994Y0224143D02*
X0090994Y0224143D01*
X0090994Y0227342D02*
X0090994Y0227342D01*
X0137775Y0190625D02*
X0165416Y0218526D01*
X0165546Y0221260D01*
X0165994Y0221709D01*
X0137775Y0190625D02*
X0137710Y0181206D01*
X0139861Y0166570D02*
X0122465Y0166570D01*
X0167870Y0140655D02*
X0173065Y0145851D01*
X0173065Y0145851D01*
X0169267Y0142052D01*
X0167870Y0140655D02*
X0167870Y0126078D01*
X0159358Y0117566D01*
X0158923Y0117566D01*
X0158923Y0116915D01*
X0156751Y0115394D02*
X0156750Y0115394D01*
X0154001Y0115394D02*
X0153439Y0115394D01*
X0150190Y0112196D02*
X0157122Y0112196D01*
X0157122Y0108997D02*
X0145488Y0108997D01*
X0143665Y0116577D02*
X0097494Y0116555D01*
X0059501Y0153222D01*
X0046862Y0169834D02*
X0046860Y0185535D01*
X0039160Y0179364D02*
X0020280Y0179364D01*
X0020283Y0182563D02*
X0032592Y0182563D01*
X0031660Y0185761D02*
X0020286Y0185761D01*
X0020289Y0188960D02*
X0032930Y0188960D01*
X0036859Y0188960D02*
X0036860Y0188960D01*
X0036859Y0185761D02*
X0036860Y0185761D01*
X0036859Y0182563D02*
X0036860Y0182563D01*
X0039161Y0176166D02*
X0020277Y0176166D01*
X0020274Y0172967D02*
X0025972Y0172967D01*
X0028691Y0172967D02*
X0028691Y0172967D01*
X0031494Y0172967D02*
X0038162Y0172967D01*
X0038162Y0169769D02*
X0033518Y0169769D01*
X0032949Y0166570D02*
X0038162Y0166570D01*
X0036056Y0163372D02*
X0041021Y0163372D01*
X0028725Y0169769D02*
X0028724Y0169769D01*
X0023947Y0169769D02*
X0020271Y0169769D01*
X0020268Y0166570D02*
X0024517Y0166570D01*
X0021619Y0163372D02*
X0020265Y0163372D01*
X0020263Y0160173D02*
X0020487Y0160173D01*
X0020630Y0156975D02*
X0020260Y0156975D01*
X0020292Y0192158D02*
X0039656Y0192158D01*
X0037197Y0208151D02*
X0020307Y0208151D01*
X0020309Y0211349D02*
X0034447Y0211349D01*
X0032932Y0214548D02*
X0020312Y0214548D01*
X0020315Y0217746D02*
X0032268Y0217746D01*
X0032331Y0220945D02*
X0020318Y0220945D01*
X0020321Y0224143D02*
X0033188Y0224143D01*
X0034998Y0227342D02*
X0020324Y0227342D01*
X0020327Y0230541D02*
X0038511Y0230541D01*
X0143665Y0116577D02*
X0151852Y0124638D01*
X0169628Y0118593D02*
X0172436Y0118593D01*
X0165994Y0110495D02*
X0165994Y0057851D01*
X0186306Y0037539D01*
X0186306Y0032021D01*
X0185994Y0031709D01*
X0195994Y0031709D02*
X0196180Y0031894D01*
X0196180Y0038466D01*
X0195152Y0039493D01*
X0195143Y0039493D01*
X0173065Y0061571D01*
X0173065Y0103424D01*
X0180136Y0096353D02*
X0180136Y0065139D01*
X0206186Y0039089D01*
X0206186Y0031901D01*
X0205994Y0031709D01*
X0215613Y0032089D02*
X0215613Y0039628D01*
X0187207Y0068034D01*
X0187207Y0089282D01*
X0194278Y0082211D02*
X0194278Y0071737D01*
X0226252Y0039763D01*
X0226252Y0031967D01*
X0225994Y0031709D01*
X0235949Y0031754D02*
X0235994Y0031709D01*
X0235949Y0031754D02*
X0235949Y0042053D01*
X0202862Y0075140D01*
X0201349Y0075140D01*
X0215608Y0075426D02*
X0180136Y0111440D01*
X0180136Y0138780D01*
X0187281Y0144181D02*
X0188634Y0144181D01*
X0191762Y0147379D02*
X0182558Y0147379D01*
X0175620Y0150578D02*
X0194890Y0150578D01*
X0198018Y0153776D02*
X0178235Y0153776D01*
X0174593Y0147379D02*
X0174593Y0147379D01*
X0171395Y0144181D02*
X0171395Y0144181D01*
X0188486Y0156975D02*
X0200461Y0156975D01*
X0200461Y0160173D02*
X0191180Y0160173D01*
X0192147Y0163372D02*
X0200461Y0163372D01*
X0200461Y0166570D02*
X0191899Y0166570D01*
X0192497Y0169769D02*
X0200461Y0169769D01*
X0200461Y0172967D02*
X0195546Y0172967D01*
X0198594Y0176166D02*
X0200461Y0176166D01*
X0245969Y0139276D02*
X0233615Y0123334D01*
X0233369Y0122991D01*
X0233556Y0107588D01*
X0232826Y0106350D01*
X0232811Y0106149D01*
X0232850Y0106203D01*
X0232826Y0106350D02*
X0222562Y0096353D01*
X0232672Y0070615D02*
X0236218Y0070615D01*
X0237436Y0067416D02*
X0234565Y0067416D01*
X0237764Y0064218D02*
X0237978Y0064218D01*
X0254010Y0064218D02*
X0267302Y0064218D01*
X0271599Y0067416D02*
X0254552Y0067416D01*
X0255770Y0070615D02*
X0281000Y0070615D01*
X0281002Y0073813D02*
X0257644Y0073813D01*
X0258094Y0077012D02*
X0281004Y0077012D01*
X0281006Y0080210D02*
X0257393Y0080210D01*
X0257477Y0083409D02*
X0281008Y0083409D01*
X0281010Y0086607D02*
X0258094Y0086607D01*
X0258095Y0089806D02*
X0281012Y0089806D01*
X0281015Y0093005D02*
X0261824Y0093005D01*
X0264651Y0096203D02*
X0281017Y0096203D01*
X0281019Y0099402D02*
X0265561Y0099402D01*
X0265561Y0102600D02*
X0281021Y0102600D01*
X0281023Y0105799D02*
X0265561Y0105799D01*
X0265561Y0108997D02*
X0281025Y0108997D01*
X0281027Y0112196D02*
X0265561Y0112196D01*
X0265561Y0115394D02*
X0281030Y0115394D01*
X0281032Y0118593D02*
X0265561Y0118593D01*
X0265561Y0121791D02*
X0281034Y0121791D01*
X0281036Y0124990D02*
X0265561Y0124990D01*
X0265561Y0128188D02*
X0281038Y0128188D01*
X0271551Y0131387D02*
X0265561Y0131387D01*
X0265561Y0134585D02*
X0267246Y0134585D01*
X0265831Y0156975D02*
X0271897Y0156975D01*
X0281060Y0160173D02*
X0262468Y0160173D01*
X0262468Y0163372D02*
X0281062Y0163372D01*
X0281064Y0166570D02*
X0262468Y0166570D01*
X0158294Y0086607D02*
X0110680Y0086607D01*
X0110680Y0086426D02*
X0110680Y0086835D01*
X0105480Y0086835D01*
X0105480Y0081635D01*
X0105889Y0081635D01*
X0106697Y0081763D01*
X0107476Y0082016D01*
X0108205Y0082388D01*
X0108867Y0082869D01*
X0109446Y0083448D01*
X0109927Y0084110D01*
X0110299Y0084839D01*
X0110551Y0085618D01*
X0110680Y0086426D01*
X0109407Y0083409D02*
X0158294Y0083409D01*
X0158294Y0080210D02*
X0078399Y0080210D01*
X0075201Y0083409D02*
X0101552Y0083409D01*
X0100280Y0086607D02*
X0072002Y0086607D01*
X0077681Y0086835D02*
X0105480Y0086835D01*
X0127672Y0086835D01*
X0105480Y0086607D02*
X0105479Y0086607D01*
X0105479Y0083409D02*
X0105480Y0083409D01*
X0091193Y0067416D02*
X0158294Y0067416D01*
X0158294Y0070615D02*
X0087995Y0070615D01*
X0084796Y0073813D02*
X0158294Y0073813D01*
X0158294Y0077012D02*
X0081598Y0077012D01*
X0094392Y0064218D02*
X0158294Y0064218D01*
X0158294Y0061019D02*
X0097590Y0061019D01*
X0106151Y0051854D02*
X0105481Y0050724D01*
X0105481Y0026224D01*
X0109431Y0021568D01*
X0146099Y0021627D01*
X0242798Y0021709D01*
X0247066Y0025976D01*
X0215994Y0031709D02*
X0215613Y0032089D01*
X0176052Y0037141D02*
X0170679Y0031709D01*
X0165994Y0031709D01*
X0165994Y0047369D01*
X0161205Y0052158D01*
X0147625Y0052158D01*
X0146151Y0051854D01*
X0145994Y0031709D02*
X0146099Y0021627D01*
X0098545Y0022637D02*
X0051656Y0022637D01*
X0053717Y0025836D02*
X0097723Y0025836D01*
X0097781Y0029034D02*
X0054727Y0029034D01*
X0054954Y0032233D02*
X0097781Y0032233D01*
X0097781Y0035431D02*
X0054454Y0035431D01*
X0053129Y0038630D02*
X0097781Y0038630D01*
X0097781Y0041828D02*
X0050637Y0041828D01*
X0045322Y0045027D02*
X0092624Y0045027D01*
X0077583Y0104506D02*
X0077583Y0107945D01*
D24*
X0062953Y0101563D03*
X0046775Y0088140D03*
X0176052Y0037141D03*
X0232850Y0106203D03*
M02*
