%
M48
M72
T01C0.02362
T02C0.02500
T03C0.02953
T04C0.03150
T05C0.03200
T06C0.03543
T07C0.04000
T08C0.04500
T09C0.15748
%
T01
X176052Y37141
X232850Y106203
T02
X245969Y129276
X245969Y139276
X194321Y187376
X184321Y187376
X181421Y199252
X188492Y206323
X66478Y193173
X59407Y200244
X28733Y168979
X28837Y158979
T03
X62953Y101563
X46775Y88140
T04
X62953Y116853
X62953Y124727
T05
X46862Y129834
X77583Y107945
X105480Y96835
X105480Y86835
X121846Y106339
X121846Y126339
X105867Y136229
X46862Y169834
X46860Y185535
X36860Y185535
X170012Y177675
X183447Y164240
X146151Y51854
X106151Y51854
T06
X173065Y103424
X180136Y96353
X187207Y89282
X194278Y82211
X201349Y75140
X222562Y96353
X215491Y103424
X208420Y110495
X201349Y117566
X194278Y124638
X187207Y131709
X180136Y138780
X173065Y145851
X165994Y152922
X158923Y159993
X151852Y167064
X144781Y174135
X137710Y181206
X130639Y188277
X109425Y167064
X116496Y159993
X123567Y152922
X130639Y145851
X137710Y138780
X144781Y131709
X151852Y124638
X158923Y117566
X165994Y110495
T07
X245994Y106709
X245994Y116709
X245994Y96709
X245994Y86709
X245994Y76709
X245994Y66709
X235994Y31709
X225994Y31709
X215994Y31709
X205994Y31709
X195994Y31709
X185994Y31709
X165994Y31709
X155994Y31709
X145994Y31709
X135994Y31709
X125994Y31709
X115994Y31709
X110994Y221709
X120994Y221709
X130994Y221709
X140994Y221709
X150994Y221709
X165994Y221709
X175994Y221709
X185994Y221709
X195994Y221709
X205994Y221709
X215994Y221709
X225994Y221709
X235994Y221709
X100994Y221709
X90994Y221709
X80994Y221709
T08
X244949Y180946
X261949Y180946
X261949Y151946
X244949Y151946
T09
X40980Y31723
X46242Y218868
X277512Y144081
X277580Y54734
M30
