G04 EAGLE Gerber X2 export*
%TF.Part,Single*%
%TF.FileFunction,Copper,L1,Top,Mixed*%
%TF.FilePolarity,Positive*%
%TF.GenerationSoftware,Autodesk,EAGLE,9.0.0*%
%TF.CreationDate,2018-06-20T12:24:51Z*%
G75*
%MOMM*%
%FSLAX34Y34*%
%LPD*%
%AMOC8*
5,1,8,0,0,1.08239X$1,22.5*%
G01*
%ADD10C,1.143000*%
%ADD11R,1.350000X1.350000*%
%ADD12C,1.350000*%
%ADD13R,1.320800X1.320800*%
%ADD14C,1.320800*%
%ADD15C,1.524000*%
%ADD16P,1.429621X8X22.500000*%
%ADD17P,1.429621X8X67.500000*%
%ADD18P,1.429621X8X112.500000*%
%ADD19R,1.408000X1.408000*%
%ADD20C,1.408000*%
%ADD21R,1.905000X1.905000*%
%ADD22C,1.905000*%
%ADD23C,0.756400*%
%ADD24C,0.812800*%
%ADD25R,1.006400X1.006400*%


D10*
X444251Y488445D03*
X426290Y470485D03*
X433657Y440321D03*
X459057Y440321D03*
X38463Y393591D03*
X38729Y368192D03*
X134336Y455045D03*
X116376Y473005D03*
D11*
X125384Y281192D03*
D12*
X125384Y261192D03*
D13*
X233400Y210347D03*
D14*
X233400Y184947D03*
D13*
X84505Y435645D03*
D14*
X59105Y435645D03*
D15*
X582686Y260825D02*
X597926Y260825D01*
X597926Y235425D02*
X582686Y235425D01*
X582686Y210025D02*
X597926Y210025D01*
X597926Y184625D02*
X582686Y184625D01*
X582686Y159225D02*
X597926Y159225D01*
X597926Y133825D02*
X582686Y133825D01*
X260106Y52545D02*
X260106Y37305D01*
X285506Y37305D02*
X285506Y52545D01*
X310906Y52545D02*
X310906Y37305D01*
X336306Y37305D02*
X336306Y52545D01*
X361706Y52545D02*
X361706Y37305D01*
X387106Y37305D02*
X387106Y52545D01*
X171206Y519905D02*
X171206Y535145D01*
X196606Y535145D02*
X196606Y519905D01*
X222006Y519905D02*
X222006Y535145D01*
X247406Y535145D02*
X247406Y519905D01*
X272806Y519905D02*
X272806Y535145D01*
X298206Y535145D02*
X298206Y519905D01*
X323606Y519905D02*
X323606Y535145D01*
X349006Y535145D02*
X349006Y519905D01*
X564906Y519905D02*
X564906Y535145D01*
X539506Y535145D02*
X539506Y519905D01*
X514106Y519905D02*
X514106Y535145D01*
X488706Y535145D02*
X488706Y519905D01*
X463306Y519905D02*
X463306Y535145D01*
X437906Y535145D02*
X437906Y519905D01*
X412506Y519905D02*
X412506Y535145D01*
X387106Y535145D02*
X387106Y519905D01*
X437906Y52545D02*
X437906Y37305D01*
X463306Y37305D02*
X463306Y52545D01*
X488706Y52545D02*
X488706Y37305D01*
X514106Y37305D02*
X514106Y52545D01*
X539506Y52545D02*
X539506Y37305D01*
X564906Y37305D02*
X564906Y52545D01*
D16*
X235106Y96095D03*
X336706Y96095D03*
D17*
X162543Y238565D03*
X234385Y310407D03*
D18*
X84511Y294164D03*
X84511Y395764D03*
D19*
G36*
X530790Y219078D02*
X540746Y209122D01*
X530790Y199166D01*
X520834Y209122D01*
X530790Y219078D01*
G37*
D20*
X512830Y227083D03*
X494869Y245043D03*
X476909Y263004D03*
X458948Y280964D03*
X440988Y298925D03*
X423027Y316885D03*
X405067Y334846D03*
X369146Y370767D03*
X351185Y388727D03*
X333225Y406688D03*
X315264Y424648D03*
X297304Y442609D03*
X243422Y388727D03*
X261383Y370767D03*
X387106Y352806D03*
X279343Y352806D03*
X297304Y334846D03*
X315264Y316885D03*
X333225Y298925D03*
X351185Y280964D03*
X369146Y263004D03*
X387106Y245043D03*
X405067Y227083D03*
X423027Y209122D03*
X440988Y191162D03*
X458948Y173201D03*
X476909Y155241D03*
D14*
X431438Y381553D03*
X397313Y415678D03*
D21*
X587653Y350329D03*
D22*
X630833Y350329D03*
X630833Y423989D03*
X587653Y423989D03*
D10*
X590242Y318146D03*
X590242Y292746D03*
X273260Y261951D03*
X273260Y287351D03*
D23*
X125384Y222356D03*
D24*
X86651Y187645D01*
X85884Y187805D01*
X84291Y188259D01*
D23*
X84291Y188259D03*
D25*
X408201Y55456D03*
D24*
X408607Y55456D01*
X566425Y213274D01*
X566425Y225049D01*
X556921Y234141D01*
D25*
X556921Y234141D03*
M02*
