G04 EAGLE Gerber X2 export*
%TF.Part,Single*%
%TF.FileFunction,Copper,L2,Bot,Mixed*%
%TF.FilePolarity,Positive*%
%TF.GenerationSoftware,Autodesk,EAGLE,9.0.0*%
%TF.CreationDate,2018-06-20T12:24:51Z*%
G75*
%MOMM*%
%FSLAX34Y34*%
%LPD*%
%AMOC8*
5,1,8,0,0,1.08239X$1,22.5*%
G01*
%ADD10C,1.143000*%
%ADD11R,1.350000X1.350000*%
%ADD12C,1.350000*%
%ADD13R,1.320800X1.320800*%
%ADD14C,1.320800*%
%ADD15C,1.524000*%
%ADD16P,1.429621X8X22.500000*%
%ADD17P,1.429621X8X67.500000*%
%ADD18P,1.429621X8X112.500000*%
%ADD19R,1.408000X1.408000*%
%ADD20C,1.408000*%
%ADD21R,1.905000X1.905000*%
%ADD22C,1.905000*%
%ADD23C,0.812800*%
%ADD24C,0.756400*%
%ADD25R,1.006400X1.006400*%


D10*
X444251Y488445D03*
X426290Y470485D03*
X433657Y440321D03*
X459057Y440321D03*
X38463Y393591D03*
X38729Y368192D03*
X134336Y455045D03*
X116376Y473005D03*
D11*
X125384Y281192D03*
D12*
X125384Y261192D03*
D13*
X233400Y210347D03*
D14*
X233400Y184947D03*
D13*
X84505Y435645D03*
D14*
X59105Y435645D03*
D15*
X582686Y260825D02*
X597926Y260825D01*
X597926Y235425D02*
X582686Y235425D01*
X582686Y210025D02*
X597926Y210025D01*
X597926Y184625D02*
X582686Y184625D01*
X582686Y159225D02*
X597926Y159225D01*
X597926Y133825D02*
X582686Y133825D01*
X260106Y52545D02*
X260106Y37305D01*
X285506Y37305D02*
X285506Y52545D01*
X310906Y52545D02*
X310906Y37305D01*
X336306Y37305D02*
X336306Y52545D01*
X361706Y52545D02*
X361706Y37305D01*
X387106Y37305D02*
X387106Y52545D01*
X171206Y519905D02*
X171206Y535145D01*
X196606Y535145D02*
X196606Y519905D01*
X222006Y519905D02*
X222006Y535145D01*
X247406Y535145D02*
X247406Y519905D01*
X272806Y519905D02*
X272806Y535145D01*
X298206Y535145D02*
X298206Y519905D01*
X323606Y519905D02*
X323606Y535145D01*
X349006Y535145D02*
X349006Y519905D01*
X564906Y519905D02*
X564906Y535145D01*
X539506Y535145D02*
X539506Y519905D01*
X514106Y519905D02*
X514106Y535145D01*
X488706Y535145D02*
X488706Y519905D01*
X463306Y519905D02*
X463306Y535145D01*
X437906Y535145D02*
X437906Y519905D01*
X412506Y519905D02*
X412506Y535145D01*
X387106Y535145D02*
X387106Y519905D01*
X437906Y52545D02*
X437906Y37305D01*
X463306Y37305D02*
X463306Y52545D01*
X488706Y52545D02*
X488706Y37305D01*
X514106Y37305D02*
X514106Y52545D01*
X539506Y52545D02*
X539506Y37305D01*
X564906Y37305D02*
X564906Y52545D01*
D16*
X235106Y96095D03*
X336706Y96095D03*
D17*
X162543Y238565D03*
X234385Y310407D03*
D18*
X84511Y294164D03*
X84511Y395764D03*
D19*
G36*
X530790Y219078D02*
X540746Y209122D01*
X530790Y199166D01*
X520834Y209122D01*
X530790Y219078D01*
G37*
D20*
X512830Y227083D03*
X494869Y245043D03*
X476909Y263004D03*
X458948Y280964D03*
X440988Y298925D03*
X423027Y316885D03*
X405067Y334846D03*
X369146Y370767D03*
X351185Y388727D03*
X333225Y406688D03*
X315264Y424648D03*
X297304Y442609D03*
X243422Y388727D03*
X261383Y370767D03*
X387106Y352806D03*
X279343Y352806D03*
X297304Y334846D03*
X315264Y316885D03*
X333225Y298925D03*
X351185Y280964D03*
X369146Y263004D03*
X387106Y245043D03*
X405067Y227083D03*
X423027Y209122D03*
X440988Y191162D03*
X458948Y173201D03*
X476909Y155241D03*
D14*
X431438Y381553D03*
X397313Y415678D03*
D21*
X587653Y350329D03*
D22*
X630833Y350329D03*
X630833Y423989D03*
X587653Y423989D03*
D10*
X590242Y318146D03*
X590242Y292746D03*
X273260Y261951D03*
X273260Y287351D03*
D23*
X196606Y527525D02*
X196606Y540225D01*
X196523Y552925D01*
X285506Y44925D02*
X310906Y44925D01*
X590306Y133825D02*
X623542Y133827D01*
X635116Y146691D01*
X634989Y340153D01*
X630833Y350329D01*
X134536Y455045D02*
X134336Y455045D01*
X134536Y455045D02*
X193579Y514087D01*
X193579Y524497D01*
X196606Y527525D01*
X369146Y263004D02*
X370251Y263004D01*
X391871Y284623D01*
X391871Y321650D01*
X405067Y334846D01*
X285608Y45026D02*
X285506Y44925D01*
X369146Y261349D02*
X369146Y263004D01*
X433657Y440321D02*
X433803Y456027D01*
X443961Y464483D01*
X444251Y488445D01*
X406150Y334846D02*
X405067Y334846D01*
X406150Y334846D02*
X423715Y352410D01*
X439376Y366904D01*
X479087Y406729D01*
X479105Y453302D01*
X472987Y460096D01*
X438658Y460487D01*
X433803Y456027D01*
X630833Y350329D02*
X646927Y366423D01*
X646927Y541215D01*
X635217Y552925D01*
X196523Y552925D01*
X125384Y261192D02*
X125384Y222356D01*
X159523Y552925D02*
X196523Y552925D01*
X59105Y452507D02*
X59105Y435645D01*
X114947Y508349D02*
X159523Y552925D01*
X114947Y508349D02*
X114947Y507531D01*
X96087Y488670D01*
X95269Y488670D01*
X59105Y452507D01*
X59105Y414233D02*
X38463Y393591D01*
X59105Y414233D02*
X59105Y435645D01*
X38463Y393591D02*
X19346Y374473D01*
X19346Y321498D01*
X63533Y277311D01*
X63533Y209937D02*
X84291Y188259D01*
X63533Y209937D02*
X63533Y277311D01*
D24*
X125384Y222356D03*
X84291Y188259D03*
D23*
X162792Y184947D02*
X233400Y184947D01*
X162792Y184947D02*
X125384Y222356D01*
X233400Y184947D02*
X289768Y184947D01*
X292195Y184947D01*
X370251Y263004D01*
X289768Y184947D02*
X285608Y180787D01*
X285608Y45026D01*
X387106Y352806D02*
X388445Y352806D01*
X429223Y393775D01*
X431102Y382803D01*
X431438Y381553D01*
X430532Y383118D01*
X428895Y397158D01*
X459296Y429057D01*
X459057Y440321D01*
X398655Y399966D02*
X369146Y370767D01*
X398655Y399966D02*
X397313Y415678D01*
X395598Y441001D01*
X426290Y470485D01*
X556859Y234515D02*
X530790Y209122D01*
X556859Y234515D02*
X559579Y237164D01*
X558981Y263174D01*
X558864Y277652D01*
X590242Y318146D01*
X590242Y347739D02*
X587653Y350329D01*
X590242Y347739D02*
X590242Y318146D01*
X587653Y350329D02*
X587653Y423989D01*
X336706Y96095D02*
X326018Y96866D01*
X374942Y96866D01*
X387106Y84702D01*
X387106Y44925D01*
X397670Y44925D01*
X408201Y55456D01*
D25*
X408201Y55456D03*
X556921Y234141D03*
D23*
X556821Y234004D01*
X556859Y234515D01*
X351185Y280964D02*
X344969Y274748D01*
X116376Y473005D02*
X170896Y527525D01*
X171206Y527525D01*
X116615Y353569D02*
X200568Y274534D01*
X116615Y353569D02*
X116615Y472766D01*
X116376Y473005D01*
X200568Y274534D02*
X344969Y274748D01*
X276981Y292011D02*
X273260Y287351D01*
X276981Y292011D02*
X326230Y291930D01*
X333225Y298925D01*
X315264Y316885D02*
X313744Y316885D01*
X307600Y310741D01*
X234125Y310823D01*
X234385Y310407D01*
X222049Y515375D02*
X222006Y527525D01*
X222049Y515375D02*
X151673Y445482D01*
X151751Y397498D01*
X152207Y356667D01*
X198100Y310771D01*
X234385Y310407D01*
X247406Y514083D02*
X247406Y527525D01*
X247406Y514083D02*
X238113Y504790D01*
X237800Y504790D01*
X170725Y437715D01*
X170383Y437373D01*
X296065Y334846D02*
X297304Y334846D01*
X296065Y334846D02*
X289424Y328205D01*
X211107Y328205D01*
X170725Y368587D01*
X170725Y437715D01*
X276756Y352806D02*
X279343Y352806D01*
X276756Y352806D02*
X269551Y345601D01*
X218889Y345601D01*
X191567Y372923D01*
X191567Y431566D01*
X272663Y512661D01*
X272663Y527381D01*
X272806Y527525D01*
X298206Y527525D02*
X298206Y514275D01*
X211933Y428002D01*
X211933Y383432D01*
X228382Y366983D01*
X257599Y366983D01*
X261383Y370767D01*
X323606Y510916D02*
X323606Y527525D01*
X323606Y510916D02*
X303107Y490417D01*
X302796Y490417D01*
X230588Y418209D01*
X230588Y401562D01*
X243422Y388727D01*
X297304Y442609D02*
X297304Y461037D01*
X346633Y510366D01*
X346633Y525151D01*
X349006Y527525D01*
X476909Y155241D02*
X480751Y155241D01*
X564792Y71200D01*
X564792Y45039D01*
X564906Y44925D01*
X458948Y146597D02*
X458948Y173201D01*
X458948Y146597D02*
X540163Y65382D01*
X540163Y45581D01*
X539506Y44925D01*
X440988Y137191D02*
X440988Y191162D01*
X440988Y137191D02*
X513139Y65040D01*
X513139Y45892D01*
X514106Y44925D01*
X423027Y129838D02*
X423027Y209122D01*
X423027Y129838D02*
X489194Y63671D01*
X489194Y45413D01*
X488706Y44925D01*
X405067Y120775D02*
X405067Y227083D01*
X405067Y120775D02*
X461144Y64698D01*
X461169Y64698D01*
X463778Y62088D01*
X463778Y45397D01*
X463306Y44925D01*
X387106Y111327D02*
X387106Y245043D01*
X387106Y111327D02*
X438700Y59733D01*
X438700Y45719D01*
X437906Y44925D01*
X315264Y424648D02*
X315429Y448573D01*
X385638Y519442D01*
X385968Y526386D01*
X387106Y527525D01*
X333884Y437862D02*
X333225Y406688D01*
X333884Y437862D02*
X407435Y511413D01*
X410074Y514505D01*
X413436Y522815D01*
X411621Y526640D01*
X412506Y527525D01*
X437906Y527525D02*
X438071Y514379D01*
X356619Y432162D01*
X356564Y395096D01*
X351185Y388727D01*
X440988Y298925D02*
X494211Y353347D01*
X494211Y473521D01*
X463306Y502430D01*
X463306Y527525D01*
X488706Y527525D02*
X488739Y527849D01*
X488739Y509393D01*
X510541Y492423D01*
X510541Y342905D01*
X475920Y309894D01*
X475920Y298008D01*
X458948Y281037D01*
X458948Y280964D01*
X476909Y263004D02*
X498429Y285325D01*
X497907Y303002D01*
X526928Y333152D01*
X526928Y507670D01*
X514106Y516513D01*
X514106Y527525D01*
X336306Y44925D02*
X336574Y19317D01*
X243436Y19168D01*
X233403Y30993D01*
X233403Y93223D01*
X235106Y96095D01*
X423027Y247441D02*
X423027Y316885D01*
X423027Y247441D02*
X513127Y155966D01*
X541952Y156883D01*
X568462Y183623D01*
X594003Y183623D01*
X595424Y182202D01*
X590306Y184625D02*
X569464Y184625D01*
X568462Y183623D01*
X513127Y155966D02*
X506026Y163216D01*
X593029Y76213D01*
X593029Y30364D01*
X582189Y19525D01*
X336574Y19317D01*
X161439Y281192D02*
X125384Y281192D01*
X161439Y281192D02*
X202855Y245500D01*
X256572Y245521D01*
X273260Y261951D01*
X125384Y281192D02*
X97483Y281192D01*
X84511Y294164D01*
X84511Y220566D01*
X208271Y96806D01*
X234395Y96806D01*
X235106Y96095D01*
X38729Y339946D02*
X38729Y368192D01*
X38729Y339946D02*
X84511Y294164D01*
X512810Y227103D02*
X512830Y227083D01*
X512810Y227103D02*
X536621Y251488D01*
X536409Y284703D01*
X564745Y318386D01*
X564906Y411760D01*
X564906Y458933D01*
X564906Y527525D01*
X591030Y236149D02*
X590306Y235425D01*
X591030Y236149D02*
X613341Y236446D01*
X617672Y241743D01*
X617474Y334659D01*
X610395Y348470D01*
X610391Y452216D01*
X604087Y459004D01*
X564906Y458933D01*
X494869Y245043D02*
X479175Y229349D01*
X479175Y220567D01*
X520522Y179220D01*
X531564Y179220D01*
X562368Y210025D01*
X590306Y210025D01*
X545300Y510228D02*
X539506Y527525D01*
X545300Y510228D02*
X544837Y322263D01*
X516944Y291757D01*
X516970Y267285D01*
X514107Y264567D01*
X494869Y245043D01*
X590306Y260825D02*
X590242Y292746D01*
X84511Y395764D02*
X84505Y435645D01*
X162543Y238565D02*
X162543Y229831D01*
X181890Y210484D01*
X233263Y210484D01*
X233400Y210347D01*
M02*
