M48
;GenerationSoftware,Autodesk,EAGLE,9.0.0*%
;CreationDate,2018-06-20T12:24:51Z*%
FMAT,2
ICI,OFF
METRIC,TZ,000.000
T9C0.350
T8C0.600
T7C0.635
T6C0.800
T5C0.813
T4C0.900
T3C1.016
T2C1.143
%
G90
M71
T2
X58765Y42399
X63083Y42399
X63083Y35033
X58765Y35033
T3
X53951Y52752
X33631Y4492
X36171Y4492
X38711Y4492
X17121Y52752
X19661Y52752
X22201Y52752
X24741Y52752
X27281Y52752
X29821Y52752
X32361Y52752
X34901Y52752
X56491Y52752
X26011Y4492
X51411Y52752
X48871Y52752
X46331Y52752
X43791Y52752
X41251Y52752
X38711Y52752
X43791Y4492
X46331Y4492
X28551Y4492
X56491Y4492
X53951Y4492
X51411Y4492
X48871Y4492
X59031Y26082
X59031Y23542
X59031Y21002
X59031Y18462
X59031Y15922
X59031Y13382
X31091Y4492
T4
X47691Y26300
X31526Y42465
X33322Y40669
X35119Y38873
X36915Y37077
X40507Y33485
X42303Y31689
X44099Y29892
X45895Y28096
X44099Y19116
X29730Y44261
X24342Y38873
X26138Y37077
X38711Y35281
X27934Y35281
X29730Y33485
X31526Y31689
X33322Y29892
X35119Y28096
X36915Y26300
X38711Y24504
X40507Y22708
X42303Y20912
X51283Y22708
X53079Y20912
X47691Y15524
X45895Y17320
X49487Y24504
T5
X23340Y18495
X39731Y41568
X43144Y38155
X23340Y21035
X8451Y43565
X5911Y43565
X23511Y9609
X33671Y9609
X16254Y23857
X23439Y31041
X8451Y29416
X8451Y39576
T6
X12538Y26119
X12538Y28119
T7
X59024Y31815
X59024Y29275
X27326Y26195
X27326Y28735
X11638Y47301
X13434Y45504
X3873Y36819
X3846Y39359
X45906Y44032
X43366Y44032
X42629Y47048
X44425Y48845
T8
X55692Y23414
X40820Y5546
T9
X8429Y18826
X12538Y22236
M30