%
M48
M72
T01C0.02362
T02C0.02500
T03C0.02953
T04C0.03150
T05C0.03200
T06C0.03346
T07C0.03543
T08C0.04000
T09C0.04500
T10C0.14173
%
T01
X171519Y34726
X229094Y104954
T02
X242213Y128027
X242213Y138027
X190565Y186127
X180565Y186127
X177665Y198002
X184736Y205073
X62722Y191924
X55651Y198995
X24977Y167729
X25082Y157730
T03
X59197Y100314
T04
X59197Y115604
X59197Y123478
T05
X43106Y128585
X73827Y106696
X101724Y95586
X101724Y85586
X118090Y105089
X118090Y125089
X102111Y134980
X43106Y168585
X43104Y184286
X33104Y184286
X166256Y176425
X179691Y162990
X142395Y50605
X102395Y50605
T06
X43019Y86890
T07
X119811Y151672
X112740Y158743
X105669Y165815
X126883Y187028
X133954Y179957
X141025Y172886
X148096Y165815
X155167Y158743
X162238Y151672
X169309Y144601
X176380Y137530
X183451Y130459
X190522Y123388
X197593Y116317
X204664Y109246
X211735Y102175
X218806Y95104
X197593Y73891
X190522Y80962
X183451Y88033
X183451Y88033
X176380Y95104
X169309Y102175
X162238Y109246
X155167Y116317
X148096Y123388
X141025Y130459
X133954Y137530
X126883Y144601
T08
X127238Y220459
X137238Y220459
X147238Y220459
X162238Y220459
X172238Y220459
X182238Y220459
X192238Y220459
X202238Y220459
X212238Y220459
X222238Y220459
X232238Y220459
X117238Y220459
X107238Y220459
X97238Y220459
X87238Y220459
X77238Y220459
X242238Y115459
X242238Y105459
X242238Y95459
X242238Y85459
X242238Y75459
X242238Y65459
X232238Y30459
X222238Y30459
X212238Y30459
X202238Y30459
X192238Y30459
X182238Y30459
X162238Y30459
X152238Y30459
X142238Y30459
X132238Y30459
X122238Y30459
X112238Y30459
T09
X241193Y150697
X258193Y150697
X258193Y179697
X241193Y179697
T10
X37214Y30398
X42398Y217869
X273684Y142908
X273955Y53435
M30
