G75*
%MOIN*%
%OFA0B0*%
%FSLAX25Y25*%
%IPPOS*%
%LPD*%
%AMOC8*
5,1,8,0,0,1.08239X$1,22.5*
%
%ADD10C,0.04500*%
%ADD11R,0.05315X0.05315*%
%ADD12C,0.05315*%
%ADD13R,0.05200X0.05200*%
%ADD14C,0.05200*%
%ADD15C,0.06000*%
%ADD16OC8,0.05200*%
%ADD17C,0.01040*%
%ADD18R,0.07000X0.07000*%
%ADD19C,0.05543*%
%ADD20C,0.05543*%
%ADD21R,0.07500X0.07500*%
%ADD22C,0.07500*%
%ADD23OC8,0.06300*%
%ADD24C,0.07000*%
%ADD25C,0.03200*%
%ADD26C,0.00600*%
D10*
X0025082Y0157730D03*
X0024977Y0167729D03*
X0055651Y0198995D03*
X0062722Y0191924D03*
X0177665Y0198002D03*
X0184736Y0205073D03*
X0180565Y0186127D03*
X0190565Y0186127D03*
X0242213Y0138027D03*
X0242213Y0128027D03*
D11*
X0059197Y0123478D03*
D12*
X0059197Y0115604D03*
D13*
X0101724Y0095586D03*
X0043104Y0184286D03*
D14*
X0033104Y0184286D03*
X0101724Y0085586D03*
X0179691Y0162990D03*
X0166256Y0176425D03*
D15*
X0162238Y0217459D02*
X0162238Y0223459D01*
X0172238Y0223459D02*
X0172238Y0217459D01*
X0182238Y0217459D02*
X0182238Y0223459D01*
X0192238Y0223459D02*
X0192238Y0217459D01*
X0202238Y0217459D02*
X0202238Y0223459D01*
X0212238Y0223459D02*
X0212238Y0217459D01*
X0222238Y0217459D02*
X0222238Y0223459D01*
X0232238Y0223459D02*
X0232238Y0217459D01*
X0147238Y0217459D02*
X0147238Y0223459D01*
X0137238Y0223459D02*
X0137238Y0217459D01*
X0127238Y0217459D02*
X0127238Y0223459D01*
X0117238Y0223459D02*
X0117238Y0217459D01*
X0107238Y0217459D02*
X0107238Y0223459D01*
X0097238Y0223459D02*
X0097238Y0217459D01*
X0087238Y0217459D02*
X0087238Y0223459D01*
X0077238Y0223459D02*
X0077238Y0217459D01*
X0239238Y0115459D02*
X0245238Y0115459D01*
X0245238Y0105459D02*
X0239238Y0105459D01*
X0239238Y0095459D02*
X0245238Y0095459D01*
X0245238Y0085459D02*
X0239238Y0085459D01*
X0239238Y0075459D02*
X0245238Y0075459D01*
X0245238Y0065459D02*
X0239238Y0065459D01*
X0232238Y0033459D02*
X0232238Y0027459D01*
X0222238Y0027459D02*
X0222238Y0033459D01*
X0212238Y0033459D02*
X0212238Y0027459D01*
X0202238Y0027459D02*
X0202238Y0033459D01*
X0192238Y0033459D02*
X0192238Y0027459D01*
X0182238Y0027459D02*
X0182238Y0033459D01*
X0162238Y0033459D02*
X0162238Y0027459D01*
X0152238Y0027459D02*
X0152238Y0033459D01*
X0142238Y0033459D02*
X0142238Y0027459D01*
X0132238Y0027459D02*
X0132238Y0033459D01*
X0122238Y0033459D02*
X0122238Y0027459D01*
X0112238Y0027459D02*
X0112238Y0033459D01*
D16*
X0102395Y0050605D03*
X0142395Y0050605D03*
X0043106Y0128585D03*
X0043106Y0168585D03*
D17*
X0103670Y0135321D02*
X0104190Y0135841D01*
X0104190Y0134119D01*
X0102972Y0132901D01*
X0101250Y0132901D01*
X0100032Y0134119D01*
X0100032Y0135841D01*
X0101250Y0137059D01*
X0102972Y0137059D01*
X0104190Y0135841D01*
X0103410Y0135518D01*
X0103410Y0134442D01*
X0102649Y0133681D01*
X0101573Y0133681D01*
X0100812Y0134442D01*
X0100812Y0135518D01*
X0101573Y0136279D01*
X0102649Y0136279D01*
X0103410Y0135518D01*
X0102630Y0135195D01*
X0102630Y0134765D01*
X0102326Y0134461D01*
X0101896Y0134461D01*
X0101592Y0134765D01*
X0101592Y0135195D01*
X0101896Y0135499D01*
X0102326Y0135499D01*
X0102630Y0135195D01*
X0075386Y0107037D02*
X0075906Y0107557D01*
X0075906Y0105835D01*
X0074688Y0104617D01*
X0072966Y0104617D01*
X0071748Y0105835D01*
X0071748Y0107557D01*
X0072966Y0108775D01*
X0074688Y0108775D01*
X0075906Y0107557D01*
X0075126Y0107234D01*
X0075126Y0106158D01*
X0074365Y0105397D01*
X0073289Y0105397D01*
X0072528Y0106158D01*
X0072528Y0107234D01*
X0073289Y0107995D01*
X0074365Y0107995D01*
X0075126Y0107234D01*
X0074346Y0106911D01*
X0074346Y0106481D01*
X0074042Y0106177D01*
X0073612Y0106177D01*
X0073308Y0106481D01*
X0073308Y0106911D01*
X0073612Y0107215D01*
X0074042Y0107215D01*
X0074346Y0106911D01*
D18*
G36*
X0218806Y0100053D02*
X0223755Y0095104D01*
X0218806Y0090155D01*
X0213857Y0095104D01*
X0218806Y0100053D01*
G37*
D19*
X0213695Y0104135D02*
X0209775Y0100215D01*
X0202704Y0107286D02*
X0206624Y0111206D01*
X0199553Y0118277D02*
X0195633Y0114357D01*
X0188562Y0121428D02*
X0192482Y0125348D01*
X0185411Y0132419D02*
X0181491Y0128499D01*
X0174420Y0135570D02*
X0178340Y0139490D01*
X0171269Y0146561D02*
X0167349Y0142641D01*
X0160278Y0149713D02*
X0164198Y0153632D01*
X0157127Y0160703D02*
X0153207Y0156784D01*
X0146136Y0163855D02*
X0150056Y0167774D01*
X0142985Y0174845D02*
X0139065Y0170926D01*
X0131994Y0177997D02*
X0135913Y0181917D01*
X0128842Y0188988D02*
X0124923Y0185068D01*
X0107629Y0167774D02*
X0103709Y0163855D01*
X0110781Y0156784D02*
X0114700Y0160703D01*
X0121771Y0153632D02*
X0117852Y0149713D01*
X0124923Y0142641D02*
X0128842Y0146561D01*
X0135913Y0139490D02*
X0131994Y0135570D01*
X0139065Y0128499D02*
X0142985Y0132419D01*
X0150056Y0125348D02*
X0146136Y0121428D01*
X0153207Y0114357D02*
X0157127Y0118277D01*
X0164198Y0111206D02*
X0160278Y0107286D01*
X0167349Y0100215D02*
X0171269Y0104135D01*
X0178340Y0097064D02*
X0174420Y0093144D01*
X0181491Y0086073D02*
X0185411Y0089993D01*
X0192482Y0082922D02*
X0188562Y0079002D01*
X0195633Y0071931D02*
X0199553Y0075850D01*
D20*
X0183451Y0088033D03*
D21*
X0241193Y0150697D03*
D22*
X0258193Y0150697D03*
X0258193Y0179697D03*
X0241193Y0179697D03*
D23*
X0118090Y0125089D03*
X0118090Y0105089D03*
D24*
X0059197Y0100314D03*
X0043019Y0086890D03*
X0171519Y0034726D03*
X0229094Y0104954D03*
D25*
X0232836Y0101374D01*
X0232836Y0096738D01*
X0173040Y0036709D01*
X0171519Y0034726D01*
X0059197Y0100314D02*
X0043948Y0086648D01*
X0043647Y0086711D01*
X0043019Y0086890D01*
D26*
X0016179Y0019309D02*
X0016372Y0230411D01*
X0038972Y0230396D01*
X0037385Y0229971D01*
X0034424Y0228261D01*
X0032006Y0225843D01*
X0030296Y0222882D01*
X0029411Y0219579D01*
X0029411Y0216159D01*
X0030296Y0212857D01*
X0032006Y0209895D01*
X0034424Y0207477D01*
X0037385Y0205768D01*
X0040688Y0204883D01*
X0044108Y0204883D01*
X0047411Y0205768D01*
X0050372Y0207477D01*
X0052790Y0209895D01*
X0054500Y0212857D01*
X0055385Y0216159D01*
X0055385Y0219579D01*
X0054500Y0222882D01*
X0052790Y0225843D01*
X0050372Y0228261D01*
X0047411Y0229971D01*
X0045841Y0230391D01*
X0071566Y0230374D01*
X0069693Y0228501D01*
X0068338Y0225230D01*
X0068338Y0215689D01*
X0069693Y0212418D01*
X0072196Y0209914D01*
X0075468Y0208559D01*
X0079008Y0208559D01*
X0082279Y0209914D01*
X0084783Y0212418D01*
X0085284Y0213629D01*
X0085587Y0213474D01*
X0086231Y0213265D01*
X0086899Y0213159D01*
X0086938Y0213159D01*
X0086938Y0220159D01*
X0087538Y0220159D01*
X0087538Y0213159D01*
X0087576Y0213159D01*
X0088245Y0213265D01*
X0088888Y0213474D01*
X0089191Y0213629D01*
X0089693Y0212418D01*
X0092196Y0209914D01*
X0095468Y0208559D01*
X0099008Y0208559D01*
X0102238Y0209897D01*
X0105468Y0208559D01*
X0109008Y0208559D01*
X0112238Y0209897D01*
X0115468Y0208559D01*
X0119008Y0208559D01*
X0122238Y0209897D01*
X0125468Y0208559D01*
X0129008Y0208559D01*
X0132238Y0209897D01*
X0135468Y0208559D01*
X0139008Y0208559D01*
X0142238Y0209897D01*
X0145468Y0208559D01*
X0149008Y0208559D01*
X0152279Y0209914D01*
X0154738Y0212373D01*
X0157196Y0209914D01*
X0160468Y0208559D01*
X0164008Y0208559D01*
X0167238Y0209897D01*
X0170468Y0208559D01*
X0174008Y0208559D01*
X0177238Y0209897D01*
X0180468Y0208559D01*
X0184008Y0208559D01*
X0187238Y0209897D01*
X0190468Y0208559D01*
X0194008Y0208559D01*
X0197238Y0209897D01*
X0200468Y0208559D01*
X0204008Y0208559D01*
X0207238Y0209897D01*
X0210468Y0208559D01*
X0214008Y0208559D01*
X0217238Y0209897D01*
X0220468Y0208559D01*
X0224008Y0208559D01*
X0227238Y0209897D01*
X0230468Y0208559D01*
X0234008Y0208559D01*
X0237279Y0209914D01*
X0239783Y0212418D01*
X0241138Y0215689D01*
X0241138Y0225230D01*
X0239783Y0228501D01*
X0238023Y0230260D01*
X0263502Y0230243D01*
X0267249Y0227023D01*
X0267406Y0182672D01*
X0266374Y0185163D01*
X0263659Y0187878D01*
X0260113Y0189347D01*
X0256274Y0189347D01*
X0252727Y0187878D01*
X0250012Y0185163D01*
X0249693Y0184393D01*
X0249374Y0185163D01*
X0246659Y0187878D01*
X0243113Y0189347D01*
X0239274Y0189347D01*
X0235727Y0187878D01*
X0233012Y0185163D01*
X0231543Y0181616D01*
X0231543Y0177777D01*
X0233012Y0174231D01*
X0235727Y0171516D01*
X0239274Y0170047D01*
X0243113Y0170047D01*
X0246659Y0171516D01*
X0249374Y0174231D01*
X0249693Y0175001D01*
X0250012Y0174231D01*
X0252727Y0171516D01*
X0256274Y0170047D01*
X0260113Y0170047D01*
X0263659Y0171516D01*
X0266374Y0174231D01*
X0267843Y0177777D01*
X0267843Y0180162D01*
X0267898Y0180031D01*
X0268380Y0178866D01*
X0268389Y0178857D01*
X0268394Y0178846D01*
X0269289Y0177957D01*
X0277511Y0169731D01*
X0277501Y0155330D01*
X0275393Y0155895D01*
X0271974Y0155895D01*
X0268671Y0155010D01*
X0265710Y0153300D01*
X0263292Y0150882D01*
X0263012Y0150397D01*
X0258493Y0150397D01*
X0258493Y0145647D01*
X0258591Y0145647D01*
X0259376Y0145771D01*
X0260132Y0146017D01*
X0260840Y0146378D01*
X0261248Y0146674D01*
X0260697Y0144618D01*
X0260697Y0141198D01*
X0261582Y0137895D01*
X0263292Y0134934D01*
X0265710Y0132516D01*
X0268671Y0130806D01*
X0271974Y0129921D01*
X0275393Y0129921D01*
X0277485Y0130482D01*
X0277441Y0065946D01*
X0275665Y0066422D01*
X0272245Y0066422D01*
X0268943Y0065537D01*
X0265981Y0063827D01*
X0263563Y0061409D01*
X0261854Y0058448D01*
X0260969Y0055145D01*
X0260969Y0051726D01*
X0261854Y0048423D01*
X0263563Y0045461D01*
X0265981Y0043044D01*
X0268943Y0041334D01*
X0271789Y0040571D01*
X0269146Y0037925D01*
X0268268Y0037072D01*
X0268248Y0037026D01*
X0268213Y0036991D01*
X0267745Y0035859D01*
X0267260Y0034733D01*
X0267259Y0034684D01*
X0267241Y0034639D01*
X0267241Y0033413D01*
X0267041Y0019279D01*
X0243436Y0019307D01*
X0243432Y0019309D01*
X0242166Y0019309D01*
X0240894Y0019310D01*
X0240890Y0019309D01*
X0235818Y0019309D01*
X0237279Y0019914D01*
X0239783Y0022418D01*
X0241138Y0025689D01*
X0241138Y0035230D01*
X0239783Y0038501D01*
X0237279Y0041004D01*
X0234008Y0042359D01*
X0230468Y0042359D01*
X0227238Y0041021D01*
X0224008Y0042359D01*
X0220468Y0042359D01*
X0217238Y0041021D01*
X0214008Y0042359D01*
X0210468Y0042359D01*
X0207238Y0041021D01*
X0204008Y0042359D01*
X0200468Y0042359D01*
X0197238Y0041021D01*
X0194008Y0042359D01*
X0190468Y0042359D01*
X0188402Y0041504D01*
X0230363Y0083628D01*
X0231676Y0080459D01*
X0230338Y0077230D01*
X0230338Y0073689D01*
X0231693Y0070418D01*
X0234196Y0067914D01*
X0235407Y0067413D01*
X0235253Y0067110D01*
X0235044Y0066466D01*
X0234938Y0065798D01*
X0234938Y0065759D01*
X0241938Y0065759D01*
X0241938Y0065159D01*
X0242538Y0065159D01*
X0242538Y0065759D01*
X0249538Y0065759D01*
X0249538Y0065798D01*
X0249432Y0066466D01*
X0249223Y0067110D01*
X0249069Y0067413D01*
X0250279Y0067914D01*
X0252783Y0070418D01*
X0254138Y0073689D01*
X0254138Y0077230D01*
X0252800Y0080459D01*
X0254138Y0083689D01*
X0254138Y0087230D01*
X0252800Y0090459D01*
X0254138Y0093689D01*
X0254138Y0097230D01*
X0252800Y0100459D01*
X0254138Y0103689D01*
X0254138Y0107230D01*
X0252800Y0110459D01*
X0254138Y0113689D01*
X0254138Y0117230D01*
X0252783Y0120501D01*
X0250279Y0123004D01*
X0249148Y0123473D01*
X0250363Y0126405D01*
X0250363Y0129648D01*
X0249122Y0132643D01*
X0248738Y0133027D01*
X0249122Y0133410D01*
X0250363Y0136405D01*
X0250363Y0139648D01*
X0249122Y0142643D01*
X0249052Y0142712D01*
X0249945Y0143605D01*
X0250843Y0145773D01*
X0250843Y0155621D01*
X0249945Y0157789D01*
X0248285Y0159449D01*
X0246117Y0160347D01*
X0236270Y0160347D01*
X0234101Y0159449D01*
X0232441Y0157789D01*
X0231543Y0155621D01*
X0231543Y0145773D01*
X0232441Y0143605D01*
X0234101Y0141945D01*
X0234880Y0141622D01*
X0234063Y0139648D01*
X0234063Y0136405D01*
X0235303Y0133410D01*
X0235687Y0133027D01*
X0235303Y0132643D01*
X0234063Y0129648D01*
X0234063Y0126405D01*
X0235285Y0123455D01*
X0234196Y0123004D01*
X0231693Y0120501D01*
X0230338Y0117230D01*
X0230338Y0114354D01*
X0227224Y0114354D01*
X0223770Y0112923D01*
X0221125Y0110279D01*
X0220741Y0109352D01*
X0218607Y0111486D01*
X0215420Y0112806D01*
X0215296Y0112806D01*
X0215296Y0112931D01*
X0213976Y0116118D01*
X0211536Y0118557D01*
X0208349Y0119877D01*
X0208225Y0119877D01*
X0208225Y0120002D01*
X0206905Y0123189D01*
X0204465Y0125628D01*
X0201278Y0126949D01*
X0201154Y0126949D01*
X0201154Y0127073D01*
X0199833Y0130260D01*
X0197394Y0132699D01*
X0194207Y0134020D01*
X0194083Y0134020D01*
X0194083Y0134144D01*
X0192762Y0137331D01*
X0190323Y0139771D01*
X0187136Y0141091D01*
X0187011Y0141091D01*
X0187011Y0141215D01*
X0185691Y0144402D01*
X0183252Y0146842D01*
X0180065Y0148162D01*
X0176615Y0148162D01*
X0175218Y0147583D01*
X0175042Y0148124D01*
X0174751Y0148695D01*
X0174374Y0149214D01*
X0174360Y0149228D01*
X0169733Y0144601D01*
X0169309Y0145026D01*
X0173936Y0149652D01*
X0173921Y0149667D01*
X0173403Y0150044D01*
X0172832Y0150335D01*
X0172291Y0150510D01*
X0172869Y0151907D01*
X0172869Y0155357D01*
X0171549Y0158544D01*
X0169110Y0160984D01*
X0165923Y0162304D01*
X0165798Y0162304D01*
X0165798Y0162428D01*
X0164478Y0165615D01*
X0162039Y0168055D01*
X0158852Y0169375D01*
X0158727Y0169375D01*
X0158727Y0169499D01*
X0157407Y0172686D01*
X0154968Y0175126D01*
X0151780Y0176446D01*
X0151656Y0176446D01*
X0151656Y0176570D01*
X0150336Y0179758D01*
X0147897Y0182197D01*
X0144709Y0183517D01*
X0144585Y0183517D01*
X0144585Y0183641D01*
X0143265Y0186829D01*
X0140826Y0189268D01*
X0137638Y0190588D01*
X0137514Y0190588D01*
X0137514Y0190712D01*
X0136194Y0193900D01*
X0133754Y0196339D01*
X0130567Y0197659D01*
X0127117Y0197659D01*
X0123930Y0196339D01*
X0117571Y0189980D01*
X0116251Y0186793D01*
X0116251Y0183343D01*
X0117571Y0180156D01*
X0120011Y0177716D01*
X0123198Y0176396D01*
X0123322Y0176396D01*
X0123322Y0176272D01*
X0124642Y0173085D01*
X0127082Y0170645D01*
X0130269Y0169325D01*
X0130393Y0169325D01*
X0130393Y0169201D01*
X0131713Y0166014D01*
X0134153Y0163574D01*
X0137340Y0162254D01*
X0137464Y0162254D01*
X0137464Y0162130D01*
X0138784Y0158943D01*
X0141224Y0156503D01*
X0144411Y0155183D01*
X0144535Y0155183D01*
X0144535Y0155059D01*
X0145855Y0151871D01*
X0148295Y0149432D01*
X0151482Y0148112D01*
X0151606Y0148112D01*
X0151606Y0147988D01*
X0152927Y0144800D01*
X0155366Y0142361D01*
X0158553Y0141041D01*
X0162003Y0141041D01*
X0163400Y0141620D01*
X0163576Y0141078D01*
X0163867Y0140507D01*
X0164243Y0139989D01*
X0164258Y0139974D01*
X0168885Y0144601D01*
X0169309Y0144177D01*
X0164682Y0139550D01*
X0164697Y0139536D01*
X0165215Y0139159D01*
X0165786Y0138868D01*
X0166327Y0138692D01*
X0165748Y0137295D01*
X0165748Y0133845D01*
X0167069Y0130658D01*
X0169508Y0128219D01*
X0172695Y0126899D01*
X0172820Y0126899D01*
X0172820Y0126774D01*
X0174140Y0123587D01*
X0176579Y0121148D01*
X0179766Y0119828D01*
X0179891Y0119828D01*
X0179891Y0119703D01*
X0181211Y0116516D01*
X0183650Y0114077D01*
X0186837Y0112757D01*
X0186962Y0112757D01*
X0186962Y0112632D01*
X0188282Y0109445D01*
X0190721Y0107006D01*
X0193908Y0105686D01*
X0194033Y0105686D01*
X0194033Y0105561D01*
X0195353Y0102374D01*
X0197792Y0099935D01*
X0200980Y0098614D01*
X0201104Y0098614D01*
X0201104Y0098490D01*
X0202424Y0095303D01*
X0204863Y0092864D01*
X0208051Y0091543D01*
X0209073Y0091543D01*
X0213082Y0087535D01*
X0206620Y0081047D01*
X0204465Y0083202D01*
X0201278Y0084522D01*
X0201154Y0084522D01*
X0201154Y0084646D01*
X0199833Y0087834D01*
X0197394Y0090273D01*
X0194207Y0091593D01*
X0194083Y0091593D01*
X0194083Y0091718D01*
X0192762Y0094905D01*
X0190323Y0097344D01*
X0187136Y0098664D01*
X0187011Y0098664D01*
X0187011Y0098789D01*
X0185691Y0101976D01*
X0183252Y0104415D01*
X0180065Y0105735D01*
X0179940Y0105735D01*
X0179940Y0105860D01*
X0178620Y0109047D01*
X0176181Y0111486D01*
X0172994Y0112806D01*
X0172869Y0112806D01*
X0172869Y0112931D01*
X0171549Y0116118D01*
X0169110Y0118557D01*
X0165923Y0119877D01*
X0162473Y0119877D01*
X0161076Y0119299D01*
X0160900Y0119840D01*
X0160609Y0120411D01*
X0160232Y0120929D01*
X0160218Y0120944D01*
X0155591Y0116317D01*
X0155167Y0116741D01*
X0159794Y0121368D01*
X0159779Y0121383D01*
X0159261Y0121759D01*
X0158690Y0122050D01*
X0158149Y0122226D01*
X0158727Y0123623D01*
X0158727Y0127073D01*
X0157407Y0130260D01*
X0154968Y0132699D01*
X0151780Y0134020D01*
X0151656Y0134020D01*
X0151656Y0134144D01*
X0150336Y0137331D01*
X0147897Y0139771D01*
X0144709Y0141091D01*
X0144585Y0141091D01*
X0144585Y0141215D01*
X0143265Y0144402D01*
X0140826Y0146842D01*
X0137638Y0148162D01*
X0137514Y0148162D01*
X0137514Y0148286D01*
X0136194Y0151473D01*
X0133754Y0153913D01*
X0130567Y0155233D01*
X0130443Y0155233D01*
X0130443Y0155357D01*
X0129123Y0158544D01*
X0126683Y0160984D01*
X0123496Y0162304D01*
X0123372Y0162304D01*
X0123372Y0162428D01*
X0122052Y0165615D01*
X0119612Y0168055D01*
X0116425Y0169375D01*
X0116301Y0169375D01*
X0116301Y0169499D01*
X0114981Y0172686D01*
X0112541Y0175126D01*
X0109354Y0176446D01*
X0105904Y0176446D01*
X0102717Y0175126D01*
X0096358Y0168767D01*
X0095038Y0165580D01*
X0095038Y0162130D01*
X0096358Y0158943D01*
X0098797Y0156503D01*
X0101985Y0155183D01*
X0102109Y0155183D01*
X0102109Y0155059D01*
X0103429Y0151871D01*
X0105868Y0149432D01*
X0109056Y0148112D01*
X0109180Y0148112D01*
X0109180Y0147988D01*
X0110500Y0144800D01*
X0112939Y0142361D01*
X0116127Y0141041D01*
X0116251Y0141041D01*
X0116251Y0140917D01*
X0117571Y0137729D01*
X0120011Y0135290D01*
X0123198Y0133970D01*
X0123322Y0133970D01*
X0123322Y0133845D01*
X0124163Y0131815D01*
X0121839Y0134139D01*
X0114342Y0134139D01*
X0109040Y0128838D01*
X0109040Y0121341D01*
X0114342Y0116039D01*
X0121839Y0116039D01*
X0127140Y0121341D01*
X0127140Y0128195D01*
X0130269Y0126899D01*
X0130393Y0126899D01*
X0130393Y0126774D01*
X0131713Y0123587D01*
X0134153Y0121148D01*
X0137340Y0119828D01*
X0137464Y0119828D01*
X0137464Y0119703D01*
X0138784Y0116516D01*
X0141224Y0114077D01*
X0144411Y0112757D01*
X0147861Y0112757D01*
X0149258Y0113335D01*
X0149434Y0112794D01*
X0149725Y0112223D01*
X0150101Y0111705D01*
X0150116Y0111690D01*
X0154742Y0116317D01*
X0155167Y0115893D01*
X0150540Y0111266D01*
X0150554Y0111252D01*
X0151073Y0110875D01*
X0151644Y0110584D01*
X0152185Y0110408D01*
X0151606Y0109011D01*
X0151606Y0105561D01*
X0152927Y0102374D01*
X0155366Y0099935D01*
X0158553Y0098614D01*
X0158677Y0098614D01*
X0158677Y0098490D01*
X0159998Y0095303D01*
X0162437Y0092864D01*
X0165624Y0091543D01*
X0165748Y0091543D01*
X0165748Y0091419D01*
X0167069Y0088232D01*
X0169508Y0085793D01*
X0172695Y0084472D01*
X0172820Y0084472D01*
X0172820Y0084348D01*
X0174140Y0081161D01*
X0176579Y0078721D01*
X0179766Y0077401D01*
X0179891Y0077401D01*
X0179891Y0077277D01*
X0181211Y0074090D01*
X0183650Y0071650D01*
X0186837Y0070330D01*
X0186962Y0070330D01*
X0186962Y0070206D01*
X0188282Y0067019D01*
X0190468Y0064832D01*
X0169842Y0044126D01*
X0169649Y0044126D01*
X0166194Y0042695D01*
X0165316Y0041817D01*
X0164008Y0042359D01*
X0160468Y0042359D01*
X0157238Y0041021D01*
X0154008Y0042359D01*
X0150468Y0042359D01*
X0147238Y0041021D01*
X0144622Y0042105D01*
X0145916Y0042105D01*
X0150895Y0047084D01*
X0150895Y0054126D01*
X0145916Y0059105D01*
X0138874Y0059105D01*
X0133895Y0054126D01*
X0133895Y0047084D01*
X0138874Y0042105D01*
X0139853Y0042105D01*
X0137196Y0041004D01*
X0134693Y0038501D01*
X0134191Y0037290D01*
X0133888Y0037444D01*
X0133245Y0037653D01*
X0132576Y0037759D01*
X0132538Y0037759D01*
X0132538Y0030759D01*
X0131938Y0030759D01*
X0131938Y0030159D01*
X0132538Y0030159D01*
X0132538Y0023159D01*
X0132576Y0023159D01*
X0133245Y0023265D01*
X0133888Y0023474D01*
X0134191Y0023629D01*
X0134693Y0022418D01*
X0137196Y0019914D01*
X0138658Y0019309D01*
X0115818Y0019309D01*
X0117279Y0019914D01*
X0119783Y0022418D01*
X0120284Y0023629D01*
X0120587Y0023474D01*
X0121231Y0023265D01*
X0121899Y0023159D01*
X0121938Y0023159D01*
X0121938Y0030159D01*
X0122538Y0030159D01*
X0122538Y0030759D01*
X0126538Y0030759D01*
X0126538Y0033798D01*
X0126432Y0034466D01*
X0126223Y0035110D01*
X0125916Y0035713D01*
X0125518Y0036260D01*
X0125039Y0036739D01*
X0124492Y0037137D01*
X0123888Y0037444D01*
X0123245Y0037653D01*
X0122576Y0037759D01*
X0122538Y0037759D01*
X0122538Y0030759D01*
X0121938Y0030759D01*
X0121938Y0037759D01*
X0121899Y0037759D01*
X0121231Y0037653D01*
X0120587Y0037444D01*
X0120284Y0037290D01*
X0119783Y0038501D01*
X0117279Y0041004D01*
X0114008Y0042359D01*
X0110468Y0042359D01*
X0107196Y0041004D01*
X0104693Y0038501D01*
X0103338Y0035230D01*
X0103338Y0025689D01*
X0104693Y0022418D01*
X0107196Y0019914D01*
X0108658Y0019309D01*
X0043980Y0019309D01*
X0045188Y0020006D01*
X0047606Y0022424D01*
X0049316Y0025385D01*
X0050201Y0028688D01*
X0050201Y0032107D01*
X0049316Y0035410D01*
X0047606Y0038372D01*
X0045188Y0040790D01*
X0042227Y0042499D01*
X0038924Y0043384D01*
X0035504Y0043384D01*
X0032201Y0042499D01*
X0029240Y0040790D01*
X0026822Y0038372D01*
X0025112Y0035410D01*
X0024227Y0032107D01*
X0024227Y0028688D01*
X0025112Y0025385D01*
X0026822Y0022424D01*
X0029240Y0020006D01*
X0030448Y0019309D01*
X0016179Y0019309D01*
X0016179Y0019356D02*
X0030366Y0019356D01*
X0029329Y0019954D02*
X0016179Y0019954D01*
X0016180Y0020553D02*
X0028693Y0020553D01*
X0028095Y0021151D02*
X0016180Y0021151D01*
X0016181Y0021750D02*
X0027496Y0021750D01*
X0026898Y0022348D02*
X0016181Y0022348D01*
X0016182Y0022947D02*
X0026520Y0022947D01*
X0026175Y0023545D02*
X0016183Y0023545D01*
X0016183Y0024144D02*
X0025829Y0024144D01*
X0025484Y0024742D02*
X0016184Y0024742D01*
X0016184Y0025341D02*
X0025138Y0025341D01*
X0024964Y0025939D02*
X0016185Y0025939D01*
X0016185Y0026538D02*
X0024804Y0026538D01*
X0024643Y0027137D02*
X0016186Y0027137D01*
X0016186Y0027735D02*
X0024483Y0027735D01*
X0024322Y0028334D02*
X0016187Y0028334D01*
X0016187Y0028932D02*
X0024227Y0028932D01*
X0024227Y0029531D02*
X0016188Y0029531D01*
X0016189Y0030129D02*
X0024227Y0030129D01*
X0024227Y0030728D02*
X0016189Y0030728D01*
X0016190Y0031326D02*
X0024227Y0031326D01*
X0024227Y0031925D02*
X0016190Y0031925D01*
X0016191Y0032523D02*
X0024339Y0032523D01*
X0024499Y0033122D02*
X0016191Y0033122D01*
X0016192Y0033720D02*
X0024660Y0033720D01*
X0024820Y0034319D02*
X0016192Y0034319D01*
X0016193Y0034917D02*
X0024980Y0034917D01*
X0025173Y0035516D02*
X0016194Y0035516D01*
X0016194Y0036114D02*
X0025519Y0036114D01*
X0025864Y0036713D02*
X0016195Y0036713D01*
X0016195Y0037311D02*
X0026210Y0037311D01*
X0026555Y0037910D02*
X0016196Y0037910D01*
X0016196Y0038508D02*
X0026959Y0038508D01*
X0027557Y0039107D02*
X0016197Y0039107D01*
X0016197Y0039705D02*
X0028156Y0039705D01*
X0028754Y0040304D02*
X0016198Y0040304D01*
X0016198Y0040902D02*
X0029435Y0040902D01*
X0030472Y0041501D02*
X0016199Y0041501D01*
X0016200Y0042099D02*
X0031509Y0042099D01*
X0032942Y0042698D02*
X0016200Y0042698D01*
X0016201Y0043296D02*
X0035176Y0043296D01*
X0039252Y0043296D02*
X0097683Y0043296D01*
X0098281Y0042698D02*
X0041486Y0042698D01*
X0042920Y0042099D02*
X0109840Y0042099D01*
X0108395Y0041501D02*
X0043956Y0041501D01*
X0044993Y0040902D02*
X0107094Y0040902D01*
X0106496Y0040304D02*
X0045674Y0040304D01*
X0046272Y0039705D02*
X0105897Y0039705D01*
X0105299Y0039107D02*
X0046871Y0039107D01*
X0047469Y0038508D02*
X0104700Y0038508D01*
X0104448Y0037910D02*
X0047873Y0037910D01*
X0048218Y0037311D02*
X0104200Y0037311D01*
X0103952Y0036713D02*
X0048564Y0036713D01*
X0048909Y0036114D02*
X0103704Y0036114D01*
X0103456Y0035516D02*
X0049255Y0035516D01*
X0049448Y0034917D02*
X0103338Y0034917D01*
X0103338Y0034319D02*
X0049608Y0034319D01*
X0049769Y0033720D02*
X0103338Y0033720D01*
X0103338Y0033122D02*
X0049929Y0033122D01*
X0050089Y0032523D02*
X0103338Y0032523D01*
X0103338Y0031925D02*
X0050201Y0031925D01*
X0050201Y0031326D02*
X0103338Y0031326D01*
X0103338Y0030728D02*
X0050201Y0030728D01*
X0050201Y0030129D02*
X0103338Y0030129D01*
X0103338Y0029531D02*
X0050201Y0029531D01*
X0050201Y0028932D02*
X0103338Y0028932D01*
X0103338Y0028334D02*
X0050106Y0028334D01*
X0049945Y0027735D02*
X0103338Y0027735D01*
X0103338Y0027137D02*
X0049785Y0027137D01*
X0049625Y0026538D02*
X0103338Y0026538D01*
X0103338Y0025939D02*
X0049464Y0025939D01*
X0049290Y0025341D02*
X0103482Y0025341D01*
X0103730Y0024742D02*
X0048945Y0024742D01*
X0048599Y0024144D02*
X0103978Y0024144D01*
X0104226Y0023545D02*
X0048254Y0023545D01*
X0047908Y0022947D02*
X0104474Y0022947D01*
X0104762Y0022348D02*
X0047531Y0022348D01*
X0046932Y0021750D02*
X0105361Y0021750D01*
X0105959Y0021151D02*
X0046334Y0021151D01*
X0045735Y0020553D02*
X0106558Y0020553D01*
X0107156Y0019954D02*
X0045099Y0019954D01*
X0044062Y0019356D02*
X0108544Y0019356D01*
X0115931Y0019356D02*
X0138544Y0019356D01*
X0137156Y0019954D02*
X0117320Y0019954D01*
X0117918Y0020553D02*
X0136558Y0020553D01*
X0135959Y0021151D02*
X0118517Y0021151D01*
X0119115Y0021750D02*
X0135361Y0021750D01*
X0134762Y0022348D02*
X0119714Y0022348D01*
X0120002Y0022947D02*
X0134474Y0022947D01*
X0134226Y0023545D02*
X0134028Y0023545D01*
X0132538Y0023545D02*
X0131938Y0023545D01*
X0131938Y0023159D02*
X0131938Y0030159D01*
X0127938Y0030159D01*
X0127938Y0027121D01*
X0128044Y0026452D01*
X0128253Y0025809D01*
X0128560Y0025205D01*
X0128958Y0024658D01*
X0129437Y0024179D01*
X0129984Y0023781D01*
X0130587Y0023474D01*
X0131231Y0023265D01*
X0131899Y0023159D01*
X0131938Y0023159D01*
X0131938Y0024144D02*
X0132538Y0024144D01*
X0132538Y0024742D02*
X0131938Y0024742D01*
X0131938Y0025341D02*
X0132538Y0025341D01*
X0132538Y0025939D02*
X0131938Y0025939D01*
X0131938Y0026538D02*
X0132538Y0026538D01*
X0132538Y0027137D02*
X0131938Y0027137D01*
X0131938Y0027735D02*
X0132538Y0027735D01*
X0132538Y0028334D02*
X0131938Y0028334D01*
X0131938Y0028932D02*
X0132538Y0028932D01*
X0132538Y0029531D02*
X0131938Y0029531D01*
X0131938Y0030129D02*
X0132538Y0030129D01*
X0131938Y0030728D02*
X0122538Y0030728D01*
X0122538Y0030159D02*
X0126538Y0030159D01*
X0126538Y0027121D01*
X0126432Y0026452D01*
X0126223Y0025809D01*
X0125916Y0025205D01*
X0125518Y0024658D01*
X0125039Y0024179D01*
X0124492Y0023781D01*
X0123888Y0023474D01*
X0123245Y0023265D01*
X0122576Y0023159D01*
X0122538Y0023159D01*
X0122538Y0030159D01*
X0122538Y0030129D02*
X0121938Y0030129D01*
X0121938Y0029531D02*
X0122538Y0029531D01*
X0122538Y0028932D02*
X0121938Y0028932D01*
X0121938Y0028334D02*
X0122538Y0028334D01*
X0122538Y0027735D02*
X0121938Y0027735D01*
X0121938Y0027137D02*
X0122538Y0027137D01*
X0122538Y0026538D02*
X0121938Y0026538D01*
X0121938Y0025939D02*
X0122538Y0025939D01*
X0122538Y0025341D02*
X0121938Y0025341D01*
X0121938Y0024742D02*
X0122538Y0024742D01*
X0122538Y0024144D02*
X0121938Y0024144D01*
X0121938Y0023545D02*
X0122538Y0023545D01*
X0124028Y0023545D02*
X0130447Y0023545D01*
X0129485Y0024144D02*
X0124990Y0024144D01*
X0125579Y0024742D02*
X0128897Y0024742D01*
X0128491Y0025341D02*
X0125985Y0025341D01*
X0126265Y0025939D02*
X0128210Y0025939D01*
X0128030Y0026538D02*
X0126446Y0026538D01*
X0126538Y0027137D02*
X0127938Y0027137D01*
X0127938Y0027735D02*
X0126538Y0027735D01*
X0126538Y0028334D02*
X0127938Y0028334D01*
X0127938Y0028932D02*
X0126538Y0028932D01*
X0126538Y0029531D02*
X0127938Y0029531D01*
X0127938Y0030129D02*
X0126538Y0030129D01*
X0126538Y0031326D02*
X0127938Y0031326D01*
X0127938Y0030759D02*
X0131938Y0030759D01*
X0131938Y0037759D01*
X0131899Y0037759D01*
X0131231Y0037653D01*
X0130587Y0037444D01*
X0129984Y0037137D01*
X0129437Y0036739D01*
X0128958Y0036260D01*
X0128560Y0035713D01*
X0128253Y0035110D01*
X0128044Y0034466D01*
X0127938Y0033798D01*
X0127938Y0030759D01*
X0127938Y0031925D02*
X0126538Y0031925D01*
X0126538Y0032523D02*
X0127938Y0032523D01*
X0127938Y0033122D02*
X0126538Y0033122D01*
X0126538Y0033720D02*
X0127938Y0033720D01*
X0128020Y0034319D02*
X0126455Y0034319D01*
X0126285Y0034917D02*
X0128190Y0034917D01*
X0128460Y0035516D02*
X0126016Y0035516D01*
X0125624Y0036114D02*
X0128852Y0036114D01*
X0129410Y0036713D02*
X0125065Y0036713D01*
X0124149Y0037311D02*
X0130326Y0037311D01*
X0131938Y0037311D02*
X0132538Y0037311D01*
X0132538Y0036713D02*
X0131938Y0036713D01*
X0131938Y0036114D02*
X0132538Y0036114D01*
X0132538Y0035516D02*
X0131938Y0035516D01*
X0131938Y0034917D02*
X0132538Y0034917D01*
X0132538Y0034319D02*
X0131938Y0034319D01*
X0131938Y0033720D02*
X0132538Y0033720D01*
X0132538Y0033122D02*
X0131938Y0033122D01*
X0131938Y0032523D02*
X0132538Y0032523D01*
X0132538Y0031925D02*
X0131938Y0031925D01*
X0131938Y0031326D02*
X0132538Y0031326D01*
X0134149Y0037311D02*
X0134200Y0037311D01*
X0134448Y0037910D02*
X0120028Y0037910D01*
X0120276Y0037311D02*
X0120326Y0037311D01*
X0119775Y0038508D02*
X0134700Y0038508D01*
X0135299Y0039107D02*
X0119177Y0039107D01*
X0118578Y0039705D02*
X0135897Y0039705D01*
X0136496Y0040304D02*
X0117980Y0040304D01*
X0117381Y0040902D02*
X0137094Y0040902D01*
X0138395Y0041501D02*
X0116081Y0041501D01*
X0114636Y0042099D02*
X0139840Y0042099D01*
X0138281Y0042698D02*
X0106509Y0042698D01*
X0105916Y0042105D02*
X0110895Y0047084D01*
X0110895Y0054126D01*
X0105916Y0059105D01*
X0098874Y0059105D01*
X0093895Y0054126D01*
X0093895Y0047084D01*
X0098874Y0042105D01*
X0105916Y0042105D01*
X0107108Y0043296D02*
X0137683Y0043296D01*
X0137084Y0043895D02*
X0107706Y0043895D01*
X0108305Y0044493D02*
X0136486Y0044493D01*
X0135887Y0045092D02*
X0108903Y0045092D01*
X0109502Y0045690D02*
X0135289Y0045690D01*
X0134690Y0046289D02*
X0110100Y0046289D01*
X0110699Y0046887D02*
X0134092Y0046887D01*
X0133895Y0047486D02*
X0110895Y0047486D01*
X0110895Y0048084D02*
X0133895Y0048084D01*
X0133895Y0048683D02*
X0110895Y0048683D01*
X0110895Y0049281D02*
X0133895Y0049281D01*
X0133895Y0049880D02*
X0110895Y0049880D01*
X0110895Y0050478D02*
X0133895Y0050478D01*
X0133895Y0051077D02*
X0110895Y0051077D01*
X0110895Y0051675D02*
X0133895Y0051675D01*
X0133895Y0052274D02*
X0110895Y0052274D01*
X0110895Y0052873D02*
X0133895Y0052873D01*
X0133895Y0053471D02*
X0110895Y0053471D01*
X0110895Y0054070D02*
X0133895Y0054070D01*
X0134438Y0054668D02*
X0110353Y0054668D01*
X0109754Y0055267D02*
X0135036Y0055267D01*
X0135635Y0055865D02*
X0109156Y0055865D01*
X0108557Y0056464D02*
X0136233Y0056464D01*
X0136832Y0057062D02*
X0107959Y0057062D01*
X0107360Y0057661D02*
X0137430Y0057661D01*
X0138029Y0058259D02*
X0106762Y0058259D01*
X0106163Y0058858D02*
X0138627Y0058858D01*
X0146163Y0058858D02*
X0184517Y0058858D01*
X0185113Y0059456D02*
X0016215Y0059456D01*
X0016215Y0058858D02*
X0098627Y0058858D01*
X0098029Y0058259D02*
X0016214Y0058259D01*
X0016214Y0057661D02*
X0097430Y0057661D01*
X0096832Y0057062D02*
X0016213Y0057062D01*
X0016213Y0056464D02*
X0096233Y0056464D01*
X0095635Y0055865D02*
X0016212Y0055865D01*
X0016212Y0055267D02*
X0095036Y0055267D01*
X0094438Y0054668D02*
X0016211Y0054668D01*
X0016211Y0054070D02*
X0093895Y0054070D01*
X0093895Y0053471D02*
X0016210Y0053471D01*
X0016209Y0052873D02*
X0093895Y0052873D01*
X0093895Y0052274D02*
X0016209Y0052274D01*
X0016208Y0051675D02*
X0093895Y0051675D01*
X0093895Y0051077D02*
X0016208Y0051077D01*
X0016207Y0050478D02*
X0093895Y0050478D01*
X0093895Y0049880D02*
X0016207Y0049880D01*
X0016206Y0049281D02*
X0093895Y0049281D01*
X0093895Y0048683D02*
X0016206Y0048683D01*
X0016205Y0048084D02*
X0093895Y0048084D01*
X0093895Y0047486D02*
X0016204Y0047486D01*
X0016204Y0046887D02*
X0094092Y0046887D01*
X0094690Y0046289D02*
X0016203Y0046289D01*
X0016203Y0045690D02*
X0095289Y0045690D01*
X0095887Y0045092D02*
X0016202Y0045092D01*
X0016202Y0044493D02*
X0096486Y0044493D01*
X0097084Y0043895D02*
X0016201Y0043895D01*
X0016216Y0060055D02*
X0185709Y0060055D01*
X0186305Y0060653D02*
X0016217Y0060653D01*
X0016217Y0061252D02*
X0186901Y0061252D01*
X0187497Y0061850D02*
X0016218Y0061850D01*
X0016218Y0062449D02*
X0188094Y0062449D01*
X0188690Y0063047D02*
X0016219Y0063047D01*
X0016219Y0063646D02*
X0189286Y0063646D01*
X0189882Y0064244D02*
X0016220Y0064244D01*
X0016220Y0064843D02*
X0190458Y0064843D01*
X0189859Y0065441D02*
X0016221Y0065441D01*
X0016221Y0066040D02*
X0189261Y0066040D01*
X0188662Y0066638D02*
X0016222Y0066638D01*
X0016223Y0067237D02*
X0188192Y0067237D01*
X0187944Y0067835D02*
X0016223Y0067835D01*
X0016224Y0068434D02*
X0187696Y0068434D01*
X0187448Y0069032D02*
X0016224Y0069032D01*
X0016225Y0069631D02*
X0187200Y0069631D01*
X0186962Y0070229D02*
X0016225Y0070229D01*
X0016226Y0070828D02*
X0185636Y0070828D01*
X0184191Y0071426D02*
X0016226Y0071426D01*
X0016227Y0072025D02*
X0183276Y0072025D01*
X0182677Y0072623D02*
X0016228Y0072623D01*
X0016228Y0073222D02*
X0182079Y0073222D01*
X0181480Y0073820D02*
X0016229Y0073820D01*
X0016229Y0074419D02*
X0181074Y0074419D01*
X0180827Y0075017D02*
X0016230Y0075017D01*
X0016230Y0075616D02*
X0180579Y0075616D01*
X0180331Y0076214D02*
X0016231Y0076214D01*
X0016231Y0076813D02*
X0180083Y0076813D01*
X0179742Y0077411D02*
X0016232Y0077411D01*
X0016232Y0078010D02*
X0178297Y0078010D01*
X0176852Y0078608D02*
X0016233Y0078608D01*
X0016234Y0079207D02*
X0176094Y0079207D01*
X0175495Y0079806D02*
X0016234Y0079806D01*
X0016235Y0080404D02*
X0174897Y0080404D01*
X0174298Y0081003D02*
X0016235Y0081003D01*
X0016236Y0081601D02*
X0173957Y0081601D01*
X0173709Y0082200D02*
X0103675Y0082200D01*
X0103571Y0082130D02*
X0104210Y0082557D01*
X0104753Y0083100D01*
X0105180Y0083739D01*
X0105474Y0084448D01*
X0105624Y0085202D01*
X0105624Y0085286D01*
X0102024Y0085286D01*
X0102024Y0085886D01*
X0105624Y0085886D01*
X0105624Y0085970D01*
X0105474Y0086724D01*
X0105324Y0087086D01*
X0105497Y0087086D01*
X0107666Y0087984D01*
X0109325Y0089644D01*
X0110224Y0091812D01*
X0110224Y0099360D01*
X0109660Y0100721D01*
X0114342Y0096039D01*
X0121839Y0096039D01*
X0127140Y0101341D01*
X0127140Y0108838D01*
X0121839Y0114139D01*
X0114342Y0114139D01*
X0109040Y0108838D01*
X0109040Y0101813D01*
X0107666Y0103188D01*
X0105497Y0104086D01*
X0097950Y0104086D01*
X0095781Y0103188D01*
X0094122Y0101528D01*
X0093224Y0099360D01*
X0093224Y0091812D01*
X0094122Y0089644D01*
X0095781Y0087984D01*
X0097950Y0087086D01*
X0098124Y0087086D01*
X0097973Y0086724D01*
X0097824Y0085970D01*
X0097824Y0085886D01*
X0101423Y0085886D01*
X0101423Y0085286D01*
X0097824Y0085286D01*
X0097824Y0085202D01*
X0097973Y0084448D01*
X0098267Y0083739D01*
X0098694Y0083100D01*
X0099237Y0082557D01*
X0099876Y0082130D01*
X0100586Y0081836D01*
X0101339Y0081686D01*
X0101424Y0081686D01*
X0101424Y0085286D01*
X0102024Y0085286D01*
X0102024Y0081686D01*
X0102108Y0081686D01*
X0102861Y0081836D01*
X0103571Y0082130D01*
X0104451Y0082798D02*
X0173462Y0082798D01*
X0173214Y0083397D02*
X0104951Y0083397D01*
X0105286Y0083995D02*
X0172966Y0083995D01*
X0172402Y0084594D02*
X0105503Y0084594D01*
X0105622Y0085192D02*
X0170958Y0085192D01*
X0169513Y0085791D02*
X0102024Y0085791D01*
X0102024Y0085192D02*
X0101424Y0085192D01*
X0101424Y0084594D02*
X0102024Y0084594D01*
X0102024Y0083995D02*
X0101424Y0083995D01*
X0101424Y0083397D02*
X0102024Y0083397D01*
X0102024Y0082798D02*
X0101424Y0082798D01*
X0101424Y0082200D02*
X0102024Y0082200D01*
X0099772Y0082200D02*
X0016236Y0082200D01*
X0016237Y0082798D02*
X0098996Y0082798D01*
X0098496Y0083397D02*
X0016237Y0083397D01*
X0016238Y0083995D02*
X0098161Y0083995D01*
X0097945Y0084594D02*
X0016238Y0084594D01*
X0016239Y0085192D02*
X0097825Y0085192D01*
X0097907Y0086389D02*
X0016240Y0086389D01*
X0016240Y0085791D02*
X0101423Y0085791D01*
X0098083Y0086988D02*
X0016241Y0086988D01*
X0016241Y0087586D02*
X0096743Y0087586D01*
X0095581Y0088185D02*
X0016242Y0088185D01*
X0016242Y0088783D02*
X0094983Y0088783D01*
X0094384Y0089382D02*
X0016243Y0089382D01*
X0016243Y0089980D02*
X0093982Y0089980D01*
X0093735Y0090579D02*
X0016244Y0090579D01*
X0016245Y0091177D02*
X0093487Y0091177D01*
X0093239Y0091776D02*
X0016245Y0091776D01*
X0016246Y0092374D02*
X0093224Y0092374D01*
X0093224Y0092973D02*
X0016246Y0092973D01*
X0016247Y0093571D02*
X0093224Y0093571D01*
X0093224Y0094170D02*
X0016247Y0094170D01*
X0016248Y0094768D02*
X0093224Y0094768D01*
X0093224Y0095367D02*
X0016248Y0095367D01*
X0016249Y0095965D02*
X0093224Y0095965D01*
X0093224Y0096564D02*
X0016249Y0096564D01*
X0016250Y0097162D02*
X0093224Y0097162D01*
X0093224Y0097761D02*
X0016251Y0097761D01*
X0016251Y0098359D02*
X0070143Y0098359D01*
X0070306Y0098196D02*
X0077348Y0098196D01*
X0082327Y0103175D01*
X0082327Y0110216D01*
X0077348Y0115196D01*
X0070306Y0115196D01*
X0065327Y0110216D01*
X0065327Y0103175D01*
X0070306Y0098196D01*
X0069544Y0098958D02*
X0016252Y0098958D01*
X0016252Y0099556D02*
X0068946Y0099556D01*
X0068347Y0100155D02*
X0016253Y0100155D01*
X0016253Y0100753D02*
X0067749Y0100753D01*
X0067150Y0101352D02*
X0016254Y0101352D01*
X0016254Y0101950D02*
X0066552Y0101950D01*
X0065953Y0102549D02*
X0016255Y0102549D01*
X0016255Y0103147D02*
X0065355Y0103147D01*
X0065327Y0103746D02*
X0016256Y0103746D01*
X0016257Y0104344D02*
X0065327Y0104344D01*
X0065327Y0104943D02*
X0016257Y0104943D01*
X0016258Y0105541D02*
X0065327Y0105541D01*
X0065327Y0106140D02*
X0016258Y0106140D01*
X0016259Y0106739D02*
X0065327Y0106739D01*
X0065327Y0107337D02*
X0016259Y0107337D01*
X0016260Y0107936D02*
X0065327Y0107936D01*
X0065327Y0108534D02*
X0016260Y0108534D01*
X0016261Y0109133D02*
X0065327Y0109133D01*
X0065327Y0109731D02*
X0016262Y0109731D01*
X0016262Y0110330D02*
X0065440Y0110330D01*
X0066039Y0110928D02*
X0016263Y0110928D01*
X0016263Y0111527D02*
X0066637Y0111527D01*
X0067236Y0112125D02*
X0061115Y0112125D01*
X0061072Y0112097D02*
X0061720Y0112530D01*
X0062271Y0113081D01*
X0062705Y0113729D01*
X0063003Y0114449D01*
X0063103Y0114951D01*
X0065197Y0115819D01*
X0066857Y0117478D01*
X0067755Y0119647D01*
X0067755Y0127309D01*
X0066857Y0129477D01*
X0065197Y0131137D01*
X0063029Y0132035D01*
X0055366Y0132035D01*
X0053198Y0131137D01*
X0051606Y0129545D01*
X0051606Y0132106D01*
X0046627Y0137085D01*
X0039585Y0137085D01*
X0034606Y0132106D01*
X0034606Y0125064D01*
X0039585Y0120085D01*
X0046627Y0120085D01*
X0050640Y0124098D01*
X0050640Y0119647D01*
X0051538Y0117478D01*
X0053198Y0115819D01*
X0055292Y0114951D01*
X0055392Y0114449D01*
X0055690Y0113729D01*
X0056123Y0113081D01*
X0056675Y0112530D01*
X0057323Y0112097D01*
X0058043Y0111798D01*
X0058808Y0111646D01*
X0058897Y0111646D01*
X0058897Y0114920D01*
X0059497Y0114920D01*
X0059497Y0111646D01*
X0059587Y0111646D01*
X0060352Y0111798D01*
X0061072Y0112097D01*
X0061914Y0112724D02*
X0067834Y0112724D01*
X0068433Y0113322D02*
X0062432Y0113322D01*
X0062784Y0113921D02*
X0069031Y0113921D01*
X0069630Y0114519D02*
X0063017Y0114519D01*
X0063505Y0115118D02*
X0070228Y0115118D01*
X0066871Y0117512D02*
X0112869Y0117512D01*
X0112271Y0118110D02*
X0067118Y0118110D01*
X0067366Y0118709D02*
X0111672Y0118709D01*
X0111073Y0119307D02*
X0067614Y0119307D01*
X0067755Y0119906D02*
X0110475Y0119906D01*
X0109876Y0120504D02*
X0067755Y0120504D01*
X0067755Y0121103D02*
X0109278Y0121103D01*
X0109040Y0121701D02*
X0067755Y0121701D01*
X0067755Y0122300D02*
X0109040Y0122300D01*
X0109040Y0122898D02*
X0067755Y0122898D01*
X0067755Y0123497D02*
X0109040Y0123497D01*
X0109040Y0124095D02*
X0067755Y0124095D01*
X0067755Y0124694D02*
X0109040Y0124694D01*
X0109040Y0125292D02*
X0067755Y0125292D01*
X0067755Y0125891D02*
X0109040Y0125891D01*
X0109040Y0126489D02*
X0105642Y0126489D01*
X0105632Y0126480D02*
X0110611Y0131459D01*
X0110611Y0138501D01*
X0105632Y0143480D01*
X0098591Y0143480D01*
X0093611Y0138501D01*
X0093611Y0131459D01*
X0098591Y0126480D01*
X0105632Y0126480D01*
X0106240Y0127088D02*
X0109040Y0127088D01*
X0109040Y0127686D02*
X0106839Y0127686D01*
X0107437Y0128285D02*
X0109040Y0128285D01*
X0109086Y0128883D02*
X0108036Y0128883D01*
X0108634Y0129482D02*
X0109684Y0129482D01*
X0109233Y0130080D02*
X0110283Y0130080D01*
X0109831Y0130679D02*
X0110881Y0130679D01*
X0110430Y0131277D02*
X0111480Y0131277D01*
X0112078Y0131876D02*
X0110611Y0131876D01*
X0110611Y0132475D02*
X0112677Y0132475D01*
X0113275Y0133073D02*
X0110611Y0133073D01*
X0110611Y0133672D02*
X0113874Y0133672D01*
X0110611Y0134270D02*
X0122473Y0134270D01*
X0122306Y0133672D02*
X0123394Y0133672D01*
X0123642Y0133073D02*
X0122905Y0133073D01*
X0123503Y0132475D02*
X0123890Y0132475D01*
X0124102Y0131876D02*
X0124138Y0131876D01*
X0121028Y0134869D02*
X0110611Y0134869D01*
X0110611Y0135467D02*
X0119833Y0135467D01*
X0119235Y0136066D02*
X0110611Y0136066D01*
X0110611Y0136664D02*
X0118636Y0136664D01*
X0118038Y0137263D02*
X0110611Y0137263D01*
X0110611Y0137861D02*
X0117517Y0137861D01*
X0117269Y0138460D02*
X0110611Y0138460D01*
X0110054Y0139058D02*
X0117021Y0139058D01*
X0116773Y0139657D02*
X0109455Y0139657D01*
X0108857Y0140255D02*
X0116525Y0140255D01*
X0116277Y0140854D02*
X0108258Y0140854D01*
X0107660Y0141452D02*
X0115134Y0141452D01*
X0113689Y0142051D02*
X0107061Y0142051D01*
X0106463Y0142649D02*
X0112651Y0142649D01*
X0112053Y0143248D02*
X0105864Y0143248D01*
X0110400Y0145043D02*
X0016294Y0145043D01*
X0016293Y0144445D02*
X0110856Y0144445D01*
X0111454Y0143846D02*
X0016293Y0143846D01*
X0016292Y0143248D02*
X0098358Y0143248D01*
X0097760Y0142649D02*
X0016292Y0142649D01*
X0016291Y0142051D02*
X0097161Y0142051D01*
X0096563Y0141452D02*
X0016291Y0141452D01*
X0016290Y0140854D02*
X0095964Y0140854D01*
X0095366Y0140255D02*
X0016289Y0140255D01*
X0016289Y0139657D02*
X0094767Y0139657D01*
X0094169Y0139058D02*
X0016288Y0139058D01*
X0016288Y0138460D02*
X0093611Y0138460D01*
X0093611Y0137861D02*
X0016287Y0137861D01*
X0016287Y0137263D02*
X0093611Y0137263D01*
X0093611Y0136664D02*
X0047047Y0136664D01*
X0047646Y0136066D02*
X0093611Y0136066D01*
X0093611Y0135467D02*
X0048244Y0135467D01*
X0048843Y0134869D02*
X0093611Y0134869D01*
X0093611Y0134270D02*
X0049441Y0134270D01*
X0050040Y0133672D02*
X0093611Y0133672D01*
X0093611Y0133073D02*
X0050638Y0133073D01*
X0051237Y0132475D02*
X0093611Y0132475D01*
X0093611Y0131876D02*
X0063413Y0131876D01*
X0064858Y0131277D02*
X0093793Y0131277D01*
X0094392Y0130679D02*
X0065655Y0130679D01*
X0066254Y0130080D02*
X0094990Y0130080D01*
X0095589Y0129482D02*
X0066852Y0129482D01*
X0067103Y0128883D02*
X0096187Y0128883D01*
X0096786Y0128285D02*
X0067351Y0128285D01*
X0067599Y0127686D02*
X0097384Y0127686D01*
X0097983Y0127088D02*
X0067755Y0127088D01*
X0067755Y0126489D02*
X0098581Y0126489D01*
X0113468Y0116913D02*
X0066292Y0116913D01*
X0065693Y0116315D02*
X0114066Y0116315D01*
X0114123Y0113921D02*
X0078623Y0113921D01*
X0078024Y0114519D02*
X0140781Y0114519D01*
X0140183Y0115118D02*
X0077426Y0115118D01*
X0079221Y0113322D02*
X0113524Y0113322D01*
X0112926Y0112724D02*
X0079820Y0112724D01*
X0080418Y0112125D02*
X0112327Y0112125D01*
X0111729Y0111527D02*
X0081017Y0111527D01*
X0081615Y0110928D02*
X0111130Y0110928D01*
X0110532Y0110330D02*
X0082214Y0110330D01*
X0082327Y0109731D02*
X0109933Y0109731D01*
X0109335Y0109133D02*
X0082327Y0109133D01*
X0082327Y0108534D02*
X0109040Y0108534D01*
X0109040Y0107936D02*
X0082327Y0107936D01*
X0082327Y0107337D02*
X0109040Y0107337D01*
X0109040Y0106739D02*
X0082327Y0106739D01*
X0082327Y0106140D02*
X0109040Y0106140D01*
X0109040Y0105541D02*
X0082327Y0105541D01*
X0082327Y0104943D02*
X0109040Y0104943D01*
X0109040Y0104344D02*
X0082327Y0104344D01*
X0082327Y0103746D02*
X0097129Y0103746D01*
X0095741Y0103147D02*
X0082300Y0103147D01*
X0081701Y0102549D02*
X0095143Y0102549D01*
X0094544Y0101950D02*
X0081103Y0101950D01*
X0080504Y0101352D02*
X0094049Y0101352D01*
X0093801Y0100753D02*
X0079906Y0100753D01*
X0079307Y0100155D02*
X0093553Y0100155D01*
X0093305Y0099556D02*
X0078709Y0099556D01*
X0078110Y0098958D02*
X0093224Y0098958D01*
X0093224Y0098359D02*
X0077512Y0098359D01*
X0059497Y0112125D02*
X0058897Y0112125D01*
X0058897Y0112724D02*
X0059497Y0112724D01*
X0059497Y0113322D02*
X0058897Y0113322D01*
X0058897Y0113921D02*
X0059497Y0113921D01*
X0059497Y0114519D02*
X0058897Y0114519D01*
X0057280Y0112125D02*
X0016264Y0112125D01*
X0016264Y0112724D02*
X0056481Y0112724D01*
X0055962Y0113322D02*
X0016265Y0113322D01*
X0016265Y0113921D02*
X0055611Y0113921D01*
X0055378Y0114519D02*
X0016266Y0114519D01*
X0016266Y0115118D02*
X0054890Y0115118D01*
X0053445Y0115716D02*
X0016267Y0115716D01*
X0016268Y0116315D02*
X0052702Y0116315D01*
X0052103Y0116913D02*
X0016268Y0116913D01*
X0016269Y0117512D02*
X0051524Y0117512D01*
X0051276Y0118110D02*
X0016269Y0118110D01*
X0016270Y0118709D02*
X0051028Y0118709D01*
X0050781Y0119307D02*
X0016270Y0119307D01*
X0016271Y0119906D02*
X0050640Y0119906D01*
X0050640Y0120504D02*
X0047046Y0120504D01*
X0047645Y0121103D02*
X0050640Y0121103D01*
X0050640Y0121701D02*
X0048243Y0121701D01*
X0048842Y0122300D02*
X0050640Y0122300D01*
X0050640Y0122898D02*
X0049440Y0122898D01*
X0050039Y0123497D02*
X0050640Y0123497D01*
X0050637Y0124095D02*
X0050640Y0124095D01*
X0051606Y0130080D02*
X0052141Y0130080D01*
X0051606Y0130679D02*
X0052740Y0130679D01*
X0053537Y0131277D02*
X0051606Y0131277D01*
X0051606Y0131876D02*
X0054982Y0131876D01*
X0039164Y0136664D02*
X0016286Y0136664D01*
X0016286Y0136066D02*
X0038566Y0136066D01*
X0037967Y0135467D02*
X0016285Y0135467D01*
X0016285Y0134869D02*
X0037369Y0134869D01*
X0036770Y0134270D02*
X0016284Y0134270D01*
X0016283Y0133672D02*
X0036172Y0133672D01*
X0035573Y0133073D02*
X0016283Y0133073D01*
X0016282Y0132475D02*
X0034975Y0132475D01*
X0034606Y0131876D02*
X0016282Y0131876D01*
X0016281Y0131277D02*
X0034606Y0131277D01*
X0034606Y0130679D02*
X0016281Y0130679D01*
X0016280Y0130080D02*
X0034606Y0130080D01*
X0034606Y0129482D02*
X0016280Y0129482D01*
X0016279Y0128883D02*
X0034606Y0128883D01*
X0034606Y0128285D02*
X0016279Y0128285D01*
X0016278Y0127686D02*
X0034606Y0127686D01*
X0034606Y0127088D02*
X0016277Y0127088D01*
X0016277Y0126489D02*
X0034606Y0126489D01*
X0034606Y0125891D02*
X0016276Y0125891D01*
X0016276Y0125292D02*
X0034606Y0125292D01*
X0034976Y0124694D02*
X0016275Y0124694D01*
X0016275Y0124095D02*
X0035575Y0124095D01*
X0036173Y0123497D02*
X0016274Y0123497D01*
X0016274Y0122898D02*
X0036772Y0122898D01*
X0037370Y0122300D02*
X0016273Y0122300D01*
X0016272Y0121701D02*
X0037969Y0121701D01*
X0038567Y0121103D02*
X0016272Y0121103D01*
X0016271Y0120504D02*
X0039166Y0120504D01*
X0064950Y0115716D02*
X0139584Y0115716D01*
X0138986Y0116315D02*
X0122114Y0116315D01*
X0122713Y0116913D02*
X0138620Y0116913D01*
X0138372Y0117512D02*
X0123311Y0117512D01*
X0123910Y0118110D02*
X0138124Y0118110D01*
X0137876Y0118709D02*
X0124508Y0118709D01*
X0125107Y0119307D02*
X0137628Y0119307D01*
X0137151Y0119906D02*
X0125705Y0119906D01*
X0126304Y0120504D02*
X0135706Y0120504D01*
X0134261Y0121103D02*
X0126902Y0121103D01*
X0127140Y0121701D02*
X0133599Y0121701D01*
X0133001Y0122300D02*
X0127140Y0122300D01*
X0127140Y0122898D02*
X0132402Y0122898D01*
X0131804Y0123497D02*
X0127140Y0123497D01*
X0127140Y0124095D02*
X0131503Y0124095D01*
X0131255Y0124694D02*
X0127140Y0124694D01*
X0127140Y0125292D02*
X0131007Y0125292D01*
X0130759Y0125891D02*
X0127140Y0125891D01*
X0127140Y0126489D02*
X0130511Y0126489D01*
X0129812Y0127088D02*
X0127140Y0127088D01*
X0127140Y0127686D02*
X0128367Y0127686D01*
X0122057Y0113921D02*
X0141601Y0113921D01*
X0143046Y0113322D02*
X0122656Y0113322D01*
X0123254Y0112724D02*
X0149470Y0112724D01*
X0149262Y0113322D02*
X0149226Y0113322D01*
X0149796Y0112125D02*
X0123853Y0112125D01*
X0124451Y0111527D02*
X0150801Y0111527D01*
X0151000Y0110928D02*
X0125050Y0110928D01*
X0125648Y0110330D02*
X0152153Y0110330D01*
X0151905Y0109731D02*
X0126247Y0109731D01*
X0126845Y0109133D02*
X0151657Y0109133D01*
X0151606Y0108534D02*
X0127140Y0108534D01*
X0127140Y0107936D02*
X0151606Y0107936D01*
X0151606Y0107337D02*
X0127140Y0107337D01*
X0127140Y0106739D02*
X0151606Y0106739D01*
X0151606Y0106140D02*
X0127140Y0106140D01*
X0127140Y0105541D02*
X0151615Y0105541D01*
X0151862Y0104943D02*
X0127140Y0104943D01*
X0127140Y0104344D02*
X0152110Y0104344D01*
X0152358Y0103746D02*
X0127140Y0103746D01*
X0127140Y0103147D02*
X0152606Y0103147D01*
X0152854Y0102549D02*
X0127140Y0102549D01*
X0127140Y0101950D02*
X0153350Y0101950D01*
X0153949Y0101352D02*
X0127140Y0101352D01*
X0126553Y0100753D02*
X0154547Y0100753D01*
X0155146Y0100155D02*
X0125954Y0100155D01*
X0125356Y0099556D02*
X0156279Y0099556D01*
X0157724Y0098958D02*
X0124757Y0098958D01*
X0124159Y0098359D02*
X0158732Y0098359D01*
X0158980Y0097761D02*
X0123560Y0097761D01*
X0122962Y0097162D02*
X0159227Y0097162D01*
X0159475Y0096564D02*
X0122363Y0096564D01*
X0113817Y0096564D02*
X0110224Y0096564D01*
X0110224Y0097162D02*
X0113218Y0097162D01*
X0112620Y0097761D02*
X0110224Y0097761D01*
X0110224Y0098359D02*
X0112021Y0098359D01*
X0111423Y0098958D02*
X0110224Y0098958D01*
X0110142Y0099556D02*
X0110824Y0099556D01*
X0110226Y0100155D02*
X0109894Y0100155D01*
X0109040Y0101950D02*
X0108903Y0101950D01*
X0109040Y0102549D02*
X0108305Y0102549D01*
X0107706Y0103147D02*
X0109040Y0103147D01*
X0109040Y0103746D02*
X0106318Y0103746D01*
X0110224Y0095965D02*
X0159723Y0095965D01*
X0159971Y0095367D02*
X0110224Y0095367D01*
X0110224Y0094768D02*
X0160532Y0094768D01*
X0161131Y0094170D02*
X0110224Y0094170D01*
X0110224Y0093571D02*
X0161729Y0093571D01*
X0162328Y0092973D02*
X0110224Y0092973D01*
X0110224Y0092374D02*
X0163618Y0092374D01*
X0165063Y0091776D02*
X0110208Y0091776D01*
X0109960Y0091177D02*
X0165849Y0091177D01*
X0166097Y0090579D02*
X0109712Y0090579D01*
X0109465Y0089980D02*
X0166344Y0089980D01*
X0166592Y0089382D02*
X0109063Y0089382D01*
X0108465Y0088783D02*
X0166840Y0088783D01*
X0167116Y0088185D02*
X0107866Y0088185D01*
X0106704Y0087586D02*
X0167714Y0087586D01*
X0168313Y0086988D02*
X0105364Y0086988D01*
X0105540Y0086389D02*
X0168911Y0086389D01*
X0186941Y0098958D02*
X0200150Y0098958D01*
X0201158Y0098359D02*
X0187872Y0098359D01*
X0189317Y0097761D02*
X0201406Y0097761D01*
X0201654Y0097162D02*
X0190505Y0097162D01*
X0191103Y0096564D02*
X0201902Y0096564D01*
X0202150Y0095965D02*
X0191702Y0095965D01*
X0192300Y0095367D02*
X0202398Y0095367D01*
X0202959Y0094768D02*
X0192819Y0094768D01*
X0193067Y0094170D02*
X0203557Y0094170D01*
X0204156Y0093571D02*
X0193315Y0093571D01*
X0193563Y0092973D02*
X0204754Y0092973D01*
X0206045Y0092374D02*
X0193811Y0092374D01*
X0194058Y0091776D02*
X0207490Y0091776D01*
X0209439Y0091177D02*
X0195211Y0091177D01*
X0196656Y0090579D02*
X0210038Y0090579D01*
X0210636Y0089980D02*
X0197687Y0089980D01*
X0198285Y0089382D02*
X0211235Y0089382D01*
X0211833Y0088783D02*
X0198884Y0088783D01*
X0199482Y0088185D02*
X0212432Y0088185D01*
X0213030Y0087586D02*
X0199936Y0087586D01*
X0200184Y0086988D02*
X0212537Y0086988D01*
X0211941Y0086389D02*
X0200432Y0086389D01*
X0200680Y0085791D02*
X0211345Y0085791D01*
X0210749Y0085192D02*
X0200928Y0085192D01*
X0201154Y0084594D02*
X0210152Y0084594D01*
X0209556Y0083995D02*
X0202550Y0083995D01*
X0203995Y0083397D02*
X0208960Y0083397D01*
X0208364Y0082798D02*
X0204869Y0082798D01*
X0205468Y0082200D02*
X0207768Y0082200D01*
X0207171Y0081601D02*
X0206066Y0081601D01*
X0218208Y0071426D02*
X0231275Y0071426D01*
X0231523Y0070828D02*
X0217612Y0070828D01*
X0217016Y0070229D02*
X0231881Y0070229D01*
X0232480Y0069631D02*
X0216420Y0069631D01*
X0215824Y0069032D02*
X0233078Y0069032D01*
X0233677Y0068434D02*
X0215227Y0068434D01*
X0214631Y0067835D02*
X0234387Y0067835D01*
X0235318Y0067237D02*
X0214035Y0067237D01*
X0213439Y0066638D02*
X0235100Y0066638D01*
X0234976Y0066040D02*
X0212843Y0066040D01*
X0212246Y0065441D02*
X0241938Y0065441D01*
X0241938Y0065159D02*
X0234938Y0065159D01*
X0234938Y0065121D01*
X0235044Y0064452D01*
X0235253Y0063809D01*
X0235560Y0063205D01*
X0235958Y0062658D01*
X0236437Y0062179D01*
X0236984Y0061781D01*
X0237587Y0061474D01*
X0238231Y0061265D01*
X0238899Y0061159D01*
X0241938Y0061159D01*
X0241938Y0065159D01*
X0241938Y0064843D02*
X0242538Y0064843D01*
X0242538Y0065159D02*
X0242538Y0061159D01*
X0245576Y0061159D01*
X0246245Y0061265D01*
X0246888Y0061474D01*
X0247492Y0061781D01*
X0248039Y0062179D01*
X0248518Y0062658D01*
X0248916Y0063205D01*
X0249223Y0063809D01*
X0249432Y0064452D01*
X0249538Y0065121D01*
X0249538Y0065159D01*
X0242538Y0065159D01*
X0242538Y0065441D02*
X0268777Y0065441D01*
X0267740Y0064843D02*
X0249494Y0064843D01*
X0249364Y0064244D02*
X0266703Y0064244D01*
X0265800Y0063646D02*
X0249140Y0063646D01*
X0248801Y0063047D02*
X0265201Y0063047D01*
X0264603Y0062449D02*
X0248308Y0062449D01*
X0247586Y0061850D02*
X0264004Y0061850D01*
X0263472Y0061252D02*
X0246160Y0061252D01*
X0242538Y0061252D02*
X0241938Y0061252D01*
X0241938Y0061850D02*
X0242538Y0061850D01*
X0242538Y0062449D02*
X0241938Y0062449D01*
X0241938Y0063047D02*
X0242538Y0063047D01*
X0242538Y0063646D02*
X0241938Y0063646D01*
X0241938Y0064244D02*
X0242538Y0064244D01*
X0238316Y0061252D02*
X0208073Y0061252D01*
X0208669Y0061850D02*
X0236890Y0061850D01*
X0236167Y0062449D02*
X0209266Y0062449D01*
X0209862Y0063047D02*
X0235675Y0063047D01*
X0235336Y0063646D02*
X0210458Y0063646D01*
X0211054Y0064244D02*
X0235111Y0064244D01*
X0234982Y0064843D02*
X0211650Y0064843D01*
X0207477Y0060653D02*
X0263127Y0060653D01*
X0262781Y0060055D02*
X0206881Y0060055D01*
X0206285Y0059456D02*
X0262436Y0059456D01*
X0262090Y0058858D02*
X0205688Y0058858D01*
X0205092Y0058259D02*
X0261803Y0058259D01*
X0261643Y0057661D02*
X0204496Y0057661D01*
X0203900Y0057062D02*
X0261482Y0057062D01*
X0261322Y0056464D02*
X0203304Y0056464D01*
X0202708Y0055865D02*
X0261161Y0055865D01*
X0261001Y0055267D02*
X0202111Y0055267D01*
X0201515Y0054668D02*
X0260969Y0054668D01*
X0260969Y0054070D02*
X0200919Y0054070D01*
X0200323Y0053471D02*
X0260969Y0053471D01*
X0260969Y0052873D02*
X0199727Y0052873D01*
X0199130Y0052274D02*
X0260969Y0052274D01*
X0260982Y0051675D02*
X0198534Y0051675D01*
X0197938Y0051077D02*
X0261142Y0051077D01*
X0261303Y0050478D02*
X0197342Y0050478D01*
X0196746Y0049880D02*
X0261463Y0049880D01*
X0261623Y0049281D02*
X0196150Y0049281D01*
X0195553Y0048683D02*
X0261784Y0048683D01*
X0262049Y0048084D02*
X0194957Y0048084D01*
X0194361Y0047486D02*
X0262394Y0047486D01*
X0262740Y0046887D02*
X0193765Y0046887D01*
X0193169Y0046289D02*
X0263086Y0046289D01*
X0263431Y0045690D02*
X0192572Y0045690D01*
X0191976Y0045092D02*
X0263933Y0045092D01*
X0264531Y0044493D02*
X0191380Y0044493D01*
X0190784Y0043895D02*
X0265130Y0043895D01*
X0265728Y0043296D02*
X0190188Y0043296D01*
X0189592Y0042698D02*
X0266580Y0042698D01*
X0267617Y0042099D02*
X0234636Y0042099D01*
X0236081Y0041501D02*
X0268653Y0041501D01*
X0270553Y0040902D02*
X0237381Y0040902D01*
X0237980Y0040304D02*
X0271521Y0040304D01*
X0270924Y0039705D02*
X0238578Y0039705D01*
X0239177Y0039107D02*
X0270326Y0039107D01*
X0269728Y0038508D02*
X0239775Y0038508D01*
X0240028Y0037910D02*
X0269130Y0037910D01*
X0268514Y0037311D02*
X0240276Y0037311D01*
X0240523Y0036713D02*
X0268098Y0036713D01*
X0267851Y0036114D02*
X0240771Y0036114D01*
X0241019Y0035516D02*
X0267597Y0035516D01*
X0267339Y0034917D02*
X0241138Y0034917D01*
X0241138Y0034319D02*
X0267241Y0034319D01*
X0267241Y0033720D02*
X0241138Y0033720D01*
X0241138Y0033122D02*
X0267237Y0033122D01*
X0267229Y0032523D02*
X0241138Y0032523D01*
X0241138Y0031925D02*
X0267220Y0031925D01*
X0267212Y0031326D02*
X0241138Y0031326D01*
X0241138Y0030728D02*
X0267203Y0030728D01*
X0267195Y0030129D02*
X0241138Y0030129D01*
X0241138Y0029531D02*
X0267186Y0029531D01*
X0267178Y0028932D02*
X0241138Y0028932D01*
X0241138Y0028334D02*
X0267169Y0028334D01*
X0267161Y0027735D02*
X0241138Y0027735D01*
X0241138Y0027137D02*
X0267152Y0027137D01*
X0267144Y0026538D02*
X0241138Y0026538D01*
X0241138Y0025939D02*
X0267135Y0025939D01*
X0267127Y0025341D02*
X0240994Y0025341D01*
X0240746Y0024742D02*
X0267118Y0024742D01*
X0267110Y0024144D02*
X0240498Y0024144D01*
X0240250Y0023545D02*
X0267101Y0023545D01*
X0267093Y0022947D02*
X0240002Y0022947D01*
X0239714Y0022348D02*
X0267084Y0022348D01*
X0267076Y0021750D02*
X0239115Y0021750D01*
X0238517Y0021151D02*
X0267067Y0021151D01*
X0267059Y0020553D02*
X0237918Y0020553D01*
X0237320Y0019954D02*
X0267050Y0019954D01*
X0267042Y0019356D02*
X0235931Y0019356D01*
X0228395Y0041501D02*
X0226081Y0041501D01*
X0224636Y0042099D02*
X0229840Y0042099D01*
X0219840Y0042099D02*
X0214636Y0042099D01*
X0216081Y0041501D02*
X0218395Y0041501D01*
X0209840Y0042099D02*
X0204636Y0042099D01*
X0206081Y0041501D02*
X0208395Y0041501D01*
X0199840Y0042099D02*
X0194636Y0042099D01*
X0196081Y0041501D02*
X0198395Y0041501D01*
X0189840Y0042099D02*
X0188995Y0042099D01*
X0178555Y0052873D02*
X0150895Y0052873D01*
X0150895Y0053471D02*
X0179151Y0053471D01*
X0179747Y0054070D02*
X0150895Y0054070D01*
X0150353Y0054668D02*
X0180343Y0054668D01*
X0180939Y0055267D02*
X0149754Y0055267D01*
X0149156Y0055865D02*
X0181536Y0055865D01*
X0182132Y0056464D02*
X0148557Y0056464D01*
X0147959Y0057062D02*
X0182728Y0057062D01*
X0183324Y0057661D02*
X0147360Y0057661D01*
X0146762Y0058259D02*
X0183920Y0058259D01*
X0177959Y0052274D02*
X0150895Y0052274D01*
X0150895Y0051675D02*
X0177362Y0051675D01*
X0176766Y0051077D02*
X0150895Y0051077D01*
X0150895Y0050478D02*
X0176170Y0050478D01*
X0175574Y0049880D02*
X0150895Y0049880D01*
X0150895Y0049281D02*
X0174978Y0049281D01*
X0174381Y0048683D02*
X0150895Y0048683D01*
X0150895Y0048084D02*
X0173785Y0048084D01*
X0173189Y0047486D02*
X0150895Y0047486D01*
X0150699Y0046887D02*
X0172593Y0046887D01*
X0171997Y0046289D02*
X0150100Y0046289D01*
X0149502Y0045690D02*
X0171400Y0045690D01*
X0170804Y0045092D02*
X0148903Y0045092D01*
X0148305Y0044493D02*
X0170208Y0044493D01*
X0169091Y0043895D02*
X0147706Y0043895D01*
X0147108Y0043296D02*
X0167646Y0043296D01*
X0166201Y0042698D02*
X0146509Y0042698D01*
X0146081Y0041501D02*
X0148395Y0041501D01*
X0149840Y0042099D02*
X0144636Y0042099D01*
X0154636Y0042099D02*
X0159840Y0042099D01*
X0158395Y0041501D02*
X0156081Y0041501D01*
X0164636Y0042099D02*
X0165598Y0042099D01*
X0122538Y0037311D02*
X0121938Y0037311D01*
X0121938Y0036713D02*
X0122538Y0036713D01*
X0122538Y0036114D02*
X0121938Y0036114D01*
X0121938Y0035516D02*
X0122538Y0035516D01*
X0122538Y0034917D02*
X0121938Y0034917D01*
X0121938Y0034319D02*
X0122538Y0034319D01*
X0122538Y0033720D02*
X0121938Y0033720D01*
X0121938Y0033122D02*
X0122538Y0033122D01*
X0122538Y0032523D02*
X0121938Y0032523D01*
X0121938Y0031925D02*
X0122538Y0031925D01*
X0122538Y0031326D02*
X0121938Y0031326D01*
X0120447Y0023545D02*
X0120250Y0023545D01*
X0186693Y0099556D02*
X0198706Y0099556D01*
X0197572Y0100155D02*
X0186446Y0100155D01*
X0186198Y0100753D02*
X0196974Y0100753D01*
X0196375Y0101352D02*
X0185950Y0101352D01*
X0185702Y0101950D02*
X0195777Y0101950D01*
X0195280Y0102549D02*
X0185118Y0102549D01*
X0184520Y0103147D02*
X0195033Y0103147D01*
X0194785Y0103746D02*
X0183921Y0103746D01*
X0183323Y0104344D02*
X0194537Y0104344D01*
X0194289Y0104943D02*
X0181978Y0104943D01*
X0180533Y0105541D02*
X0194041Y0105541D01*
X0192811Y0106140D02*
X0179824Y0106140D01*
X0179576Y0106739D02*
X0191366Y0106739D01*
X0190390Y0107337D02*
X0179328Y0107337D01*
X0179081Y0107936D02*
X0189791Y0107936D01*
X0189193Y0108534D02*
X0178833Y0108534D01*
X0178535Y0109133D02*
X0188594Y0109133D01*
X0188163Y0109731D02*
X0177936Y0109731D01*
X0177338Y0110330D02*
X0187915Y0110330D01*
X0187668Y0110928D02*
X0176739Y0110928D01*
X0176083Y0111527D02*
X0187420Y0111527D01*
X0187172Y0112125D02*
X0174638Y0112125D01*
X0173194Y0112724D02*
X0186962Y0112724D01*
X0185472Y0113322D02*
X0172707Y0113322D01*
X0172459Y0113921D02*
X0184027Y0113921D01*
X0183208Y0114519D02*
X0172211Y0114519D01*
X0171964Y0115118D02*
X0182609Y0115118D01*
X0182011Y0115716D02*
X0171716Y0115716D01*
X0171352Y0116315D02*
X0181412Y0116315D01*
X0181046Y0116913D02*
X0170754Y0116913D01*
X0170155Y0117512D02*
X0180798Y0117512D01*
X0180551Y0118110D02*
X0169557Y0118110D01*
X0168744Y0118709D02*
X0180303Y0118709D01*
X0180055Y0119307D02*
X0167299Y0119307D01*
X0161096Y0119307D02*
X0161073Y0119307D01*
X0160866Y0119906D02*
X0179578Y0119906D01*
X0178133Y0120504D02*
X0160541Y0120504D01*
X0159778Y0120504D02*
X0158930Y0120504D01*
X0159180Y0119906D02*
X0158331Y0119906D01*
X0158581Y0119307D02*
X0157733Y0119307D01*
X0157983Y0118709D02*
X0157134Y0118709D01*
X0157384Y0118110D02*
X0156536Y0118110D01*
X0156786Y0117512D02*
X0155937Y0117512D01*
X0156187Y0116913D02*
X0155339Y0116913D01*
X0154745Y0116315D02*
X0154740Y0116315D01*
X0154990Y0115716D02*
X0154142Y0115716D01*
X0154392Y0115118D02*
X0153543Y0115118D01*
X0153793Y0114519D02*
X0152945Y0114519D01*
X0153195Y0113921D02*
X0152346Y0113921D01*
X0152596Y0113322D02*
X0151748Y0113322D01*
X0151998Y0112724D02*
X0151149Y0112724D01*
X0151399Y0112125D02*
X0150551Y0112125D01*
X0159528Y0121103D02*
X0176688Y0121103D01*
X0176026Y0121701D02*
X0159340Y0121701D01*
X0158179Y0122300D02*
X0175427Y0122300D01*
X0174829Y0122898D02*
X0158427Y0122898D01*
X0158675Y0123497D02*
X0174230Y0123497D01*
X0173929Y0124095D02*
X0158727Y0124095D01*
X0158727Y0124694D02*
X0173681Y0124694D01*
X0173433Y0125292D02*
X0158727Y0125292D01*
X0158727Y0125891D02*
X0173186Y0125891D01*
X0172938Y0126489D02*
X0158727Y0126489D01*
X0158721Y0127088D02*
X0172239Y0127088D01*
X0170794Y0127686D02*
X0158473Y0127686D01*
X0158225Y0128285D02*
X0169442Y0128285D01*
X0168844Y0128883D02*
X0157977Y0128883D01*
X0157729Y0129482D02*
X0168245Y0129482D01*
X0167646Y0130080D02*
X0157481Y0130080D01*
X0156988Y0130679D02*
X0167060Y0130679D01*
X0166812Y0131277D02*
X0156390Y0131277D01*
X0155791Y0131876D02*
X0166564Y0131876D01*
X0166316Y0132475D02*
X0155193Y0132475D01*
X0154066Y0133073D02*
X0166068Y0133073D01*
X0165821Y0133672D02*
X0152621Y0133672D01*
X0151604Y0134270D02*
X0165748Y0134270D01*
X0165748Y0134869D02*
X0151356Y0134869D01*
X0151108Y0135467D02*
X0165748Y0135467D01*
X0165748Y0136066D02*
X0150860Y0136066D01*
X0150612Y0136664D02*
X0165748Y0136664D01*
X0165748Y0137263D02*
X0150364Y0137263D01*
X0149806Y0137861D02*
X0165983Y0137861D01*
X0166231Y0138460D02*
X0149207Y0138460D01*
X0148609Y0139058D02*
X0165413Y0139058D01*
X0164789Y0139657D02*
X0148010Y0139657D01*
X0146727Y0140255D02*
X0164050Y0140255D01*
X0164539Y0140255D02*
X0165387Y0140255D01*
X0165137Y0140854D02*
X0165986Y0140854D01*
X0165736Y0141452D02*
X0166584Y0141452D01*
X0166334Y0142051D02*
X0167183Y0142051D01*
X0166933Y0142649D02*
X0167781Y0142649D01*
X0167531Y0143248D02*
X0168380Y0143248D01*
X0168130Y0143846D02*
X0168978Y0143846D01*
X0169041Y0144445D02*
X0168728Y0144445D01*
X0169327Y0145043D02*
X0170175Y0145043D01*
X0169925Y0145642D02*
X0170774Y0145642D01*
X0170524Y0146240D02*
X0171372Y0146240D01*
X0171122Y0146839D02*
X0171971Y0146839D01*
X0171721Y0147437D02*
X0172569Y0147437D01*
X0172319Y0148036D02*
X0173168Y0148036D01*
X0172918Y0148634D02*
X0173766Y0148634D01*
X0173516Y0149233D02*
X0231543Y0149233D01*
X0231543Y0149831D02*
X0173695Y0149831D01*
X0172538Y0150430D02*
X0231543Y0150430D01*
X0231543Y0151028D02*
X0172505Y0151028D01*
X0172753Y0151627D02*
X0231543Y0151627D01*
X0231543Y0152225D02*
X0172869Y0152225D01*
X0172869Y0152824D02*
X0231543Y0152824D01*
X0231543Y0153422D02*
X0172869Y0153422D01*
X0172869Y0154021D02*
X0231543Y0154021D01*
X0231543Y0154619D02*
X0181694Y0154619D01*
X0181382Y0154490D02*
X0184506Y0155784D01*
X0186897Y0158175D01*
X0188191Y0161299D01*
X0188191Y0164681D01*
X0186897Y0167805D01*
X0184506Y0170196D01*
X0181382Y0171490D01*
X0178000Y0171490D01*
X0174876Y0170196D01*
X0172485Y0167805D01*
X0171191Y0164681D01*
X0171191Y0161299D01*
X0172485Y0158175D01*
X0174876Y0155784D01*
X0178000Y0154490D01*
X0181382Y0154490D01*
X0183139Y0155218D02*
X0231543Y0155218D01*
X0231624Y0155816D02*
X0184538Y0155816D01*
X0185137Y0156415D02*
X0231872Y0156415D01*
X0232120Y0157013D02*
X0185735Y0157013D01*
X0186334Y0157612D02*
X0232368Y0157612D01*
X0232863Y0158210D02*
X0186912Y0158210D01*
X0187160Y0158809D02*
X0233461Y0158809D01*
X0234060Y0159408D02*
X0187408Y0159408D01*
X0187656Y0160006D02*
X0235447Y0160006D01*
X0238951Y0170181D02*
X0184521Y0170181D01*
X0185120Y0169582D02*
X0277511Y0169582D01*
X0277510Y0168984D02*
X0185718Y0168984D01*
X0186317Y0168385D02*
X0277510Y0168385D01*
X0277510Y0167787D02*
X0186905Y0167787D01*
X0187153Y0167188D02*
X0277509Y0167188D01*
X0277509Y0166590D02*
X0187401Y0166590D01*
X0187648Y0165991D02*
X0277508Y0165991D01*
X0277508Y0165393D02*
X0187896Y0165393D01*
X0188144Y0164794D02*
X0277508Y0164794D01*
X0277507Y0164196D02*
X0188191Y0164196D01*
X0188191Y0163597D02*
X0277507Y0163597D01*
X0277506Y0162999D02*
X0188191Y0162999D01*
X0188191Y0162400D02*
X0277506Y0162400D01*
X0277506Y0161802D02*
X0188191Y0161802D01*
X0188151Y0161203D02*
X0277505Y0161203D01*
X0277505Y0160605D02*
X0187903Y0160605D01*
X0183098Y0170779D02*
X0237506Y0170779D01*
X0236061Y0171378D02*
X0181653Y0171378D01*
X0177729Y0171378D02*
X0173230Y0171378D01*
X0173462Y0171610D02*
X0174756Y0174734D01*
X0174756Y0178116D01*
X0173462Y0181240D01*
X0171071Y0183631D01*
X0167947Y0184925D01*
X0164565Y0184925D01*
X0161441Y0183631D01*
X0159050Y0181240D01*
X0157756Y0178116D01*
X0157756Y0174734D01*
X0159050Y0171610D01*
X0161441Y0169219D01*
X0164565Y0167925D01*
X0167947Y0167925D01*
X0171071Y0169219D01*
X0173462Y0171610D01*
X0173614Y0171976D02*
X0235267Y0171976D01*
X0234668Y0172575D02*
X0173862Y0172575D01*
X0174110Y0173173D02*
X0234070Y0173173D01*
X0233471Y0173772D02*
X0174357Y0173772D01*
X0174605Y0174370D02*
X0232954Y0174370D01*
X0232707Y0174969D02*
X0174756Y0174969D01*
X0174756Y0175567D02*
X0232459Y0175567D01*
X0232211Y0176166D02*
X0174756Y0176166D01*
X0174756Y0176764D02*
X0231963Y0176764D01*
X0231715Y0177363D02*
X0174756Y0177363D01*
X0174756Y0177961D02*
X0231543Y0177961D01*
X0231543Y0178560D02*
X0193594Y0178560D01*
X0192186Y0177977D02*
X0195182Y0179218D01*
X0197474Y0181510D01*
X0198715Y0184506D01*
X0198715Y0187748D01*
X0197474Y0190743D01*
X0195182Y0193036D01*
X0192186Y0194277D01*
X0188944Y0194277D01*
X0185948Y0193036D01*
X0183656Y0190743D01*
X0182869Y0188843D01*
X0182828Y0188884D01*
X0182246Y0189273D01*
X0181600Y0189540D01*
X0180915Y0189677D01*
X0180865Y0189677D01*
X0180865Y0186427D01*
X0180265Y0186427D01*
X0180265Y0189677D01*
X0180215Y0189677D01*
X0179529Y0189540D01*
X0178883Y0189273D01*
X0178302Y0188884D01*
X0177807Y0188390D01*
X0177419Y0187808D01*
X0177151Y0187162D01*
X0177015Y0186476D01*
X0177015Y0186427D01*
X0180265Y0186427D01*
X0180265Y0185827D01*
X0177015Y0185827D01*
X0177015Y0185777D01*
X0177151Y0185091D01*
X0177419Y0184445D01*
X0177807Y0183864D01*
X0178302Y0183369D01*
X0178883Y0182981D01*
X0179529Y0182713D01*
X0180215Y0182577D01*
X0180265Y0182577D01*
X0180265Y0185827D01*
X0180865Y0185827D01*
X0180865Y0182577D01*
X0180915Y0182577D01*
X0181600Y0182713D01*
X0182246Y0182981D01*
X0182828Y0183369D01*
X0182869Y0183410D01*
X0183656Y0181510D01*
X0185948Y0179218D01*
X0188944Y0177977D01*
X0192186Y0177977D01*
X0195039Y0179158D02*
X0231543Y0179158D01*
X0231543Y0179757D02*
X0195721Y0179757D01*
X0196319Y0180355D02*
X0231543Y0180355D01*
X0231543Y0180954D02*
X0196918Y0180954D01*
X0197492Y0181552D02*
X0231543Y0181552D01*
X0231765Y0182151D02*
X0197740Y0182151D01*
X0197987Y0182749D02*
X0232012Y0182749D01*
X0232260Y0183348D02*
X0198235Y0183348D01*
X0198483Y0183946D02*
X0232508Y0183946D01*
X0232756Y0184545D02*
X0198715Y0184545D01*
X0198715Y0185144D02*
X0233004Y0185144D01*
X0233591Y0185742D02*
X0198715Y0185742D01*
X0198715Y0186341D02*
X0234190Y0186341D01*
X0234788Y0186939D02*
X0198715Y0186939D01*
X0198715Y0187538D02*
X0235387Y0187538D01*
X0236350Y0188136D02*
X0198554Y0188136D01*
X0198306Y0188735D02*
X0237795Y0188735D01*
X0239240Y0189333D02*
X0198058Y0189333D01*
X0197810Y0189932D02*
X0267380Y0189932D01*
X0267378Y0190530D02*
X0197563Y0190530D01*
X0197089Y0191129D02*
X0267376Y0191129D01*
X0267374Y0191727D02*
X0196490Y0191727D01*
X0195892Y0192326D02*
X0267372Y0192326D01*
X0267369Y0192924D02*
X0195293Y0192924D01*
X0194007Y0193523D02*
X0267367Y0193523D01*
X0267365Y0194121D02*
X0192562Y0194121D01*
X0188568Y0194121D02*
X0184878Y0194121D01*
X0184630Y0193523D02*
X0187123Y0193523D01*
X0185836Y0192924D02*
X0184112Y0192924D01*
X0184574Y0193386D02*
X0182281Y0191093D01*
X0179286Y0189852D01*
X0176043Y0189852D01*
X0173048Y0191093D01*
X0170755Y0193386D01*
X0169515Y0196381D01*
X0169515Y0199624D01*
X0170755Y0202619D01*
X0173048Y0204912D01*
X0176043Y0206152D01*
X0179286Y0206152D01*
X0181186Y0205365D01*
X0181186Y0205423D01*
X0181322Y0206109D01*
X0181590Y0206755D01*
X0181978Y0207336D01*
X0182013Y0207372D01*
X0184311Y0205073D01*
X0184736Y0205498D01*
X0187034Y0207796D01*
X0186999Y0207831D01*
X0186417Y0208219D01*
X0185771Y0208487D01*
X0185085Y0208623D01*
X0184386Y0208623D01*
X0183700Y0208487D01*
X0183054Y0208219D01*
X0182473Y0207831D01*
X0182438Y0207796D01*
X0184736Y0205498D01*
X0185160Y0205073D01*
X0187458Y0202775D01*
X0187493Y0202810D01*
X0187882Y0203392D01*
X0188149Y0204038D01*
X0188286Y0204724D01*
X0188286Y0205423D01*
X0188149Y0206109D01*
X0187882Y0206755D01*
X0187493Y0207336D01*
X0187458Y0207372D01*
X0185160Y0205073D01*
X0184736Y0204649D01*
X0187034Y0202351D01*
X0186999Y0202316D01*
X0186417Y0201928D01*
X0185771Y0201660D01*
X0185085Y0201523D01*
X0185028Y0201523D01*
X0185815Y0199624D01*
X0185815Y0196381D01*
X0184574Y0193386D01*
X0185238Y0192326D02*
X0183514Y0192326D01*
X0182915Y0191727D02*
X0184639Y0191727D01*
X0184041Y0191129D02*
X0182317Y0191129D01*
X0183567Y0190530D02*
X0180922Y0190530D01*
X0180865Y0189333D02*
X0180265Y0189333D01*
X0180265Y0188735D02*
X0180865Y0188735D01*
X0180865Y0188136D02*
X0180265Y0188136D01*
X0180265Y0187538D02*
X0180865Y0187538D01*
X0180865Y0186939D02*
X0180265Y0186939D01*
X0180265Y0186341D02*
X0143467Y0186341D01*
X0143715Y0185742D02*
X0177022Y0185742D01*
X0177141Y0185144D02*
X0143963Y0185144D01*
X0144211Y0184545D02*
X0163648Y0184545D01*
X0162203Y0183946D02*
X0144459Y0183946D01*
X0145118Y0183348D02*
X0161158Y0183348D01*
X0160560Y0182749D02*
X0146563Y0182749D01*
X0147943Y0182151D02*
X0159961Y0182151D01*
X0159363Y0181552D02*
X0148541Y0181552D01*
X0149140Y0180954D02*
X0158932Y0180954D01*
X0158684Y0180355D02*
X0149738Y0180355D01*
X0150336Y0179757D02*
X0158436Y0179757D01*
X0158188Y0179158D02*
X0150584Y0179158D01*
X0150832Y0178560D02*
X0157940Y0178560D01*
X0157756Y0177961D02*
X0151080Y0177961D01*
X0151328Y0177363D02*
X0157756Y0177363D01*
X0157756Y0176764D02*
X0151576Y0176764D01*
X0152457Y0176166D02*
X0157756Y0176166D01*
X0157756Y0175567D02*
X0153902Y0175567D01*
X0155125Y0174969D02*
X0157756Y0174969D01*
X0157907Y0174370D02*
X0155723Y0174370D01*
X0156322Y0173772D02*
X0158155Y0173772D01*
X0158403Y0173173D02*
X0156920Y0173173D01*
X0157453Y0172575D02*
X0158651Y0172575D01*
X0158899Y0171976D02*
X0157701Y0171976D01*
X0157949Y0171378D02*
X0159283Y0171378D01*
X0159881Y0170779D02*
X0158197Y0170779D01*
X0158445Y0170181D02*
X0160480Y0170181D01*
X0161078Y0169582D02*
X0158693Y0169582D01*
X0159796Y0168984D02*
X0162010Y0168984D01*
X0161241Y0168385D02*
X0163455Y0168385D01*
X0162307Y0167787D02*
X0172478Y0167787D01*
X0172230Y0167188D02*
X0162905Y0167188D01*
X0163504Y0166590D02*
X0171982Y0166590D01*
X0171734Y0165991D02*
X0164102Y0165991D01*
X0164570Y0165393D02*
X0171486Y0165393D01*
X0171238Y0164794D02*
X0164818Y0164794D01*
X0165066Y0164196D02*
X0171191Y0164196D01*
X0171191Y0163597D02*
X0165314Y0163597D01*
X0165562Y0162999D02*
X0171191Y0162999D01*
X0171191Y0162400D02*
X0165798Y0162400D01*
X0167135Y0161802D02*
X0171191Y0161802D01*
X0171231Y0161203D02*
X0168580Y0161203D01*
X0169489Y0160605D02*
X0171479Y0160605D01*
X0171727Y0160006D02*
X0170088Y0160006D01*
X0170686Y0159408D02*
X0171975Y0159408D01*
X0172223Y0158809D02*
X0171285Y0158809D01*
X0171687Y0158210D02*
X0172471Y0158210D01*
X0171935Y0157612D02*
X0173049Y0157612D01*
X0173647Y0157013D02*
X0172183Y0157013D01*
X0172431Y0156415D02*
X0174246Y0156415D01*
X0174844Y0155816D02*
X0172679Y0155816D01*
X0172869Y0155218D02*
X0176243Y0155218D01*
X0177688Y0154619D02*
X0172869Y0154619D01*
X0174782Y0148634D02*
X0231543Y0148634D01*
X0231543Y0148036D02*
X0180369Y0148036D01*
X0181814Y0147437D02*
X0231543Y0147437D01*
X0231543Y0146839D02*
X0183255Y0146839D01*
X0183853Y0146240D02*
X0231543Y0146240D01*
X0231598Y0145642D02*
X0184452Y0145642D01*
X0185050Y0145043D02*
X0231846Y0145043D01*
X0232093Y0144445D02*
X0185649Y0144445D01*
X0185922Y0143846D02*
X0232341Y0143846D01*
X0232798Y0143248D02*
X0186170Y0143248D01*
X0186417Y0142649D02*
X0233397Y0142649D01*
X0233996Y0142051D02*
X0186665Y0142051D01*
X0186913Y0141452D02*
X0234810Y0141452D01*
X0234562Y0140854D02*
X0187708Y0140854D01*
X0189153Y0140255D02*
X0234314Y0140255D01*
X0234066Y0139657D02*
X0190437Y0139657D01*
X0191035Y0139058D02*
X0234063Y0139058D01*
X0234063Y0138460D02*
X0191634Y0138460D01*
X0192232Y0137861D02*
X0234063Y0137861D01*
X0234063Y0137263D02*
X0192791Y0137263D01*
X0193039Y0136664D02*
X0234063Y0136664D01*
X0234203Y0136066D02*
X0193287Y0136066D01*
X0193535Y0135467D02*
X0234451Y0135467D01*
X0234699Y0134869D02*
X0193782Y0134869D01*
X0194030Y0134270D02*
X0234947Y0134270D01*
X0235195Y0133672D02*
X0195047Y0133672D01*
X0196492Y0133073D02*
X0235640Y0133073D01*
X0235233Y0132475D02*
X0197619Y0132475D01*
X0198218Y0131876D02*
X0234986Y0131876D01*
X0234738Y0131277D02*
X0198816Y0131277D01*
X0199415Y0130679D02*
X0234490Y0130679D01*
X0234242Y0130080D02*
X0199908Y0130080D01*
X0200156Y0129482D02*
X0234063Y0129482D01*
X0234063Y0128883D02*
X0200404Y0128883D01*
X0200652Y0128285D02*
X0234063Y0128285D01*
X0234063Y0127686D02*
X0200899Y0127686D01*
X0201147Y0127088D02*
X0234063Y0127088D01*
X0234063Y0126489D02*
X0202386Y0126489D01*
X0203831Y0125891D02*
X0234276Y0125891D01*
X0234524Y0125292D02*
X0204801Y0125292D01*
X0205400Y0124694D02*
X0234771Y0124694D01*
X0235019Y0124095D02*
X0205998Y0124095D01*
X0206597Y0123497D02*
X0235267Y0123497D01*
X0234091Y0122898D02*
X0207025Y0122898D01*
X0207273Y0122300D02*
X0233492Y0122300D01*
X0232893Y0121701D02*
X0207521Y0121701D01*
X0207769Y0121103D02*
X0232295Y0121103D01*
X0231696Y0120504D02*
X0208017Y0120504D01*
X0208225Y0119906D02*
X0231446Y0119906D01*
X0231199Y0119307D02*
X0209726Y0119307D01*
X0211171Y0118709D02*
X0230951Y0118709D01*
X0230703Y0118110D02*
X0211983Y0118110D01*
X0212582Y0117512D02*
X0230455Y0117512D01*
X0230338Y0116913D02*
X0213180Y0116913D01*
X0213779Y0116315D02*
X0230338Y0116315D01*
X0230338Y0115716D02*
X0214142Y0115716D01*
X0214390Y0115118D02*
X0230338Y0115118D01*
X0230338Y0114519D02*
X0214638Y0114519D01*
X0214886Y0113921D02*
X0226178Y0113921D01*
X0224734Y0113322D02*
X0215134Y0113322D01*
X0215620Y0112724D02*
X0223570Y0112724D01*
X0222972Y0112125D02*
X0217065Y0112125D01*
X0218510Y0111527D02*
X0222373Y0111527D01*
X0221775Y0110928D02*
X0219165Y0110928D01*
X0219764Y0110330D02*
X0221176Y0110330D01*
X0220898Y0109731D02*
X0220362Y0109731D01*
X0249158Y0123497D02*
X0277480Y0123497D01*
X0277480Y0124095D02*
X0249406Y0124095D01*
X0249654Y0124694D02*
X0277481Y0124694D01*
X0277481Y0125292D02*
X0249901Y0125292D01*
X0250149Y0125891D02*
X0277482Y0125891D01*
X0277482Y0126489D02*
X0250363Y0126489D01*
X0250363Y0127088D02*
X0277482Y0127088D01*
X0277483Y0127686D02*
X0250363Y0127686D01*
X0250363Y0128285D02*
X0277483Y0128285D01*
X0277484Y0128883D02*
X0250363Y0128883D01*
X0250363Y0129482D02*
X0277484Y0129482D01*
X0277484Y0130080D02*
X0275987Y0130080D01*
X0271380Y0130080D02*
X0250183Y0130080D01*
X0249935Y0130679D02*
X0269147Y0130679D01*
X0267855Y0131277D02*
X0249687Y0131277D01*
X0249440Y0131876D02*
X0266818Y0131876D01*
X0265782Y0132475D02*
X0249192Y0132475D01*
X0248785Y0133073D02*
X0265153Y0133073D01*
X0264554Y0133672D02*
X0249230Y0133672D01*
X0249478Y0134270D02*
X0263956Y0134270D01*
X0263357Y0134869D02*
X0249726Y0134869D01*
X0249974Y0135467D02*
X0262984Y0135467D01*
X0262638Y0136066D02*
X0250222Y0136066D01*
X0250363Y0136664D02*
X0262293Y0136664D01*
X0261947Y0137263D02*
X0250363Y0137263D01*
X0250363Y0137861D02*
X0261602Y0137861D01*
X0261431Y0138460D02*
X0250363Y0138460D01*
X0250363Y0139058D02*
X0261270Y0139058D01*
X0261110Y0139657D02*
X0250359Y0139657D01*
X0250111Y0140255D02*
X0260950Y0140255D01*
X0260789Y0140854D02*
X0249863Y0140854D01*
X0249615Y0141452D02*
X0260697Y0141452D01*
X0260697Y0142051D02*
X0249367Y0142051D01*
X0249116Y0142649D02*
X0260697Y0142649D01*
X0260697Y0143248D02*
X0249588Y0143248D01*
X0250045Y0143846D02*
X0260697Y0143846D01*
X0260697Y0144445D02*
X0250293Y0144445D01*
X0250541Y0145043D02*
X0260811Y0145043D01*
X0260971Y0145642D02*
X0250789Y0145642D01*
X0250843Y0146240D02*
X0255816Y0146240D01*
X0255546Y0146378D02*
X0256255Y0146017D01*
X0257011Y0145771D01*
X0257796Y0145647D01*
X0257893Y0145647D01*
X0257893Y0150397D01*
X0253143Y0150397D01*
X0253143Y0150299D01*
X0253268Y0149514D01*
X0253513Y0148758D01*
X0253874Y0148050D01*
X0254341Y0147407D01*
X0254903Y0146845D01*
X0255546Y0146378D01*
X0254912Y0146839D02*
X0250843Y0146839D01*
X0250843Y0147437D02*
X0254319Y0147437D01*
X0253884Y0148036D02*
X0250843Y0148036D01*
X0250843Y0148634D02*
X0253576Y0148634D01*
X0253359Y0149233D02*
X0250843Y0149233D01*
X0250843Y0149831D02*
X0253217Y0149831D01*
X0253143Y0150997D02*
X0257893Y0150997D01*
X0257893Y0150397D01*
X0258493Y0150397D01*
X0258493Y0150997D01*
X0257893Y0150997D01*
X0257893Y0155747D01*
X0257796Y0155747D01*
X0257011Y0155623D01*
X0256255Y0155377D01*
X0255546Y0155016D01*
X0254903Y0154549D01*
X0254341Y0153987D01*
X0253874Y0153344D01*
X0253513Y0152635D01*
X0253268Y0151879D01*
X0253143Y0151094D01*
X0253143Y0150997D01*
X0253143Y0151028D02*
X0250843Y0151028D01*
X0250843Y0150430D02*
X0257893Y0150430D01*
X0257893Y0151028D02*
X0258493Y0151028D01*
X0258493Y0150997D02*
X0258493Y0155747D01*
X0258591Y0155747D01*
X0259376Y0155623D01*
X0260132Y0155377D01*
X0260840Y0155016D01*
X0261483Y0154549D01*
X0262045Y0153987D01*
X0262512Y0153344D01*
X0262873Y0152635D01*
X0263119Y0151879D01*
X0263243Y0151094D01*
X0263243Y0150997D01*
X0258493Y0150997D01*
X0258493Y0150430D02*
X0263031Y0150430D01*
X0263243Y0151028D02*
X0263438Y0151028D01*
X0263159Y0151627D02*
X0264037Y0151627D01*
X0264635Y0152225D02*
X0263006Y0152225D01*
X0262777Y0152824D02*
X0265234Y0152824D01*
X0265922Y0153422D02*
X0262455Y0153422D01*
X0262011Y0154021D02*
X0266959Y0154021D01*
X0267995Y0154619D02*
X0261386Y0154619D01*
X0260444Y0155218D02*
X0269448Y0155218D01*
X0271682Y0155816D02*
X0250762Y0155816D01*
X0250843Y0155218D02*
X0255943Y0155218D01*
X0255000Y0154619D02*
X0250843Y0154619D01*
X0250843Y0154021D02*
X0254375Y0154021D01*
X0253931Y0153422D02*
X0250843Y0153422D01*
X0250843Y0152824D02*
X0253609Y0152824D01*
X0253380Y0152225D02*
X0250843Y0152225D01*
X0250843Y0151627D02*
X0253228Y0151627D01*
X0257893Y0151627D02*
X0258493Y0151627D01*
X0258493Y0152225D02*
X0257893Y0152225D01*
X0257893Y0152824D02*
X0258493Y0152824D01*
X0258493Y0153422D02*
X0257893Y0153422D01*
X0257893Y0154021D02*
X0258493Y0154021D01*
X0258493Y0154619D02*
X0257893Y0154619D01*
X0257893Y0155218D02*
X0258493Y0155218D01*
X0258493Y0149831D02*
X0257893Y0149831D01*
X0257893Y0149233D02*
X0258493Y0149233D01*
X0258493Y0148634D02*
X0257893Y0148634D01*
X0257893Y0148036D02*
X0258493Y0148036D01*
X0258493Y0147437D02*
X0257893Y0147437D01*
X0257893Y0146839D02*
X0258493Y0146839D01*
X0258493Y0146240D02*
X0257893Y0146240D01*
X0260570Y0146240D02*
X0261132Y0146240D01*
X0250514Y0156415D02*
X0277502Y0156415D01*
X0277502Y0157013D02*
X0250266Y0157013D01*
X0250018Y0157612D02*
X0277503Y0157612D01*
X0277503Y0158210D02*
X0249523Y0158210D01*
X0248925Y0158809D02*
X0277504Y0158809D01*
X0277504Y0159408D02*
X0248326Y0159408D01*
X0246940Y0160006D02*
X0277504Y0160006D01*
X0277502Y0155816D02*
X0275685Y0155816D01*
X0277062Y0170181D02*
X0260436Y0170181D01*
X0261881Y0170779D02*
X0276464Y0170779D01*
X0275865Y0171378D02*
X0263326Y0171378D01*
X0264120Y0171976D02*
X0275267Y0171976D01*
X0274669Y0172575D02*
X0264718Y0172575D01*
X0265317Y0173173D02*
X0274071Y0173173D01*
X0273472Y0173772D02*
X0265915Y0173772D01*
X0266432Y0174370D02*
X0272874Y0174370D01*
X0272276Y0174969D02*
X0266680Y0174969D01*
X0266928Y0175567D02*
X0271677Y0175567D01*
X0271079Y0176166D02*
X0267176Y0176166D01*
X0267424Y0176764D02*
X0270481Y0176764D01*
X0269883Y0177363D02*
X0267671Y0177363D01*
X0267843Y0177961D02*
X0269284Y0177961D01*
X0268682Y0178560D02*
X0267843Y0178560D01*
X0267843Y0179158D02*
X0268259Y0179158D01*
X0268011Y0179757D02*
X0267843Y0179757D01*
X0267406Y0182749D02*
X0267374Y0182749D01*
X0267403Y0183348D02*
X0267126Y0183348D01*
X0266878Y0183946D02*
X0267401Y0183946D01*
X0267399Y0184545D02*
X0266630Y0184545D01*
X0266382Y0185144D02*
X0267397Y0185144D01*
X0267395Y0185742D02*
X0265795Y0185742D01*
X0265197Y0186341D02*
X0267393Y0186341D01*
X0267391Y0186939D02*
X0264598Y0186939D01*
X0264000Y0187538D02*
X0267389Y0187538D01*
X0267386Y0188136D02*
X0263036Y0188136D01*
X0261591Y0188735D02*
X0267384Y0188735D01*
X0267382Y0189333D02*
X0260146Y0189333D01*
X0256240Y0189333D02*
X0243146Y0189333D01*
X0244591Y0188735D02*
X0254795Y0188735D01*
X0253350Y0188136D02*
X0246036Y0188136D01*
X0247000Y0187538D02*
X0252387Y0187538D01*
X0251788Y0186939D02*
X0247598Y0186939D01*
X0248197Y0186341D02*
X0251190Y0186341D01*
X0250591Y0185742D02*
X0248795Y0185742D01*
X0249382Y0185144D02*
X0250004Y0185144D01*
X0249756Y0184545D02*
X0249630Y0184545D01*
X0249680Y0174969D02*
X0249707Y0174969D01*
X0249954Y0174370D02*
X0249432Y0174370D01*
X0248915Y0173772D02*
X0250471Y0173772D01*
X0251070Y0173173D02*
X0248317Y0173173D01*
X0247718Y0172575D02*
X0251668Y0172575D01*
X0252267Y0171976D02*
X0247120Y0171976D01*
X0246326Y0171378D02*
X0253061Y0171378D01*
X0254506Y0170779D02*
X0244881Y0170779D01*
X0243436Y0170181D02*
X0255951Y0170181D01*
X0267363Y0194720D02*
X0185126Y0194720D01*
X0185374Y0195318D02*
X0267361Y0195318D01*
X0267359Y0195917D02*
X0185622Y0195917D01*
X0185815Y0196515D02*
X0267357Y0196515D01*
X0267355Y0197114D02*
X0185815Y0197114D01*
X0185815Y0197712D02*
X0267352Y0197712D01*
X0267350Y0198311D02*
X0185815Y0198311D01*
X0185815Y0198909D02*
X0267348Y0198909D01*
X0267346Y0199508D02*
X0185815Y0199508D01*
X0185615Y0200106D02*
X0267344Y0200106D01*
X0267342Y0200705D02*
X0185367Y0200705D01*
X0185119Y0201303D02*
X0267340Y0201303D01*
X0267338Y0201902D02*
X0186355Y0201902D01*
X0186885Y0202500D02*
X0267336Y0202500D01*
X0267333Y0203099D02*
X0187686Y0203099D01*
X0187135Y0203099D02*
X0186286Y0203099D01*
X0186536Y0203697D02*
X0185687Y0203697D01*
X0185937Y0204296D02*
X0185089Y0204296D01*
X0184981Y0204894D02*
X0185339Y0204894D01*
X0185579Y0205493D02*
X0184741Y0205493D01*
X0184731Y0205493D02*
X0183892Y0205493D01*
X0184142Y0206091D02*
X0183293Y0206091D01*
X0183543Y0206690D02*
X0182695Y0206690D01*
X0182945Y0207288D02*
X0182096Y0207288D01*
X0181946Y0207288D02*
X0050045Y0207288D01*
X0050782Y0207887D02*
X0182556Y0207887D01*
X0183696Y0208485D02*
X0051380Y0208485D01*
X0051979Y0209084D02*
X0074201Y0209084D01*
X0072756Y0209682D02*
X0052577Y0209682D01*
X0053013Y0210281D02*
X0071830Y0210281D01*
X0071231Y0210879D02*
X0053358Y0210879D01*
X0053704Y0211478D02*
X0070633Y0211478D01*
X0070034Y0212077D02*
X0054049Y0212077D01*
X0054395Y0212675D02*
X0069586Y0212675D01*
X0069338Y0213274D02*
X0054611Y0213274D01*
X0054772Y0213872D02*
X0069090Y0213872D01*
X0068843Y0214471D02*
X0054932Y0214471D01*
X0055092Y0215069D02*
X0068595Y0215069D01*
X0068347Y0215668D02*
X0055253Y0215668D01*
X0055385Y0216266D02*
X0068338Y0216266D01*
X0068338Y0216865D02*
X0055385Y0216865D01*
X0055385Y0217463D02*
X0068338Y0217463D01*
X0068338Y0218062D02*
X0055385Y0218062D01*
X0055385Y0218660D02*
X0068338Y0218660D01*
X0068338Y0219259D02*
X0055385Y0219259D01*
X0055310Y0219857D02*
X0068338Y0219857D01*
X0068338Y0220456D02*
X0055150Y0220456D01*
X0054989Y0221054D02*
X0068338Y0221054D01*
X0068338Y0221653D02*
X0054829Y0221653D01*
X0054669Y0222251D02*
X0068338Y0222251D01*
X0068338Y0222850D02*
X0054508Y0222850D01*
X0054173Y0223448D02*
X0068338Y0223448D01*
X0068338Y0224047D02*
X0053827Y0224047D01*
X0053481Y0224645D02*
X0068338Y0224645D01*
X0068344Y0225244D02*
X0053136Y0225244D01*
X0052790Y0225842D02*
X0068592Y0225842D01*
X0068840Y0226441D02*
X0052192Y0226441D01*
X0051594Y0227039D02*
X0069088Y0227039D01*
X0069335Y0227638D02*
X0050995Y0227638D01*
X0050397Y0228236D02*
X0069583Y0228236D01*
X0070027Y0228835D02*
X0049378Y0228835D01*
X0048342Y0229433D02*
X0070626Y0229433D01*
X0071224Y0230032D02*
X0047183Y0230032D01*
X0037613Y0230032D02*
X0016372Y0230032D01*
X0016371Y0229433D02*
X0036454Y0229433D01*
X0035418Y0228835D02*
X0016371Y0228835D01*
X0016370Y0228236D02*
X0034399Y0228236D01*
X0033801Y0227638D02*
X0016370Y0227638D01*
X0016369Y0227039D02*
X0033202Y0227039D01*
X0032604Y0226441D02*
X0016368Y0226441D01*
X0016368Y0225842D02*
X0032006Y0225842D01*
X0031660Y0225244D02*
X0016367Y0225244D01*
X0016367Y0224645D02*
X0031314Y0224645D01*
X0030969Y0224047D02*
X0016366Y0224047D01*
X0016366Y0223448D02*
X0030623Y0223448D01*
X0030288Y0222850D02*
X0016365Y0222850D01*
X0016365Y0222251D02*
X0030127Y0222251D01*
X0029967Y0221653D02*
X0016364Y0221653D01*
X0016363Y0221054D02*
X0029807Y0221054D01*
X0029646Y0220456D02*
X0016363Y0220456D01*
X0016362Y0219857D02*
X0029486Y0219857D01*
X0029411Y0219259D02*
X0016362Y0219259D01*
X0016361Y0218660D02*
X0029411Y0218660D01*
X0029411Y0218062D02*
X0016361Y0218062D01*
X0016360Y0217463D02*
X0029411Y0217463D01*
X0029411Y0216865D02*
X0016360Y0216865D01*
X0016359Y0216266D02*
X0029411Y0216266D01*
X0029543Y0215668D02*
X0016359Y0215668D01*
X0016358Y0215069D02*
X0029704Y0215069D01*
X0029864Y0214471D02*
X0016357Y0214471D01*
X0016357Y0213872D02*
X0030024Y0213872D01*
X0030185Y0213274D02*
X0016356Y0213274D01*
X0016356Y0212675D02*
X0030401Y0212675D01*
X0030747Y0212077D02*
X0016355Y0212077D01*
X0016355Y0211478D02*
X0031092Y0211478D01*
X0031438Y0210879D02*
X0016354Y0210879D01*
X0016354Y0210281D02*
X0031783Y0210281D01*
X0032219Y0209682D02*
X0016353Y0209682D01*
X0016353Y0209084D02*
X0032817Y0209084D01*
X0033416Y0208485D02*
X0016352Y0208485D01*
X0016351Y0207887D02*
X0034014Y0207887D01*
X0034751Y0207288D02*
X0016351Y0207288D01*
X0016350Y0206690D02*
X0035788Y0206690D01*
X0036825Y0206091D02*
X0016350Y0206091D01*
X0016349Y0205493D02*
X0038411Y0205493D01*
X0040644Y0204894D02*
X0016349Y0204894D01*
X0016348Y0204296D02*
X0049426Y0204296D01*
X0048828Y0203697D02*
X0016348Y0203697D01*
X0016347Y0203099D02*
X0048530Y0203099D01*
X0048742Y0203611D02*
X0047501Y0200616D01*
X0047501Y0197374D01*
X0048742Y0194378D01*
X0051034Y0192085D01*
X0054030Y0190845D01*
X0057272Y0190845D01*
X0059172Y0191632D01*
X0059172Y0191574D01*
X0059309Y0190888D01*
X0059576Y0190242D01*
X0059965Y0189661D01*
X0060000Y0189626D01*
X0062298Y0191924D01*
X0062722Y0191499D01*
X0060424Y0189201D01*
X0060459Y0189166D01*
X0061041Y0188778D01*
X0061687Y0188510D01*
X0062372Y0188374D01*
X0063072Y0188374D01*
X0063758Y0188510D01*
X0064404Y0188778D01*
X0064985Y0189166D01*
X0065020Y0189201D01*
X0062722Y0191499D01*
X0063146Y0191924D01*
X0062722Y0192348D01*
X0065020Y0194646D01*
X0064985Y0194681D01*
X0064404Y0195070D01*
X0063758Y0195337D01*
X0063072Y0195474D01*
X0063014Y0195474D01*
X0063801Y0197374D01*
X0063801Y0200616D01*
X0062560Y0203611D01*
X0060268Y0205904D01*
X0057272Y0207145D01*
X0054030Y0207145D01*
X0051034Y0205904D01*
X0048742Y0203611D01*
X0048282Y0202500D02*
X0016346Y0202500D01*
X0016346Y0201902D02*
X0048034Y0201902D01*
X0047786Y0201303D02*
X0016345Y0201303D01*
X0016345Y0200705D02*
X0047538Y0200705D01*
X0047501Y0200106D02*
X0016344Y0200106D01*
X0016344Y0199508D02*
X0047501Y0199508D01*
X0047501Y0198909D02*
X0016343Y0198909D01*
X0016343Y0198311D02*
X0047501Y0198311D01*
X0047501Y0197712D02*
X0016342Y0197712D01*
X0016342Y0197114D02*
X0047609Y0197114D01*
X0047857Y0196515D02*
X0016341Y0196515D01*
X0016340Y0195917D02*
X0048105Y0195917D01*
X0048352Y0195318D02*
X0016340Y0195318D01*
X0016339Y0194720D02*
X0048600Y0194720D01*
X0048999Y0194121D02*
X0016339Y0194121D01*
X0016338Y0193523D02*
X0049597Y0193523D01*
X0050196Y0192924D02*
X0016338Y0192924D01*
X0016337Y0192326D02*
X0038219Y0192326D01*
X0037161Y0191888D02*
X0039330Y0192786D01*
X0046877Y0192786D01*
X0049046Y0191888D01*
X0050705Y0190228D01*
X0051604Y0188060D01*
X0051604Y0180512D01*
X0050705Y0178344D01*
X0049046Y0176684D01*
X0047618Y0176093D01*
X0051606Y0172106D01*
X0051606Y0165064D01*
X0046627Y0160085D01*
X0039585Y0160085D01*
X0034606Y0165064D01*
X0034606Y0172106D01*
X0038592Y0176092D01*
X0037161Y0176684D01*
X0035502Y0178344D01*
X0034604Y0180512D01*
X0034604Y0180686D01*
X0034241Y0180536D01*
X0033488Y0180386D01*
X0033404Y0180386D01*
X0033404Y0183986D01*
X0032804Y0183986D01*
X0032804Y0180386D01*
X0032719Y0180386D01*
X0031966Y0180536D01*
X0031256Y0180830D01*
X0030617Y0181257D01*
X0030074Y0181800D01*
X0029647Y0182439D01*
X0029353Y0183148D01*
X0029204Y0183902D01*
X0029204Y0183986D01*
X0032803Y0183986D01*
X0032803Y0184586D01*
X0029204Y0184586D01*
X0029204Y0184670D01*
X0029353Y0185424D01*
X0029647Y0186133D01*
X0030074Y0186772D01*
X0030617Y0187315D01*
X0031256Y0187742D01*
X0031966Y0188036D01*
X0032719Y0188186D01*
X0032804Y0188186D01*
X0032804Y0184586D01*
X0033404Y0184586D01*
X0033404Y0188186D01*
X0033488Y0188186D01*
X0034241Y0188036D01*
X0034604Y0187886D01*
X0034604Y0188060D01*
X0035502Y0190228D01*
X0037161Y0191888D01*
X0037001Y0191727D02*
X0016337Y0191727D01*
X0016336Y0191129D02*
X0036402Y0191129D01*
X0035804Y0190530D02*
X0016336Y0190530D01*
X0016335Y0189932D02*
X0035379Y0189932D01*
X0035131Y0189333D02*
X0016334Y0189333D01*
X0016334Y0188735D02*
X0034883Y0188735D01*
X0034635Y0188136D02*
X0033739Y0188136D01*
X0033404Y0188136D02*
X0032804Y0188136D01*
X0032468Y0188136D02*
X0016333Y0188136D01*
X0016333Y0187538D02*
X0030950Y0187538D01*
X0030241Y0186939D02*
X0016332Y0186939D01*
X0016332Y0186341D02*
X0029786Y0186341D01*
X0029485Y0185742D02*
X0016331Y0185742D01*
X0016331Y0185144D02*
X0029298Y0185144D01*
X0029204Y0183946D02*
X0016329Y0183946D01*
X0016329Y0183348D02*
X0029314Y0183348D01*
X0029519Y0182749D02*
X0016328Y0182749D01*
X0016328Y0182151D02*
X0029840Y0182151D01*
X0030322Y0181552D02*
X0016327Y0181552D01*
X0016327Y0180954D02*
X0031071Y0180954D01*
X0032804Y0180954D02*
X0033404Y0180954D01*
X0033404Y0181552D02*
X0032804Y0181552D01*
X0032804Y0182151D02*
X0033404Y0182151D01*
X0033404Y0182749D02*
X0032804Y0182749D01*
X0032804Y0183348D02*
X0033404Y0183348D01*
X0033404Y0183946D02*
X0032804Y0183946D01*
X0032803Y0184545D02*
X0016330Y0184545D01*
X0016326Y0180355D02*
X0034669Y0180355D01*
X0034916Y0179757D02*
X0016326Y0179757D01*
X0016325Y0179158D02*
X0035164Y0179158D01*
X0035412Y0178560D02*
X0016325Y0178560D01*
X0016324Y0177961D02*
X0035884Y0177961D01*
X0036483Y0177363D02*
X0016323Y0177363D01*
X0016323Y0176764D02*
X0037081Y0176764D01*
X0038413Y0176166D02*
X0016322Y0176166D01*
X0016322Y0175567D02*
X0038067Y0175567D01*
X0037469Y0174969D02*
X0016321Y0174969D01*
X0016321Y0174370D02*
X0036870Y0174370D01*
X0036272Y0173772D02*
X0016320Y0173772D01*
X0016320Y0173173D02*
X0035673Y0173173D01*
X0035075Y0172575D02*
X0016319Y0172575D01*
X0016319Y0171976D02*
X0034606Y0171976D01*
X0034606Y0171378D02*
X0016318Y0171378D01*
X0016317Y0170779D02*
X0023152Y0170779D01*
X0023295Y0170875D02*
X0022714Y0170487D01*
X0022219Y0169992D01*
X0021831Y0169411D01*
X0021563Y0168765D01*
X0021427Y0168079D01*
X0021427Y0167992D01*
X0024674Y0168026D01*
X0024640Y0171279D01*
X0024627Y0171279D01*
X0023941Y0171143D01*
X0023295Y0170875D01*
X0022408Y0170181D02*
X0016317Y0170181D01*
X0016316Y0169582D02*
X0021945Y0169582D01*
X0021654Y0168984D02*
X0016316Y0168984D01*
X0016315Y0168385D02*
X0021488Y0168385D01*
X0021427Y0167392D02*
X0021427Y0167379D01*
X0021563Y0166694D01*
X0021831Y0166048D01*
X0022219Y0165466D01*
X0022290Y0165395D01*
X0020465Y0164639D01*
X0018172Y0162346D01*
X0016932Y0159351D01*
X0016932Y0156109D01*
X0018172Y0153113D01*
X0020465Y0150820D01*
X0023460Y0149580D01*
X0026703Y0149580D01*
X0029698Y0150820D01*
X0031991Y0153113D01*
X0033231Y0156109D01*
X0033231Y0159351D01*
X0031991Y0162346D01*
X0029698Y0164639D01*
X0027725Y0165456D01*
X0027734Y0165466D01*
X0028123Y0166048D01*
X0028390Y0166694D01*
X0028527Y0167379D01*
X0028527Y0167466D01*
X0025280Y0167432D01*
X0025274Y0168032D01*
X0028527Y0168066D01*
X0028527Y0168079D01*
X0028390Y0168765D01*
X0028123Y0169411D01*
X0027734Y0169992D01*
X0027240Y0170487D01*
X0026658Y0170875D01*
X0026012Y0171143D01*
X0025326Y0171279D01*
X0025240Y0171279D01*
X0025274Y0168032D01*
X0024674Y0168026D01*
X0024680Y0167426D01*
X0021427Y0167392D01*
X0021465Y0167188D02*
X0016314Y0167188D01*
X0016314Y0166590D02*
X0021606Y0166590D01*
X0021869Y0165991D02*
X0016313Y0165991D01*
X0016312Y0165393D02*
X0022285Y0165393D01*
X0020840Y0164794D02*
X0016312Y0164794D01*
X0016311Y0164196D02*
X0020022Y0164196D01*
X0019423Y0163597D02*
X0016311Y0163597D01*
X0016310Y0162999D02*
X0018825Y0162999D01*
X0018226Y0162400D02*
X0016310Y0162400D01*
X0016309Y0161802D02*
X0017947Y0161802D01*
X0017699Y0161203D02*
X0016309Y0161203D01*
X0016308Y0160605D02*
X0017451Y0160605D01*
X0017203Y0160006D02*
X0016308Y0160006D01*
X0016307Y0159408D02*
X0016955Y0159408D01*
X0016932Y0158809D02*
X0016306Y0158809D01*
X0016306Y0158210D02*
X0016932Y0158210D01*
X0016932Y0157612D02*
X0016305Y0157612D01*
X0016305Y0157013D02*
X0016932Y0157013D01*
X0016932Y0156415D02*
X0016304Y0156415D01*
X0016304Y0155816D02*
X0017052Y0155816D01*
X0017300Y0155218D02*
X0016303Y0155218D01*
X0016303Y0154619D02*
X0017548Y0154619D01*
X0017796Y0154021D02*
X0016302Y0154021D01*
X0016302Y0153422D02*
X0018044Y0153422D01*
X0018461Y0152824D02*
X0016301Y0152824D01*
X0016300Y0152225D02*
X0019060Y0152225D01*
X0019658Y0151627D02*
X0016300Y0151627D01*
X0016299Y0151028D02*
X0020257Y0151028D01*
X0021408Y0150430D02*
X0016299Y0150430D01*
X0016298Y0149831D02*
X0022853Y0149831D01*
X0027310Y0149831D02*
X0105469Y0149831D01*
X0104871Y0150430D02*
X0028755Y0150430D01*
X0029906Y0151028D02*
X0104272Y0151028D01*
X0103674Y0151627D02*
X0030505Y0151627D01*
X0031103Y0152225D02*
X0103282Y0152225D01*
X0103035Y0152824D02*
X0031702Y0152824D01*
X0032119Y0153422D02*
X0102787Y0153422D01*
X0102539Y0154021D02*
X0032367Y0154021D01*
X0032615Y0154619D02*
X0102291Y0154619D01*
X0101900Y0155218D02*
X0032863Y0155218D01*
X0033110Y0155816D02*
X0100455Y0155816D01*
X0099010Y0156415D02*
X0033231Y0156415D01*
X0033231Y0157013D02*
X0098287Y0157013D01*
X0097689Y0157612D02*
X0033231Y0157612D01*
X0033231Y0158210D02*
X0097090Y0158210D01*
X0096492Y0158809D02*
X0033231Y0158809D01*
X0033208Y0159408D02*
X0096165Y0159408D01*
X0095917Y0160006D02*
X0032960Y0160006D01*
X0032712Y0160605D02*
X0039065Y0160605D01*
X0038467Y0161203D02*
X0032464Y0161203D01*
X0032216Y0161802D02*
X0037868Y0161802D01*
X0037270Y0162400D02*
X0031937Y0162400D01*
X0031338Y0162999D02*
X0036671Y0162999D01*
X0036073Y0163597D02*
X0030740Y0163597D01*
X0030141Y0164196D02*
X0035474Y0164196D01*
X0034876Y0164794D02*
X0029323Y0164794D01*
X0027878Y0165393D02*
X0034606Y0165393D01*
X0034606Y0165991D02*
X0028085Y0165991D01*
X0028347Y0166590D02*
X0034606Y0166590D01*
X0034606Y0167188D02*
X0028489Y0167188D01*
X0028466Y0168385D02*
X0034606Y0168385D01*
X0034606Y0167787D02*
X0025276Y0167787D01*
X0025270Y0168385D02*
X0024670Y0168385D01*
X0024676Y0167787D02*
X0016315Y0167787D01*
X0024664Y0168984D02*
X0025264Y0168984D01*
X0025257Y0169582D02*
X0024657Y0169582D01*
X0024651Y0170181D02*
X0025251Y0170181D01*
X0025245Y0170779D02*
X0024645Y0170779D01*
X0026802Y0170779D02*
X0034606Y0170779D01*
X0034606Y0170181D02*
X0027546Y0170181D01*
X0028008Y0169582D02*
X0034606Y0169582D01*
X0034606Y0168984D02*
X0028300Y0168984D01*
X0032804Y0185144D02*
X0033404Y0185144D01*
X0033404Y0185742D02*
X0032804Y0185742D01*
X0032804Y0186341D02*
X0033404Y0186341D01*
X0033404Y0186939D02*
X0032804Y0186939D01*
X0032804Y0187538D02*
X0033404Y0187538D01*
X0047989Y0192326D02*
X0050794Y0192326D01*
X0051900Y0191727D02*
X0049206Y0191727D01*
X0049805Y0191129D02*
X0053345Y0191129D01*
X0050828Y0189932D02*
X0059784Y0189932D01*
X0060306Y0189932D02*
X0061154Y0189932D01*
X0060904Y0190530D02*
X0061753Y0190530D01*
X0061503Y0191129D02*
X0062351Y0191129D01*
X0062494Y0191727D02*
X0062101Y0191727D01*
X0062950Y0191727D02*
X0063343Y0191727D01*
X0063146Y0191924D02*
X0065444Y0189626D01*
X0065480Y0189661D01*
X0065868Y0190242D01*
X0066136Y0190888D01*
X0066272Y0191574D01*
X0066272Y0192273D01*
X0066136Y0192959D01*
X0065868Y0193605D01*
X0065480Y0194187D01*
X0065444Y0194222D01*
X0063146Y0191924D01*
X0062744Y0192326D02*
X0063548Y0192326D01*
X0063298Y0192924D02*
X0064147Y0192924D01*
X0063897Y0193523D02*
X0064745Y0193523D01*
X0064495Y0194121D02*
X0065344Y0194121D01*
X0065523Y0194121D02*
X0121712Y0194121D01*
X0121114Y0193523D02*
X0065902Y0193523D01*
X0066143Y0192924D02*
X0120515Y0192924D01*
X0119917Y0192326D02*
X0066262Y0192326D01*
X0066272Y0191727D02*
X0119318Y0191727D01*
X0118720Y0191129D02*
X0066184Y0191129D01*
X0065987Y0190530D02*
X0118121Y0190530D01*
X0117551Y0189932D02*
X0065661Y0189932D01*
X0065138Y0189932D02*
X0064290Y0189932D01*
X0064540Y0190530D02*
X0063691Y0190530D01*
X0063941Y0191129D02*
X0063093Y0191129D01*
X0064888Y0189333D02*
X0117303Y0189333D01*
X0117055Y0188735D02*
X0064300Y0188735D01*
X0061145Y0188735D02*
X0051324Y0188735D01*
X0051076Y0189333D02*
X0060556Y0189333D01*
X0059457Y0190530D02*
X0050403Y0190530D01*
X0051572Y0188136D02*
X0116807Y0188136D01*
X0116560Y0187538D02*
X0051604Y0187538D01*
X0051604Y0186939D02*
X0116312Y0186939D01*
X0116251Y0186341D02*
X0051604Y0186341D01*
X0051604Y0185742D02*
X0116251Y0185742D01*
X0116251Y0185144D02*
X0051604Y0185144D01*
X0051604Y0184545D02*
X0116251Y0184545D01*
X0116251Y0183946D02*
X0051604Y0183946D01*
X0051604Y0183348D02*
X0116251Y0183348D01*
X0116497Y0182749D02*
X0051604Y0182749D01*
X0051604Y0182151D02*
X0116745Y0182151D01*
X0116993Y0181552D02*
X0051604Y0181552D01*
X0051604Y0180954D02*
X0117241Y0180954D01*
X0117488Y0180355D02*
X0051538Y0180355D01*
X0051291Y0179757D02*
X0117970Y0179757D01*
X0118569Y0179158D02*
X0051043Y0179158D01*
X0050795Y0178560D02*
X0119167Y0178560D01*
X0119766Y0177961D02*
X0050323Y0177961D01*
X0049724Y0177363D02*
X0120864Y0177363D01*
X0122309Y0176764D02*
X0049126Y0176764D01*
X0047794Y0176166D02*
X0105228Y0176166D01*
X0103783Y0175567D02*
X0048144Y0175567D01*
X0048743Y0174969D02*
X0102560Y0174969D01*
X0101962Y0174370D02*
X0049341Y0174370D01*
X0049940Y0173772D02*
X0101363Y0173772D01*
X0100765Y0173173D02*
X0050538Y0173173D01*
X0051137Y0172575D02*
X0100166Y0172575D01*
X0099567Y0171976D02*
X0051606Y0171976D01*
X0051606Y0171378D02*
X0098969Y0171378D01*
X0098370Y0170779D02*
X0051606Y0170779D01*
X0051606Y0170181D02*
X0097772Y0170181D01*
X0097173Y0169582D02*
X0051606Y0169582D01*
X0051606Y0168984D02*
X0096575Y0168984D01*
X0096200Y0168385D02*
X0051606Y0168385D01*
X0051606Y0167787D02*
X0095952Y0167787D01*
X0095704Y0167188D02*
X0051606Y0167188D01*
X0051606Y0166590D02*
X0095456Y0166590D01*
X0095208Y0165991D02*
X0051606Y0165991D01*
X0051606Y0165393D02*
X0095038Y0165393D01*
X0095038Y0164794D02*
X0051336Y0164794D01*
X0050737Y0164196D02*
X0095038Y0164196D01*
X0095038Y0163597D02*
X0050139Y0163597D01*
X0049540Y0162999D02*
X0095038Y0162999D01*
X0095038Y0162400D02*
X0048942Y0162400D01*
X0048343Y0161802D02*
X0095174Y0161802D01*
X0095422Y0161203D02*
X0047745Y0161203D01*
X0047146Y0160605D02*
X0095670Y0160605D01*
X0106350Y0149233D02*
X0016298Y0149233D01*
X0016297Y0148634D02*
X0107795Y0148634D01*
X0109180Y0148036D02*
X0016297Y0148036D01*
X0016296Y0147437D02*
X0109408Y0147437D01*
X0109656Y0146839D02*
X0016295Y0146839D01*
X0016295Y0146240D02*
X0109904Y0146240D01*
X0110152Y0145642D02*
X0016294Y0145642D01*
X0057958Y0191129D02*
X0059261Y0191129D01*
X0063804Y0195318D02*
X0122909Y0195318D01*
X0122311Y0194720D02*
X0064927Y0194720D01*
X0063198Y0195917D02*
X0123508Y0195917D01*
X0124356Y0196515D02*
X0063446Y0196515D01*
X0063693Y0197114D02*
X0125801Y0197114D01*
X0131884Y0197114D02*
X0169515Y0197114D01*
X0169515Y0197712D02*
X0063801Y0197712D01*
X0063801Y0198311D02*
X0169515Y0198311D01*
X0169515Y0198909D02*
X0063801Y0198909D01*
X0063801Y0199508D02*
X0169515Y0199508D01*
X0169715Y0200106D02*
X0063801Y0200106D01*
X0063764Y0200705D02*
X0169962Y0200705D01*
X0170210Y0201303D02*
X0063516Y0201303D01*
X0063268Y0201902D02*
X0170458Y0201902D01*
X0170706Y0202500D02*
X0063020Y0202500D01*
X0062773Y0203099D02*
X0171235Y0203099D01*
X0171834Y0203697D02*
X0062474Y0203697D01*
X0061876Y0204296D02*
X0172432Y0204296D01*
X0173031Y0204894D02*
X0061277Y0204894D01*
X0060679Y0205493D02*
X0174451Y0205493D01*
X0175896Y0206091D02*
X0059815Y0206091D01*
X0058370Y0206690D02*
X0181563Y0206690D01*
X0181319Y0206091D02*
X0179433Y0206091D01*
X0180878Y0205493D02*
X0181200Y0205493D01*
X0179201Y0209084D02*
X0175275Y0209084D01*
X0176720Y0209682D02*
X0177756Y0209682D01*
X0185275Y0209084D02*
X0189201Y0209084D01*
X0187756Y0209682D02*
X0186720Y0209682D01*
X0185775Y0208485D02*
X0267314Y0208485D01*
X0267316Y0207887D02*
X0186915Y0207887D01*
X0186526Y0207288D02*
X0187375Y0207288D01*
X0187525Y0207288D02*
X0267319Y0207288D01*
X0267321Y0206690D02*
X0187909Y0206690D01*
X0188153Y0206091D02*
X0267323Y0206091D01*
X0267325Y0205493D02*
X0188272Y0205493D01*
X0188286Y0204894D02*
X0267327Y0204894D01*
X0267329Y0204296D02*
X0188201Y0204296D01*
X0188008Y0203697D02*
X0267331Y0203697D01*
X0267312Y0209084D02*
X0235275Y0209084D01*
X0236720Y0209682D02*
X0267310Y0209682D01*
X0267308Y0210281D02*
X0237646Y0210281D01*
X0238245Y0210879D02*
X0267306Y0210879D01*
X0267304Y0211478D02*
X0238843Y0211478D01*
X0239442Y0212077D02*
X0267302Y0212077D01*
X0267299Y0212675D02*
X0239889Y0212675D01*
X0240137Y0213274D02*
X0267297Y0213274D01*
X0267295Y0213872D02*
X0240385Y0213872D01*
X0240633Y0214471D02*
X0267293Y0214471D01*
X0267291Y0215069D02*
X0240881Y0215069D01*
X0241129Y0215668D02*
X0267289Y0215668D01*
X0267287Y0216266D02*
X0241138Y0216266D01*
X0241138Y0216865D02*
X0267285Y0216865D01*
X0267282Y0217463D02*
X0241138Y0217463D01*
X0241138Y0218062D02*
X0267280Y0218062D01*
X0267278Y0218660D02*
X0241138Y0218660D01*
X0241138Y0219259D02*
X0267276Y0219259D01*
X0267274Y0219857D02*
X0241138Y0219857D01*
X0241138Y0220456D02*
X0267272Y0220456D01*
X0267270Y0221054D02*
X0241138Y0221054D01*
X0241138Y0221653D02*
X0267268Y0221653D01*
X0267265Y0222251D02*
X0241138Y0222251D01*
X0241138Y0222850D02*
X0267263Y0222850D01*
X0267261Y0223448D02*
X0241138Y0223448D01*
X0241138Y0224047D02*
X0267259Y0224047D01*
X0267257Y0224645D02*
X0241138Y0224645D01*
X0241132Y0225244D02*
X0267255Y0225244D01*
X0267253Y0225842D02*
X0240884Y0225842D01*
X0240636Y0226441D02*
X0267251Y0226441D01*
X0267229Y0227039D02*
X0240388Y0227039D01*
X0240140Y0227638D02*
X0266533Y0227638D01*
X0265837Y0228236D02*
X0239892Y0228236D01*
X0239449Y0228835D02*
X0265140Y0228835D01*
X0264444Y0229433D02*
X0238850Y0229433D01*
X0238252Y0230032D02*
X0263748Y0230032D01*
X0229201Y0209084D02*
X0225275Y0209084D01*
X0226720Y0209682D02*
X0227756Y0209682D01*
X0219201Y0209084D02*
X0215275Y0209084D01*
X0216720Y0209682D02*
X0217756Y0209682D01*
X0209201Y0209084D02*
X0205275Y0209084D01*
X0206720Y0209682D02*
X0207756Y0209682D01*
X0199201Y0209084D02*
X0195275Y0209084D01*
X0196720Y0209682D02*
X0197756Y0209682D01*
X0186776Y0206690D02*
X0185928Y0206690D01*
X0186178Y0206091D02*
X0185329Y0206091D01*
X0169955Y0195318D02*
X0134775Y0195318D01*
X0134177Y0195917D02*
X0169707Y0195917D01*
X0169515Y0196515D02*
X0133329Y0196515D01*
X0135374Y0194720D02*
X0170203Y0194720D01*
X0170451Y0194121D02*
X0135972Y0194121D01*
X0136350Y0193523D02*
X0170699Y0193523D01*
X0171217Y0192924D02*
X0136598Y0192924D01*
X0136846Y0192326D02*
X0171815Y0192326D01*
X0172414Y0191727D02*
X0137094Y0191727D01*
X0137342Y0191129D02*
X0173013Y0191129D01*
X0174407Y0190530D02*
X0137778Y0190530D01*
X0139223Y0189932D02*
X0175852Y0189932D01*
X0177638Y0188136D02*
X0141957Y0188136D01*
X0141359Y0188735D02*
X0178152Y0188735D01*
X0179029Y0189333D02*
X0140668Y0189333D01*
X0142556Y0187538D02*
X0177307Y0187538D01*
X0177107Y0186939D02*
X0143154Y0186939D01*
X0128203Y0170181D02*
X0116019Y0170181D01*
X0115771Y0170779D02*
X0126948Y0170779D01*
X0126349Y0171378D02*
X0115523Y0171378D01*
X0115275Y0171976D02*
X0125751Y0171976D01*
X0125152Y0172575D02*
X0115027Y0172575D01*
X0114494Y0173173D02*
X0124606Y0173173D01*
X0124358Y0173772D02*
X0113895Y0173772D01*
X0113297Y0174370D02*
X0124110Y0174370D01*
X0123862Y0174969D02*
X0112698Y0174969D01*
X0111475Y0175567D02*
X0123614Y0175567D01*
X0123366Y0176166D02*
X0110030Y0176166D01*
X0116266Y0169582D02*
X0129648Y0169582D01*
X0130483Y0168984D02*
X0117370Y0168984D01*
X0118815Y0168385D02*
X0130731Y0168385D01*
X0130979Y0167787D02*
X0119880Y0167787D01*
X0120479Y0167188D02*
X0131227Y0167188D01*
X0131475Y0166590D02*
X0121077Y0166590D01*
X0121676Y0165991D02*
X0131736Y0165991D01*
X0132334Y0165393D02*
X0122144Y0165393D01*
X0122392Y0164794D02*
X0132933Y0164794D01*
X0133531Y0164196D02*
X0122640Y0164196D01*
X0122888Y0163597D02*
X0134130Y0163597D01*
X0135542Y0162999D02*
X0123136Y0162999D01*
X0123372Y0162400D02*
X0136987Y0162400D01*
X0137600Y0161802D02*
X0124709Y0161802D01*
X0126154Y0161203D02*
X0137848Y0161203D01*
X0138096Y0160605D02*
X0127063Y0160605D01*
X0127661Y0160006D02*
X0138344Y0160006D01*
X0138592Y0159408D02*
X0128260Y0159408D01*
X0128858Y0158809D02*
X0138918Y0158809D01*
X0139516Y0158210D02*
X0129261Y0158210D01*
X0129509Y0157612D02*
X0140115Y0157612D01*
X0140713Y0157013D02*
X0129757Y0157013D01*
X0130005Y0156415D02*
X0141437Y0156415D01*
X0142882Y0155816D02*
X0130253Y0155816D01*
X0130603Y0155218D02*
X0144327Y0155218D01*
X0144717Y0154619D02*
X0132048Y0154619D01*
X0133493Y0154021D02*
X0144965Y0154021D01*
X0145213Y0153422D02*
X0134245Y0153422D01*
X0134843Y0152824D02*
X0145461Y0152824D01*
X0145709Y0152225D02*
X0135442Y0152225D01*
X0136040Y0151627D02*
X0146100Y0151627D01*
X0146699Y0151028D02*
X0136378Y0151028D01*
X0136626Y0150430D02*
X0147297Y0150430D01*
X0147896Y0149831D02*
X0136874Y0149831D01*
X0137122Y0149233D02*
X0148776Y0149233D01*
X0150221Y0148634D02*
X0137370Y0148634D01*
X0137942Y0148036D02*
X0151606Y0148036D01*
X0151834Y0147437D02*
X0139387Y0147437D01*
X0140828Y0146839D02*
X0152082Y0146839D01*
X0152330Y0146240D02*
X0141427Y0146240D01*
X0142025Y0145642D02*
X0152578Y0145642D01*
X0152826Y0145043D02*
X0142624Y0145043D01*
X0143222Y0144445D02*
X0153282Y0144445D01*
X0153881Y0143846D02*
X0143495Y0143846D01*
X0143743Y0143248D02*
X0154479Y0143248D01*
X0155078Y0142649D02*
X0143991Y0142649D01*
X0144239Y0142051D02*
X0156115Y0142051D01*
X0157560Y0141452D02*
X0144487Y0141452D01*
X0145282Y0140854D02*
X0163690Y0140854D01*
X0163454Y0141452D02*
X0162996Y0141452D01*
X0175071Y0148036D02*
X0176311Y0148036D01*
X0173065Y0168385D02*
X0169058Y0168385D01*
X0170503Y0168984D02*
X0173664Y0168984D01*
X0174263Y0169582D02*
X0171434Y0169582D01*
X0172033Y0170181D02*
X0174861Y0170181D01*
X0176284Y0170779D02*
X0172631Y0170779D01*
X0174572Y0178560D02*
X0187536Y0178560D01*
X0186091Y0179158D02*
X0174324Y0179158D01*
X0174076Y0179757D02*
X0185409Y0179757D01*
X0184810Y0180355D02*
X0173829Y0180355D01*
X0173581Y0180954D02*
X0184212Y0180954D01*
X0183638Y0181552D02*
X0173150Y0181552D01*
X0172551Y0182151D02*
X0183390Y0182151D01*
X0183142Y0182749D02*
X0181688Y0182749D01*
X0180865Y0182749D02*
X0180265Y0182749D01*
X0180265Y0183348D02*
X0180865Y0183348D01*
X0180865Y0183946D02*
X0180265Y0183946D01*
X0180265Y0184545D02*
X0180865Y0184545D01*
X0180865Y0185144D02*
X0180265Y0185144D01*
X0180265Y0185742D02*
X0180865Y0185742D01*
X0182796Y0183348D02*
X0182894Y0183348D01*
X0179442Y0182749D02*
X0171953Y0182749D01*
X0171354Y0183348D02*
X0178334Y0183348D01*
X0177752Y0183946D02*
X0170310Y0183946D01*
X0168865Y0184545D02*
X0177378Y0184545D01*
X0182101Y0189333D02*
X0183072Y0189333D01*
X0183319Y0189932D02*
X0179477Y0189932D01*
X0169201Y0209084D02*
X0165275Y0209084D01*
X0166720Y0209682D02*
X0167756Y0209682D01*
X0159201Y0209084D02*
X0150275Y0209084D01*
X0151720Y0209682D02*
X0157756Y0209682D01*
X0156830Y0210281D02*
X0152646Y0210281D01*
X0153245Y0210879D02*
X0156231Y0210879D01*
X0155633Y0211478D02*
X0153843Y0211478D01*
X0154442Y0212077D02*
X0155034Y0212077D01*
X0144201Y0209084D02*
X0140275Y0209084D01*
X0141720Y0209682D02*
X0142756Y0209682D01*
X0134201Y0209084D02*
X0130275Y0209084D01*
X0131720Y0209682D02*
X0132756Y0209682D01*
X0124201Y0209084D02*
X0120275Y0209084D01*
X0121720Y0209682D02*
X0122756Y0209682D01*
X0114201Y0209084D02*
X0110275Y0209084D01*
X0111720Y0209682D02*
X0112756Y0209682D01*
X0104201Y0209084D02*
X0100275Y0209084D01*
X0101720Y0209682D02*
X0102756Y0209682D01*
X0094201Y0209084D02*
X0080275Y0209084D01*
X0081720Y0209682D02*
X0092756Y0209682D01*
X0091830Y0210281D02*
X0082646Y0210281D01*
X0083245Y0210879D02*
X0091231Y0210879D01*
X0090633Y0211478D02*
X0083843Y0211478D01*
X0084442Y0212077D02*
X0090034Y0212077D01*
X0089586Y0212675D02*
X0084889Y0212675D01*
X0085137Y0213274D02*
X0086205Y0213274D01*
X0086938Y0213274D02*
X0087538Y0213274D01*
X0087538Y0213872D02*
X0086938Y0213872D01*
X0086938Y0214471D02*
X0087538Y0214471D01*
X0087538Y0215069D02*
X0086938Y0215069D01*
X0086938Y0215668D02*
X0087538Y0215668D01*
X0087538Y0216266D02*
X0086938Y0216266D01*
X0086938Y0216865D02*
X0087538Y0216865D01*
X0087538Y0217463D02*
X0086938Y0217463D01*
X0086938Y0218062D02*
X0087538Y0218062D01*
X0087538Y0218660D02*
X0086938Y0218660D01*
X0086938Y0219259D02*
X0087538Y0219259D01*
X0087538Y0219857D02*
X0086938Y0219857D01*
X0088271Y0213274D02*
X0089338Y0213274D01*
X0052932Y0206690D02*
X0049008Y0206690D01*
X0047971Y0206091D02*
X0051487Y0206091D01*
X0050623Y0205493D02*
X0046385Y0205493D01*
X0044152Y0204894D02*
X0050025Y0204894D01*
X0218804Y0072025D02*
X0231027Y0072025D01*
X0230779Y0072623D02*
X0219401Y0072623D01*
X0219997Y0073222D02*
X0230531Y0073222D01*
X0230338Y0073820D02*
X0220593Y0073820D01*
X0221189Y0074419D02*
X0230338Y0074419D01*
X0230338Y0075017D02*
X0221785Y0075017D01*
X0222382Y0075616D02*
X0230338Y0075616D01*
X0230338Y0076214D02*
X0222978Y0076214D01*
X0223574Y0076813D02*
X0230338Y0076813D01*
X0230413Y0077411D02*
X0224170Y0077411D01*
X0224766Y0078010D02*
X0230661Y0078010D01*
X0230909Y0078608D02*
X0225362Y0078608D01*
X0225959Y0079207D02*
X0231157Y0079207D01*
X0231405Y0079806D02*
X0226555Y0079806D01*
X0227151Y0080404D02*
X0231653Y0080404D01*
X0231451Y0081003D02*
X0227747Y0081003D01*
X0228343Y0081601D02*
X0231203Y0081601D01*
X0230955Y0082200D02*
X0228940Y0082200D01*
X0229536Y0082798D02*
X0230707Y0082798D01*
X0230459Y0083397D02*
X0230132Y0083397D01*
X0249158Y0067237D02*
X0277442Y0067237D01*
X0277443Y0067835D02*
X0250089Y0067835D01*
X0250799Y0068434D02*
X0277443Y0068434D01*
X0277443Y0069032D02*
X0251397Y0069032D01*
X0251996Y0069631D02*
X0277444Y0069631D01*
X0277444Y0070229D02*
X0252595Y0070229D01*
X0252953Y0070828D02*
X0277445Y0070828D01*
X0277445Y0071426D02*
X0253201Y0071426D01*
X0253449Y0072025D02*
X0277445Y0072025D01*
X0277446Y0072623D02*
X0253697Y0072623D01*
X0253944Y0073222D02*
X0277446Y0073222D01*
X0277447Y0073820D02*
X0254138Y0073820D01*
X0254138Y0074419D02*
X0277447Y0074419D01*
X0277447Y0075017D02*
X0254138Y0075017D01*
X0254138Y0075616D02*
X0277448Y0075616D01*
X0277448Y0076214D02*
X0254138Y0076214D01*
X0254138Y0076813D02*
X0277449Y0076813D01*
X0277449Y0077411D02*
X0254062Y0077411D01*
X0253815Y0078010D02*
X0277449Y0078010D01*
X0277450Y0078608D02*
X0253567Y0078608D01*
X0253319Y0079207D02*
X0277450Y0079207D01*
X0277451Y0079806D02*
X0253071Y0079806D01*
X0252823Y0080404D02*
X0277451Y0080404D01*
X0277451Y0081003D02*
X0253025Y0081003D01*
X0253273Y0081601D02*
X0277452Y0081601D01*
X0277452Y0082200D02*
X0253521Y0082200D01*
X0253769Y0082798D02*
X0277453Y0082798D01*
X0277453Y0083397D02*
X0254017Y0083397D01*
X0254138Y0083995D02*
X0277453Y0083995D01*
X0277454Y0084594D02*
X0254138Y0084594D01*
X0254138Y0085192D02*
X0277454Y0085192D01*
X0277455Y0085791D02*
X0254138Y0085791D01*
X0254138Y0086389D02*
X0277455Y0086389D01*
X0277455Y0086988D02*
X0254138Y0086988D01*
X0253990Y0087586D02*
X0277456Y0087586D01*
X0277456Y0088185D02*
X0253742Y0088185D01*
X0253494Y0088783D02*
X0277457Y0088783D01*
X0277457Y0089382D02*
X0253246Y0089382D01*
X0252998Y0089980D02*
X0277457Y0089980D01*
X0277458Y0090579D02*
X0252850Y0090579D01*
X0253097Y0091177D02*
X0277458Y0091177D01*
X0277459Y0091776D02*
X0253345Y0091776D01*
X0253593Y0092374D02*
X0277459Y0092374D01*
X0277459Y0092973D02*
X0253841Y0092973D01*
X0254089Y0093571D02*
X0277460Y0093571D01*
X0277460Y0094170D02*
X0254138Y0094170D01*
X0254138Y0094768D02*
X0277461Y0094768D01*
X0277461Y0095367D02*
X0254138Y0095367D01*
X0254138Y0095965D02*
X0277461Y0095965D01*
X0277462Y0096564D02*
X0254138Y0096564D01*
X0254138Y0097162D02*
X0277462Y0097162D01*
X0277463Y0097761D02*
X0253918Y0097761D01*
X0253670Y0098359D02*
X0277463Y0098359D01*
X0277463Y0098958D02*
X0253422Y0098958D01*
X0253174Y0099556D02*
X0277464Y0099556D01*
X0277464Y0100155D02*
X0252926Y0100155D01*
X0252922Y0100753D02*
X0277465Y0100753D01*
X0277465Y0101352D02*
X0253170Y0101352D01*
X0253418Y0101950D02*
X0277465Y0101950D01*
X0277466Y0102549D02*
X0253666Y0102549D01*
X0253914Y0103147D02*
X0277466Y0103147D01*
X0277467Y0103746D02*
X0254138Y0103746D01*
X0254138Y0104344D02*
X0277467Y0104344D01*
X0277467Y0104943D02*
X0254138Y0104943D01*
X0254138Y0105541D02*
X0277468Y0105541D01*
X0277468Y0106140D02*
X0254138Y0106140D01*
X0254138Y0106739D02*
X0277469Y0106739D01*
X0277469Y0107337D02*
X0254093Y0107337D01*
X0253845Y0107936D02*
X0277469Y0107936D01*
X0277470Y0108534D02*
X0253598Y0108534D01*
X0253350Y0109133D02*
X0277470Y0109133D01*
X0277471Y0109731D02*
X0253102Y0109731D01*
X0252854Y0110330D02*
X0277471Y0110330D01*
X0277471Y0110928D02*
X0252994Y0110928D01*
X0253242Y0111527D02*
X0277472Y0111527D01*
X0277472Y0112125D02*
X0253490Y0112125D01*
X0253738Y0112724D02*
X0277473Y0112724D01*
X0277473Y0113322D02*
X0253986Y0113322D01*
X0254138Y0113921D02*
X0277473Y0113921D01*
X0277474Y0114519D02*
X0254138Y0114519D01*
X0254138Y0115118D02*
X0277474Y0115118D01*
X0277475Y0115716D02*
X0254138Y0115716D01*
X0254138Y0116315D02*
X0277475Y0116315D01*
X0277476Y0116913D02*
X0254138Y0116913D01*
X0254021Y0117512D02*
X0277476Y0117512D01*
X0277476Y0118110D02*
X0253773Y0118110D01*
X0253525Y0118709D02*
X0277477Y0118709D01*
X0277477Y0119307D02*
X0253277Y0119307D01*
X0253029Y0119906D02*
X0277478Y0119906D01*
X0277478Y0120504D02*
X0252779Y0120504D01*
X0252181Y0121103D02*
X0277478Y0121103D01*
X0277479Y0121701D02*
X0251582Y0121701D01*
X0250984Y0122300D02*
X0277479Y0122300D01*
X0277480Y0122898D02*
X0250385Y0122898D01*
X0249376Y0066638D02*
X0277442Y0066638D01*
X0277441Y0066040D02*
X0277092Y0066040D01*
X0270819Y0066040D02*
X0249500Y0066040D01*
M02*
