G75*
%MOIN*%
%OFA0B0*%
%FSLAX25Y25*%
%IPPOS*%
%LPD*%
%AMOC8*
5,1,8,0,0,1.08239X$1,22.5*
%
%ADD10C,0.04500*%
%ADD11R,0.05315X0.05315*%
%ADD12C,0.05315*%
%ADD13R,0.05200X0.05200*%
%ADD14C,0.05200*%
%ADD15C,0.06000*%
%ADD16OC8,0.05200*%
%ADD17C,0.01040*%
%ADD18R,0.07000X0.07000*%
%ADD19C,0.05543*%
%ADD20C,0.05543*%
%ADD21R,0.07500X0.07500*%
%ADD22C,0.07500*%
%ADD23OC8,0.06300*%
%ADD24C,0.03200*%
%ADD25C,0.07000*%
D10*
X0025082Y0157730D03*
X0024977Y0167729D03*
X0055651Y0198995D03*
X0062722Y0191924D03*
X0177665Y0198002D03*
X0184736Y0205073D03*
X0180565Y0186127D03*
X0190565Y0186127D03*
X0242213Y0138027D03*
X0242213Y0128027D03*
D11*
X0059197Y0123478D03*
D12*
X0059197Y0115604D03*
D13*
X0101724Y0095586D03*
X0043104Y0184286D03*
D14*
X0033104Y0184286D03*
X0101724Y0085586D03*
X0179691Y0162990D03*
X0166256Y0176425D03*
D15*
X0162238Y0217459D02*
X0162238Y0223459D01*
X0172238Y0223459D02*
X0172238Y0217459D01*
X0182238Y0217459D02*
X0182238Y0223459D01*
X0192238Y0223459D02*
X0192238Y0217459D01*
X0202238Y0217459D02*
X0202238Y0223459D01*
X0212238Y0223459D02*
X0212238Y0217459D01*
X0222238Y0217459D02*
X0222238Y0223459D01*
X0232238Y0223459D02*
X0232238Y0217459D01*
X0147238Y0217459D02*
X0147238Y0223459D01*
X0137238Y0223459D02*
X0137238Y0217459D01*
X0127238Y0217459D02*
X0127238Y0223459D01*
X0117238Y0223459D02*
X0117238Y0217459D01*
X0107238Y0217459D02*
X0107238Y0223459D01*
X0097238Y0223459D02*
X0097238Y0217459D01*
X0087238Y0217459D02*
X0087238Y0223459D01*
X0077238Y0223459D02*
X0077238Y0217459D01*
X0239238Y0115459D02*
X0245238Y0115459D01*
X0245238Y0105459D02*
X0239238Y0105459D01*
X0239238Y0095459D02*
X0245238Y0095459D01*
X0245238Y0085459D02*
X0239238Y0085459D01*
X0239238Y0075459D02*
X0245238Y0075459D01*
X0245238Y0065459D02*
X0239238Y0065459D01*
X0232238Y0033459D02*
X0232238Y0027459D01*
X0222238Y0027459D02*
X0222238Y0033459D01*
X0212238Y0033459D02*
X0212238Y0027459D01*
X0202238Y0027459D02*
X0202238Y0033459D01*
X0192238Y0033459D02*
X0192238Y0027459D01*
X0182238Y0027459D02*
X0182238Y0033459D01*
X0162238Y0033459D02*
X0162238Y0027459D01*
X0152238Y0027459D02*
X0152238Y0033459D01*
X0142238Y0033459D02*
X0142238Y0027459D01*
X0132238Y0027459D02*
X0132238Y0033459D01*
X0122238Y0033459D02*
X0122238Y0027459D01*
X0112238Y0027459D02*
X0112238Y0033459D01*
D16*
X0102395Y0050605D03*
X0142395Y0050605D03*
X0043106Y0128585D03*
X0043106Y0168585D03*
D17*
X0103670Y0135321D02*
X0104190Y0135841D01*
X0104190Y0134119D01*
X0102972Y0132901D01*
X0101250Y0132901D01*
X0100032Y0134119D01*
X0100032Y0135841D01*
X0101250Y0137059D01*
X0102972Y0137059D01*
X0104190Y0135841D01*
X0103410Y0135518D01*
X0103410Y0134442D01*
X0102649Y0133681D01*
X0101573Y0133681D01*
X0100812Y0134442D01*
X0100812Y0135518D01*
X0101573Y0136279D01*
X0102649Y0136279D01*
X0103410Y0135518D01*
X0102630Y0135195D01*
X0102630Y0134765D01*
X0102326Y0134461D01*
X0101896Y0134461D01*
X0101592Y0134765D01*
X0101592Y0135195D01*
X0101896Y0135499D01*
X0102326Y0135499D01*
X0102630Y0135195D01*
X0075386Y0107037D02*
X0075906Y0107557D01*
X0075906Y0105835D01*
X0074688Y0104617D01*
X0072966Y0104617D01*
X0071748Y0105835D01*
X0071748Y0107557D01*
X0072966Y0108775D01*
X0074688Y0108775D01*
X0075906Y0107557D01*
X0075126Y0107234D01*
X0075126Y0106158D01*
X0074365Y0105397D01*
X0073289Y0105397D01*
X0072528Y0106158D01*
X0072528Y0107234D01*
X0073289Y0107995D01*
X0074365Y0107995D01*
X0075126Y0107234D01*
X0074346Y0106911D01*
X0074346Y0106481D01*
X0074042Y0106177D01*
X0073612Y0106177D01*
X0073308Y0106481D01*
X0073308Y0106911D01*
X0073612Y0107215D01*
X0074042Y0107215D01*
X0074346Y0106911D01*
D18*
G36*
X0218806Y0100053D02*
X0223755Y0095104D01*
X0218806Y0090155D01*
X0213857Y0095104D01*
X0218806Y0100053D01*
G37*
D19*
X0213695Y0104135D02*
X0209775Y0100215D01*
X0202704Y0107286D02*
X0206624Y0111206D01*
X0199553Y0118277D02*
X0195633Y0114357D01*
X0188562Y0121428D02*
X0192482Y0125348D01*
X0185411Y0132419D02*
X0181491Y0128499D01*
X0174420Y0135570D02*
X0178340Y0139490D01*
X0171269Y0146561D02*
X0167349Y0142641D01*
X0160278Y0149713D02*
X0164198Y0153632D01*
X0157127Y0160703D02*
X0153207Y0156784D01*
X0146136Y0163855D02*
X0150056Y0167774D01*
X0142985Y0174845D02*
X0139065Y0170926D01*
X0131994Y0177997D02*
X0135913Y0181917D01*
X0128842Y0188988D02*
X0124923Y0185068D01*
X0107629Y0167774D02*
X0103709Y0163855D01*
X0110781Y0156784D02*
X0114700Y0160703D01*
X0121771Y0153632D02*
X0117852Y0149713D01*
X0124923Y0142641D02*
X0128842Y0146561D01*
X0135913Y0139490D02*
X0131994Y0135570D01*
X0139065Y0128499D02*
X0142985Y0132419D01*
X0150056Y0125348D02*
X0146136Y0121428D01*
X0153207Y0114357D02*
X0157127Y0118277D01*
X0164198Y0111206D02*
X0160278Y0107286D01*
X0167349Y0100215D02*
X0171269Y0104135D01*
X0178340Y0097064D02*
X0174420Y0093144D01*
X0181491Y0086073D02*
X0185411Y0089993D01*
X0192482Y0082922D02*
X0188562Y0079002D01*
X0195633Y0071931D02*
X0199553Y0075850D01*
D20*
X0183451Y0088033D03*
D21*
X0241193Y0150697D03*
D22*
X0258193Y0150697D03*
X0258193Y0179697D03*
X0241193Y0179697D03*
D23*
X0118090Y0125089D03*
X0118090Y0105089D03*
D24*
X0016994Y0144708D02*
X0016879Y0020009D01*
X0028247Y0020009D01*
X0026262Y0021994D01*
X0024460Y0025115D01*
X0023527Y0028596D01*
X0023527Y0032200D01*
X0024460Y0035681D01*
X0026262Y0038802D01*
X0028810Y0041350D01*
X0031931Y0043152D01*
X0035412Y0044084D01*
X0039016Y0044084D01*
X0042497Y0043152D01*
X0045618Y0041350D01*
X0048166Y0038802D01*
X0049968Y0035681D01*
X0050901Y0032200D01*
X0050901Y0028596D01*
X0049968Y0025115D01*
X0048166Y0021994D01*
X0046181Y0020009D01*
X0095094Y0020009D01*
X0094773Y0020329D01*
X0094641Y0020649D01*
X0094417Y0020912D01*
X0094021Y0022146D01*
X0093525Y0023343D01*
X0093525Y0023689D01*
X0093419Y0024018D01*
X0093525Y0025309D01*
X0093525Y0042685D01*
X0090199Y0042685D01*
X0087185Y0043933D01*
X0084879Y0046240D01*
X0036154Y0094964D01*
X0034906Y0097978D01*
X0034906Y0123774D01*
X0033906Y0124774D01*
X0033906Y0126188D01*
X0018130Y0141964D01*
X0016994Y0144708D01*
X0016993Y0143911D02*
X0017323Y0143911D01*
X0016990Y0140713D02*
X0019381Y0140713D01*
X0017450Y0139346D02*
X0034847Y0121950D01*
X0034847Y0095425D01*
X0043019Y0086890D01*
X0044781Y0086338D02*
X0016940Y0086338D01*
X0016943Y0089537D02*
X0041582Y0089537D01*
X0038384Y0092735D02*
X0016946Y0092735D01*
X0016949Y0095934D02*
X0035753Y0095934D01*
X0034906Y0099132D02*
X0016952Y0099132D01*
X0016955Y0102331D02*
X0034906Y0102331D01*
X0034906Y0105529D02*
X0016958Y0105529D01*
X0016961Y0108728D02*
X0034906Y0108728D01*
X0034906Y0111926D02*
X0016964Y0111926D01*
X0016966Y0115125D02*
X0034906Y0115125D01*
X0034906Y0118323D02*
X0016969Y0118323D01*
X0016972Y0121522D02*
X0034906Y0121522D01*
X0033960Y0124720D02*
X0016975Y0124720D01*
X0016978Y0127919D02*
X0032176Y0127919D01*
X0028977Y0131117D02*
X0016981Y0131117D01*
X0016984Y0134316D02*
X0025778Y0134316D01*
X0022580Y0137514D02*
X0016987Y0137514D01*
X0017450Y0139346D02*
X0017450Y0160203D01*
X0024977Y0167729D01*
X0024977Y0167729D01*
X0029827Y0167780D01*
X0029827Y0168111D01*
X0029707Y0168865D01*
X0029471Y0169591D01*
X0029125Y0170271D01*
X0028676Y0170889D01*
X0028136Y0171429D01*
X0027519Y0171877D01*
X0026839Y0172224D01*
X0026112Y0172460D01*
X0025359Y0172579D01*
X0024926Y0172579D01*
X0024977Y0167729D01*
X0029827Y0167780D01*
X0029827Y0167347D01*
X0029707Y0166593D01*
X0029471Y0165867D01*
X0029313Y0165556D01*
X0030095Y0165232D01*
X0032584Y0162743D01*
X0033931Y0159490D01*
X0033931Y0155969D01*
X0033281Y0154400D01*
X0033281Y0150006D01*
X0045502Y0137785D01*
X0046917Y0137785D01*
X0052306Y0132396D01*
X0052306Y0131678D01*
X0052749Y0131678D01*
X0052801Y0131730D01*
X0055227Y0132735D01*
X0063168Y0132735D01*
X0064398Y0132226D01*
X0051170Y0144992D01*
X0051100Y0145021D01*
X0049998Y0146123D01*
X0048877Y0147205D01*
X0048847Y0147274D01*
X0048794Y0147328D01*
X0048197Y0148768D01*
X0047576Y0150196D01*
X0047574Y0150272D01*
X0047545Y0150342D01*
X0047545Y0151900D01*
X0047518Y0153458D01*
X0047545Y0153528D01*
X0047545Y0160014D01*
X0046917Y0159385D01*
X0039295Y0159385D01*
X0033906Y0164774D01*
X0033906Y0172396D01*
X0034905Y0173395D01*
X0034904Y0177957D01*
X0034376Y0179232D01*
X0034321Y0179214D01*
X0033513Y0179086D01*
X0033104Y0179086D01*
X0033104Y0184286D01*
X0033103Y0184286D01*
X0027904Y0184286D01*
X0027904Y0183877D01*
X0028032Y0183068D01*
X0028285Y0182290D01*
X0028656Y0181561D01*
X0029137Y0180898D01*
X0029716Y0180320D01*
X0030378Y0179839D01*
X0031107Y0179467D01*
X0031886Y0179214D01*
X0032694Y0179086D01*
X0033103Y0179086D01*
X0033103Y0184286D01*
X0033103Y0184286D01*
X0027904Y0184286D01*
X0027904Y0184695D01*
X0028032Y0185504D01*
X0028285Y0186282D01*
X0028656Y0187011D01*
X0029137Y0187674D01*
X0029716Y0188252D01*
X0030378Y0188733D01*
X0031107Y0189105D01*
X0031886Y0189358D01*
X0032694Y0189486D01*
X0033103Y0189486D01*
X0033103Y0184286D01*
X0033104Y0184286D01*
X0033104Y0189486D01*
X0033513Y0189486D01*
X0034321Y0189358D01*
X0034376Y0189340D01*
X0034908Y0190625D01*
X0036765Y0192481D01*
X0039191Y0193486D01*
X0047016Y0193486D01*
X0047545Y0193267D01*
X0047545Y0195437D01*
X0046801Y0197234D01*
X0046801Y0200755D01*
X0048148Y0204008D01*
X0050638Y0206497D01*
X0052207Y0207147D01*
X0067638Y0222578D01*
X0067638Y0225369D01*
X0069099Y0228897D01*
X0069877Y0229675D01*
X0049299Y0229689D01*
X0050802Y0228821D01*
X0053350Y0226273D01*
X0055152Y0223152D01*
X0056085Y0219671D01*
X0056085Y0216067D01*
X0055152Y0212586D01*
X0053350Y0209465D01*
X0050802Y0206917D01*
X0047681Y0205115D01*
X0044200Y0204183D01*
X0040596Y0204183D01*
X0037115Y0205115D01*
X0033994Y0206917D01*
X0031446Y0209465D01*
X0029644Y0212586D01*
X0028711Y0216067D01*
X0028711Y0219671D01*
X0029644Y0223152D01*
X0031446Y0226273D01*
X0033994Y0228821D01*
X0035513Y0229698D01*
X0017071Y0229711D01*
X0017009Y0161367D01*
X0017579Y0162743D01*
X0020068Y0165232D01*
X0020677Y0165485D01*
X0020482Y0165867D01*
X0020246Y0166593D01*
X0020127Y0167347D01*
X0020127Y0167678D01*
X0024977Y0167729D01*
X0033104Y0175856D01*
X0033104Y0184286D01*
X0033104Y0190925D01*
X0047341Y0205162D01*
X0047663Y0205162D01*
X0055089Y0212588D01*
X0055089Y0212910D01*
X0072638Y0230459D01*
X0087205Y0230459D01*
X0259919Y0230459D01*
X0264530Y0225849D01*
X0264530Y0157033D01*
X0258193Y0150697D01*
X0259829Y0146691D01*
X0259880Y0070524D01*
X0255323Y0065460D01*
X0242238Y0065459D01*
X0242238Y0059859D01*
X0245679Y0059859D01*
X0246549Y0059997D01*
X0247388Y0060269D01*
X0248173Y0060670D01*
X0248886Y0061188D01*
X0249509Y0061811D01*
X0250027Y0062524D01*
X0250428Y0063310D01*
X0250700Y0064148D01*
X0250838Y0065018D01*
X0250838Y0065459D01*
X0242238Y0065459D01*
X0242238Y0065459D01*
X0242238Y0065459D01*
X0242238Y0059859D01*
X0238797Y0059859D01*
X0237927Y0059997D01*
X0237571Y0060113D01*
X0247955Y0049729D01*
X0247955Y0049729D01*
X0250261Y0047422D01*
X0251510Y0044408D01*
X0251510Y0023096D01*
X0250261Y0020082D01*
X0250178Y0019999D01*
X0266351Y0019979D01*
X0266541Y0033417D01*
X0266540Y0034777D01*
X0266561Y0034828D01*
X0266562Y0034883D01*
X0267100Y0036131D01*
X0267620Y0037388D01*
X0267658Y0037426D01*
X0267680Y0037477D01*
X0268655Y0038424D01*
X0270437Y0040209D01*
X0268672Y0040682D01*
X0265551Y0042483D01*
X0263003Y0045032D01*
X0261201Y0048153D01*
X0260269Y0051634D01*
X0260269Y0055237D01*
X0261201Y0058718D01*
X0263003Y0061839D01*
X0265551Y0064387D01*
X0268672Y0066189D01*
X0272153Y0067122D01*
X0275757Y0067122D01*
X0276742Y0066858D01*
X0276784Y0129569D01*
X0275485Y0129221D01*
X0271882Y0129221D01*
X0268401Y0130154D01*
X0265280Y0131956D01*
X0262732Y0134504D01*
X0262305Y0135242D01*
X0262305Y0097051D01*
X0261057Y0094037D01*
X0258750Y0091731D01*
X0255527Y0088508D01*
X0254536Y0088097D01*
X0254838Y0087369D01*
X0254838Y0083550D01*
X0253558Y0080459D01*
X0254838Y0077369D01*
X0254838Y0073550D01*
X0253376Y0070021D01*
X0250676Y0067321D01*
X0250540Y0067264D01*
X0250700Y0066771D01*
X0250838Y0065900D01*
X0250838Y0065459D01*
X0242238Y0065459D01*
X0233638Y0065459D01*
X0233638Y0065018D01*
X0233776Y0064148D01*
X0233891Y0063792D01*
X0228976Y0068708D01*
X0229103Y0068844D01*
X0230855Y0070611D01*
X0231099Y0070021D01*
X0233800Y0067321D01*
X0233936Y0067264D01*
X0233776Y0066771D01*
X0233638Y0065900D01*
X0233638Y0065459D01*
X0242238Y0065459D01*
X0242238Y0065459D01*
X0242238Y0063948D02*
X0242238Y0063948D01*
X0242238Y0060750D02*
X0242238Y0060750D01*
X0240132Y0057551D02*
X0260889Y0057551D01*
X0260269Y0054353D02*
X0243331Y0054353D01*
X0246529Y0051154D02*
X0260397Y0051154D01*
X0261315Y0047956D02*
X0249728Y0047956D01*
X0251365Y0044757D02*
X0263277Y0044757D01*
X0267153Y0041559D02*
X0251510Y0041559D01*
X0251510Y0038360D02*
X0268589Y0038360D01*
X0266682Y0035162D02*
X0251510Y0035162D01*
X0251510Y0031963D02*
X0266521Y0031963D01*
X0266475Y0028765D02*
X0251510Y0028765D01*
X0251510Y0025566D02*
X0266430Y0025566D01*
X0266384Y0022368D02*
X0251208Y0022368D01*
X0243310Y0024727D02*
X0239042Y0020459D01*
X0142343Y0020377D01*
X0105675Y0020319D01*
X0101725Y0024974D01*
X0101725Y0049474D01*
X0102395Y0050605D01*
X0102115Y0050885D01*
X0091830Y0050885D01*
X0043106Y0099609D01*
X0043106Y0128585D01*
X0025082Y0146609D01*
X0025082Y0157730D01*
X0017938Y0163102D02*
X0017010Y0163102D01*
X0017013Y0166301D02*
X0020341Y0166301D01*
X0020127Y0167678D02*
X0024977Y0167729D01*
X0024977Y0167729D01*
X0024977Y0167729D01*
X0024926Y0172579D01*
X0024595Y0172579D01*
X0023841Y0172460D01*
X0023115Y0172224D01*
X0022435Y0171877D01*
X0021817Y0171429D01*
X0021277Y0170889D01*
X0020829Y0170271D01*
X0020482Y0169591D01*
X0020246Y0168865D01*
X0020127Y0168111D01*
X0020127Y0167678D01*
X0020452Y0169499D02*
X0017016Y0169499D01*
X0017019Y0172698D02*
X0034208Y0172698D01*
X0034905Y0175896D02*
X0017022Y0175896D01*
X0017025Y0179095D02*
X0032639Y0179095D01*
X0033103Y0179095D02*
X0033104Y0179095D01*
X0033568Y0179095D02*
X0034433Y0179095D01*
X0033103Y0182293D02*
X0033104Y0182293D01*
X0033103Y0185492D02*
X0033104Y0185492D01*
X0033103Y0188690D02*
X0033104Y0188690D01*
X0030319Y0188690D02*
X0017034Y0188690D01*
X0017031Y0185492D02*
X0028030Y0185492D01*
X0028283Y0182293D02*
X0017028Y0182293D01*
X0017037Y0191889D02*
X0036173Y0191889D01*
X0043104Y0184286D02*
X0043106Y0168585D01*
X0035578Y0163102D02*
X0032225Y0163102D01*
X0033906Y0166301D02*
X0029612Y0166301D01*
X0029501Y0169499D02*
X0033906Y0169499D01*
X0024958Y0169499D02*
X0024958Y0169499D01*
X0033760Y0159904D02*
X0038776Y0159904D01*
X0033931Y0156705D02*
X0047545Y0156705D01*
X0047537Y0153507D02*
X0033281Y0153507D01*
X0033281Y0150308D02*
X0047559Y0150308D01*
X0048976Y0147110D02*
X0036178Y0147110D01*
X0039376Y0143911D02*
X0052290Y0143911D01*
X0055604Y0140713D02*
X0042575Y0140713D01*
X0047187Y0137514D02*
X0058919Y0137514D01*
X0062233Y0134316D02*
X0050386Y0134316D01*
X0043106Y0128585D02*
X0048213Y0123478D01*
X0059197Y0123478D01*
X0069452Y0123377D01*
X0087846Y0105053D01*
X0108994Y0105061D01*
X0118090Y0105089D01*
X0127840Y0105529D02*
X0147210Y0105529D01*
X0147289Y0105724D02*
X0146690Y0104239D01*
X0146080Y0102757D01*
X0146080Y0102726D01*
X0146068Y0102698D01*
X0146083Y0101097D01*
X0146168Y0061779D01*
X0146093Y0061566D01*
X0146171Y0060156D01*
X0146172Y0059805D01*
X0138584Y0059805D01*
X0133195Y0054416D01*
X0133195Y0046794D01*
X0137925Y0042064D01*
X0136800Y0041598D01*
X0134099Y0038897D01*
X0134043Y0038761D01*
X0133549Y0038921D01*
X0132679Y0039059D01*
X0132238Y0039059D01*
X0132238Y0030459D01*
X0122238Y0030459D01*
X0122238Y0030459D01*
X0127838Y0030459D01*
X0132238Y0030459D01*
X0132238Y0030459D01*
X0132238Y0030459D01*
X0122238Y0030459D01*
X0122278Y0030499D01*
X0122278Y0083948D01*
X0123916Y0085586D01*
X0124871Y0085586D01*
X0155602Y0116317D01*
X0164114Y0124829D01*
X0164114Y0139406D01*
X0169309Y0144601D01*
X0163551Y0138843D01*
X0163850Y0138544D01*
X0164534Y0138047D01*
X0165168Y0137724D01*
X0165048Y0137435D01*
X0165048Y0133706D01*
X0166475Y0130262D01*
X0168180Y0128557D01*
X0168180Y0119700D01*
X0166062Y0120577D01*
X0162334Y0120577D01*
X0162044Y0120458D01*
X0161721Y0121092D01*
X0161224Y0121776D01*
X0160925Y0122075D01*
X0155167Y0116317D01*
X0155167Y0116317D01*
X0155167Y0115665D01*
X0155167Y0116317D02*
X0149409Y0110559D01*
X0149708Y0110260D01*
X0150392Y0109763D01*
X0150967Y0109470D01*
X0148452Y0106909D01*
X0147322Y0105773D01*
X0147310Y0105745D01*
X0147289Y0105724D01*
X0146072Y0102331D02*
X0127840Y0102331D01*
X0127840Y0101051D02*
X0127840Y0107122D01*
X0139879Y0107128D01*
X0141477Y0107116D01*
X0141509Y0107129D01*
X0141545Y0107129D01*
X0143020Y0107741D01*
X0144500Y0108340D01*
X0144525Y0108365D01*
X0144558Y0108379D01*
X0145687Y0109509D01*
X0148325Y0112106D01*
X0148613Y0111542D01*
X0149110Y0110858D01*
X0149409Y0110559D01*
X0155167Y0116317D01*
X0155602Y0116317D01*
X0155167Y0116317D02*
X0160925Y0122075D01*
X0160626Y0122374D01*
X0159942Y0122871D01*
X0159307Y0123195D01*
X0159427Y0123484D01*
X0159427Y0127212D01*
X0158000Y0130657D01*
X0155364Y0133293D01*
X0152228Y0134592D01*
X0150929Y0137728D01*
X0148293Y0140364D01*
X0145157Y0141663D01*
X0143858Y0144799D01*
X0141222Y0147435D01*
X0138086Y0148734D01*
X0136787Y0151870D01*
X0134151Y0154506D01*
X0131015Y0155805D01*
X0129716Y0158941D01*
X0127080Y0161577D01*
X0123944Y0162876D01*
X0122645Y0166012D01*
X0120009Y0168648D01*
X0116873Y0169947D01*
X0115574Y0173083D01*
X0112938Y0175719D01*
X0111222Y0176430D01*
X0116267Y0181475D01*
X0116978Y0179759D01*
X0119614Y0177123D01*
X0122750Y0175824D01*
X0124049Y0172688D01*
X0126685Y0170052D01*
X0129821Y0168753D01*
X0131120Y0165617D01*
X0133756Y0162981D01*
X0136892Y0161682D01*
X0138191Y0158546D01*
X0140827Y0155910D01*
X0143963Y0154611D01*
X0145262Y0151475D01*
X0147898Y0148839D01*
X0151034Y0147540D01*
X0152333Y0144404D01*
X0154969Y0141768D01*
X0158414Y0140341D01*
X0162142Y0140341D01*
X0162431Y0140461D01*
X0162755Y0139826D01*
X0163252Y0139142D01*
X0163551Y0138843D01*
X0169309Y0144601D01*
X0169309Y0144601D01*
X0169735Y0144601D01*
X0176651Y0151516D01*
X0182816Y0157223D01*
X0198451Y0172902D01*
X0198458Y0191238D01*
X0196049Y0193912D01*
X0182534Y0194066D01*
X0180622Y0192310D01*
X0184622Y0195639D01*
X0184736Y0205073D01*
X0184736Y0205073D01*
X0188165Y0201644D01*
X0187895Y0201374D01*
X0187278Y0200925D01*
X0186597Y0200579D01*
X0186226Y0200458D01*
X0186515Y0199763D01*
X0186515Y0196242D01*
X0185348Y0193426D01*
X0185552Y0193629D01*
X0188805Y0194977D01*
X0192325Y0194977D01*
X0195578Y0193629D01*
X0196205Y0193003D01*
X0196205Y0195640D01*
X0188865Y0202506D01*
X0188435Y0201914D01*
X0188165Y0201644D01*
X0184736Y0205073D01*
X0185126Y0204683D02*
X0185126Y0204683D01*
X0188006Y0201484D02*
X0189957Y0201484D01*
X0193376Y0198286D02*
X0186515Y0198286D01*
X0186036Y0195087D02*
X0196205Y0195087D01*
X0204405Y0199198D02*
X0192238Y0210579D01*
X0192238Y0220459D01*
X0182238Y0220459D02*
X0182303Y0215284D01*
X0153654Y0185582D01*
X0153633Y0170989D01*
X0148096Y0165815D01*
X0141025Y0172886D02*
X0147490Y0179149D01*
X0147500Y0190573D01*
X0170241Y0214116D01*
X0171280Y0215333D01*
X0172604Y0218605D01*
X0171889Y0220111D01*
X0172238Y0220459D01*
X0162238Y0220459D02*
X0161790Y0220011D01*
X0161660Y0217277D01*
X0139230Y0194749D01*
X0139194Y0185139D01*
X0133954Y0179957D01*
X0126883Y0187028D02*
X0126883Y0194283D01*
X0146303Y0213704D01*
X0146303Y0219525D01*
X0147238Y0220459D01*
X0137238Y0220459D02*
X0137238Y0213920D01*
X0129167Y0205850D01*
X0129045Y0205850D01*
X0100616Y0177421D01*
X0100616Y0170867D01*
X0105669Y0165815D01*
X0112740Y0158743D02*
X0107889Y0154233D01*
X0102825Y0154119D01*
X0093272Y0163730D01*
X0093272Y0181277D01*
X0127238Y0215243D01*
X0127238Y0220459D01*
X0117238Y0220459D02*
X0117181Y0220403D01*
X0117181Y0214607D01*
X0085254Y0182680D01*
X0085254Y0159592D01*
X0095648Y0148024D01*
X0115593Y0148024D01*
X0118957Y0151098D01*
X0119811Y0151672D01*
X0126395Y0144601D02*
X0123552Y0141303D01*
X0092719Y0141303D01*
X0077048Y0157885D01*
X0077048Y0185101D01*
X0076914Y0184966D01*
X0077048Y0185101D02*
X0103456Y0211508D01*
X0103579Y0211508D01*
X0107238Y0215167D01*
X0107238Y0220459D01*
X0097238Y0220459D02*
X0097255Y0215676D01*
X0069548Y0188159D01*
X0069578Y0169268D01*
X0069758Y0153192D01*
X0087621Y0134918D01*
X0102111Y0134980D01*
X0103308Y0134323D01*
X0130936Y0135111D01*
X0133355Y0137530D01*
X0133954Y0137530D01*
X0141025Y0130459D02*
X0134530Y0125075D01*
X0120284Y0125107D01*
X0118090Y0125089D01*
X0139909Y0115328D02*
X0093738Y0115305D01*
X0055745Y0151973D01*
X0055745Y0198900D01*
X0055651Y0198995D01*
X0077116Y0220459D01*
X0077238Y0220459D01*
X0086046Y0219267D02*
X0086046Y0215169D01*
X0062801Y0191924D01*
X0062722Y0191924D01*
X0047545Y0195087D02*
X0017040Y0195087D01*
X0017043Y0198286D02*
X0046801Y0198286D01*
X0047103Y0201484D02*
X0017046Y0201484D01*
X0017048Y0204683D02*
X0038729Y0204683D01*
X0033030Y0207881D02*
X0017051Y0207881D01*
X0017054Y0211080D02*
X0030514Y0211080D01*
X0029191Y0214278D02*
X0017057Y0214278D01*
X0017060Y0217477D02*
X0028711Y0217477D01*
X0028980Y0220675D02*
X0017063Y0220675D01*
X0017066Y0223874D02*
X0030061Y0223874D01*
X0032245Y0227073D02*
X0017069Y0227073D01*
X0046067Y0204683D02*
X0048823Y0204683D01*
X0051766Y0207881D02*
X0052941Y0207881D01*
X0054282Y0211080D02*
X0056140Y0211080D01*
X0055605Y0214278D02*
X0059338Y0214278D01*
X0062537Y0217477D02*
X0056085Y0217477D01*
X0055815Y0220675D02*
X0065735Y0220675D01*
X0067638Y0223874D02*
X0054735Y0223874D01*
X0052550Y0227073D02*
X0068344Y0227073D01*
X0084609Y0229665D02*
X0089863Y0229661D01*
X0089099Y0228897D01*
X0089043Y0228761D01*
X0088549Y0228921D01*
X0087679Y0229059D01*
X0087238Y0229059D01*
X0087238Y0220459D01*
X0086046Y0219267D01*
X0087238Y0220459D02*
X0087238Y0225459D01*
X0087205Y0230459D01*
X0087238Y0229059D02*
X0086797Y0229059D01*
X0085927Y0228921D01*
X0085433Y0228761D01*
X0085376Y0228897D01*
X0084609Y0229665D01*
X0087238Y0229059D02*
X0087238Y0220459D01*
X0087238Y0220459D01*
X0087238Y0220675D02*
X0087238Y0220675D01*
X0087238Y0223874D02*
X0087238Y0223874D01*
X0087238Y0227073D02*
X0087238Y0227073D01*
X0113886Y0179095D02*
X0117642Y0179095D01*
X0122575Y0175896D02*
X0112510Y0175896D01*
X0115734Y0172698D02*
X0124045Y0172698D01*
X0128019Y0169499D02*
X0117954Y0169499D01*
X0122356Y0166301D02*
X0130837Y0166301D01*
X0133635Y0163102D02*
X0123850Y0163102D01*
X0128753Y0159904D02*
X0137629Y0159904D01*
X0140032Y0156705D02*
X0130642Y0156705D01*
X0135150Y0153507D02*
X0144420Y0153507D01*
X0146429Y0150308D02*
X0137434Y0150308D01*
X0141547Y0147110D02*
X0151212Y0147110D01*
X0152826Y0143911D02*
X0144226Y0143911D01*
X0147451Y0140713D02*
X0157516Y0140713D01*
X0151018Y0137514D02*
X0165081Y0137514D01*
X0165048Y0134316D02*
X0152895Y0134316D01*
X0157540Y0131117D02*
X0166121Y0131117D01*
X0168180Y0127919D02*
X0159135Y0127919D01*
X0159427Y0124720D02*
X0168180Y0124720D01*
X0168180Y0121522D02*
X0161409Y0121522D01*
X0160371Y0121522D02*
X0160371Y0121522D01*
X0157173Y0118323D02*
X0157173Y0118323D01*
X0155167Y0116317D02*
X0155167Y0116317D01*
X0153974Y0115125D02*
X0153974Y0115125D01*
X0150776Y0111926D02*
X0150776Y0111926D01*
X0148417Y0111926D02*
X0148142Y0111926D01*
X0150238Y0108728D02*
X0144906Y0108728D01*
X0139909Y0115328D02*
X0148096Y0123388D01*
X0162238Y0109246D02*
X0154283Y0101143D01*
X0154371Y0060392D01*
X0182633Y0035107D01*
X0182550Y0030772D01*
X0182238Y0030459D01*
X0192096Y0031554D02*
X0192424Y0030645D01*
X0192238Y0030459D01*
X0192096Y0031554D02*
X0192217Y0032253D01*
X0192289Y0036028D01*
X0161212Y0064343D01*
X0161120Y0094061D01*
X0169309Y0102175D01*
X0176380Y0095104D02*
X0167964Y0086806D01*
X0167973Y0067842D01*
X0202266Y0036280D01*
X0202430Y0030651D01*
X0202238Y0030459D01*
X0211857Y0030840D02*
X0212238Y0030459D01*
X0211857Y0030840D02*
X0212038Y0036113D01*
X0175268Y0070496D01*
X0175289Y0079562D01*
X0183451Y0088033D01*
X0190522Y0080962D02*
X0184807Y0075239D01*
X0184812Y0071181D01*
X0222480Y0036048D01*
X0222496Y0030718D01*
X0222238Y0030459D01*
X0232193Y0030504D02*
X0232238Y0030459D01*
X0232193Y0030504D02*
X0232193Y0042380D01*
X0199106Y0073891D01*
X0197593Y0073891D01*
X0209057Y0077030D02*
X0243310Y0042777D01*
X0243310Y0024727D01*
X0248283Y0060750D02*
X0262374Y0060750D01*
X0265112Y0063948D02*
X0250635Y0063948D01*
X0250578Y0067147D02*
X0276742Y0067147D01*
X0276744Y0070345D02*
X0253511Y0070345D01*
X0254836Y0073544D02*
X0276746Y0073544D01*
X0276749Y0076742D02*
X0254838Y0076742D01*
X0253772Y0079941D02*
X0276751Y0079941D01*
X0276753Y0083139D02*
X0254668Y0083139D01*
X0254838Y0086338D02*
X0276755Y0086338D01*
X0276757Y0089537D02*
X0256556Y0089537D01*
X0259755Y0092735D02*
X0276759Y0092735D01*
X0276761Y0095934D02*
X0261842Y0095934D01*
X0262305Y0099132D02*
X0276764Y0099132D01*
X0276766Y0102331D02*
X0262305Y0102331D01*
X0262305Y0105529D02*
X0276768Y0105529D01*
X0276770Y0108728D02*
X0262305Y0108728D01*
X0262305Y0111926D02*
X0276772Y0111926D01*
X0276774Y0115125D02*
X0262305Y0115125D01*
X0262305Y0118323D02*
X0276776Y0118323D01*
X0276779Y0121522D02*
X0262305Y0121522D01*
X0262305Y0124720D02*
X0276781Y0124720D01*
X0276783Y0127919D02*
X0262305Y0127919D01*
X0262305Y0131117D02*
X0266733Y0131117D01*
X0262920Y0134316D02*
X0262305Y0134316D01*
X0254105Y0141292D02*
X0254105Y0098682D01*
X0250882Y0095459D01*
X0242238Y0095459D01*
X0239666Y0105459D02*
X0231765Y0097559D01*
X0231765Y0095986D01*
X0219111Y0083331D01*
X0214764Y0083331D01*
X0198486Y0099610D01*
X0198486Y0103067D01*
X0204664Y0109246D01*
X0212238Y0116932D01*
X0213365Y0118002D01*
X0213355Y0127637D01*
X0224337Y0139647D01*
X0224379Y0211053D01*
X0224379Y0213045D01*
X0222180Y0215244D01*
X0222238Y0220459D01*
X0212238Y0220459D02*
X0212238Y0216124D01*
X0217216Y0211029D01*
X0217286Y0143935D01*
X0205860Y0132065D01*
X0206066Y0125105D01*
X0197593Y0116317D01*
X0190522Y0123388D02*
X0190522Y0123417D01*
X0197204Y0130098D01*
X0197204Y0134778D01*
X0210794Y0148505D01*
X0210776Y0205061D01*
X0202251Y0213321D01*
X0202251Y0220587D01*
X0202238Y0220459D01*
X0204405Y0199198D02*
X0204405Y0151885D01*
X0183451Y0130459D01*
X0176380Y0137530D02*
X0176380Y0110190D01*
X0211852Y0074176D01*
X0209057Y0077030D01*
X0211852Y0074176D02*
X0223201Y0074537D01*
X0233638Y0085065D01*
X0234032Y0085459D01*
X0242238Y0085459D01*
X0243693Y0085065D02*
X0244253Y0084505D01*
X0243693Y0085065D02*
X0233638Y0085065D01*
X0218806Y0095104D02*
X0229070Y0105101D01*
X0229055Y0104900D01*
X0229094Y0104954D01*
X0229070Y0105101D02*
X0229800Y0106339D01*
X0229613Y0121742D01*
X0229859Y0122084D01*
X0242213Y0138027D01*
X0242213Y0149678D01*
X0241193Y0150697D01*
X0241193Y0179697D01*
X0232238Y0174882D02*
X0232238Y0194554D01*
X0232723Y0194069D01*
X0249304Y0194069D01*
X0251012Y0192361D01*
X0251012Y0144386D01*
X0254105Y0141292D01*
X0264195Y0152775D02*
X0264078Y0153134D01*
X0263624Y0154025D01*
X0263037Y0154834D01*
X0262330Y0155540D01*
X0261521Y0156128D01*
X0260631Y0156582D01*
X0259680Y0156891D01*
X0259212Y0156965D01*
X0259212Y0169347D01*
X0259556Y0169347D01*
X0262188Y0170052D01*
X0264548Y0171415D01*
X0266475Y0173342D01*
X0267838Y0175702D01*
X0268411Y0177842D01*
X0268795Y0177461D01*
X0276811Y0169442D01*
X0276802Y0156242D01*
X0275485Y0156595D01*
X0271882Y0156595D01*
X0268401Y0155662D01*
X0265280Y0153860D01*
X0264195Y0152775D01*
X0263888Y0153507D02*
X0264927Y0153507D01*
X0260250Y0156705D02*
X0276802Y0156705D01*
X0276804Y0159904D02*
X0259212Y0159904D01*
X0259212Y0163102D02*
X0276807Y0163102D01*
X0276809Y0166301D02*
X0259212Y0166301D01*
X0260124Y0169499D02*
X0276753Y0169499D01*
X0273556Y0172698D02*
X0265831Y0172698D01*
X0267890Y0175896D02*
X0270359Y0175896D01*
X0266695Y0185671D02*
X0266475Y0186052D01*
X0264548Y0187979D01*
X0262188Y0189342D01*
X0259556Y0190047D01*
X0259212Y0190047D01*
X0259212Y0193992D01*
X0257963Y0197006D01*
X0256255Y0198714D01*
X0253948Y0201021D01*
X0250935Y0202269D01*
X0240438Y0202269D01*
X0240438Y0212170D01*
X0241838Y0215550D01*
X0241838Y0225369D01*
X0240376Y0228897D01*
X0239715Y0229559D01*
X0263243Y0229543D01*
X0266550Y0226700D01*
X0266695Y0185671D01*
X0266684Y0188690D02*
X0263316Y0188690D01*
X0266673Y0191889D02*
X0259212Y0191889D01*
X0258758Y0195087D02*
X0266662Y0195087D01*
X0266650Y0198286D02*
X0256683Y0198286D01*
X0252829Y0201484D02*
X0266639Y0201484D01*
X0266628Y0204683D02*
X0240438Y0204683D01*
X0240438Y0207881D02*
X0266616Y0207881D01*
X0266605Y0211080D02*
X0240438Y0211080D01*
X0241311Y0214278D02*
X0266594Y0214278D01*
X0266582Y0217477D02*
X0241838Y0217477D01*
X0241838Y0220675D02*
X0266571Y0220675D01*
X0266560Y0223874D02*
X0241838Y0223874D01*
X0241132Y0227073D02*
X0266117Y0227073D01*
X0232238Y0220459D02*
X0232238Y0194554D01*
X0232238Y0174882D02*
X0232174Y0138121D01*
X0221018Y0124957D01*
X0221102Y0111783D01*
X0211728Y0102183D01*
X0211735Y0102175D01*
X0239666Y0105459D02*
X0242238Y0105459D01*
X0242238Y0115459D02*
X0242213Y0128027D01*
X0196205Y0155228D02*
X0186143Y0144940D01*
X0183648Y0147435D01*
X0180204Y0148862D01*
X0176476Y0148862D01*
X0176186Y0148742D01*
X0175863Y0149377D01*
X0175366Y0150061D01*
X0175067Y0150359D01*
X0169309Y0144601D01*
X0169309Y0144601D01*
X0175067Y0150360D01*
X0174768Y0150658D01*
X0174084Y0151155D01*
X0173909Y0151245D01*
X0176857Y0154206D01*
X0177861Y0153790D01*
X0181521Y0153790D01*
X0184903Y0155191D01*
X0187491Y0157779D01*
X0188891Y0161160D01*
X0188891Y0164820D01*
X0187987Y0167003D01*
X0196205Y0175626D01*
X0196205Y0155228D01*
X0196205Y0156705D02*
X0186417Y0156705D01*
X0188371Y0159904D02*
X0196205Y0159904D01*
X0196205Y0163102D02*
X0188891Y0163102D01*
X0188278Y0166301D02*
X0196205Y0166301D01*
X0196205Y0169499D02*
X0190366Y0169499D01*
X0193414Y0172698D02*
X0196205Y0172698D01*
X0190659Y0181692D02*
X0190565Y0186127D01*
X0190659Y0181692D02*
X0178690Y0169134D01*
X0179334Y0163606D01*
X0179691Y0162990D01*
X0179559Y0163482D01*
X0178819Y0167802D01*
X0162765Y0151672D01*
X0162238Y0151672D01*
X0155167Y0158743D02*
X0166785Y0170239D01*
X0166256Y0176425D01*
X0165581Y0186395D01*
X0177665Y0198002D01*
X0180622Y0192310D02*
X0180565Y0186127D01*
X0176160Y0153507D02*
X0194521Y0153507D01*
X0191393Y0150308D02*
X0175118Y0150308D01*
X0175016Y0150308D02*
X0175016Y0150308D01*
X0171817Y0147110D02*
X0171817Y0147110D01*
X0168619Y0143911D02*
X0168619Y0143911D01*
X0165420Y0140713D02*
X0165420Y0140713D01*
X0183974Y0147110D02*
X0188265Y0147110D01*
X0146087Y0099132D02*
X0125922Y0099132D01*
X0127840Y0101051D02*
X0122129Y0095339D01*
X0114052Y0095339D01*
X0112519Y0096872D01*
X0110924Y0096867D01*
X0110924Y0091673D01*
X0109919Y0089247D01*
X0108062Y0087391D01*
X0106778Y0086859D01*
X0106795Y0086804D01*
X0106924Y0085995D01*
X0106924Y0085586D01*
X0101724Y0085586D01*
X0101724Y0085586D01*
X0106924Y0085586D01*
X0106924Y0085177D01*
X0106795Y0084368D01*
X0106543Y0083590D01*
X0106171Y0082861D01*
X0105690Y0082198D01*
X0105111Y0081620D01*
X0104449Y0081139D01*
X0103720Y0080767D01*
X0102941Y0080514D01*
X0102133Y0080386D01*
X0101724Y0080386D01*
X0101724Y0085586D01*
X0101723Y0085586D01*
X0096524Y0085586D01*
X0096524Y0085177D01*
X0096652Y0084368D01*
X0096905Y0083590D01*
X0097276Y0082861D01*
X0097757Y0082198D01*
X0098336Y0081620D01*
X0098998Y0081139D01*
X0099727Y0080767D01*
X0100506Y0080514D01*
X0101314Y0080386D01*
X0101723Y0080386D01*
X0101723Y0085586D01*
X0101723Y0085586D01*
X0096524Y0085586D01*
X0096524Y0085995D01*
X0096652Y0086804D01*
X0096669Y0086859D01*
X0095385Y0087391D01*
X0095336Y0087440D01*
X0079813Y0087440D01*
X0076799Y0088688D01*
X0074493Y0090995D01*
X0066876Y0098612D01*
X0065627Y0101626D01*
X0065627Y0101885D01*
X0064627Y0102885D01*
X0064627Y0110506D01*
X0067684Y0113563D01*
X0066031Y0115210D01*
X0065568Y0115215D01*
X0064381Y0114723D01*
X0064325Y0114373D01*
X0064070Y0113586D01*
X0063694Y0112848D01*
X0063208Y0112179D01*
X0062622Y0111594D01*
X0061953Y0111107D01*
X0061216Y0110732D01*
X0060429Y0110476D01*
X0059611Y0110346D01*
X0059197Y0110346D01*
X0059197Y0114220D01*
X0059197Y0114220D01*
X0059197Y0110346D01*
X0058784Y0110346D01*
X0057966Y0110476D01*
X0057179Y0110732D01*
X0056442Y0111107D01*
X0055772Y0111594D01*
X0055187Y0112179D01*
X0054701Y0112848D01*
X0054325Y0113586D01*
X0054069Y0114373D01*
X0054014Y0114723D01*
X0052801Y0115225D01*
X0052749Y0115278D01*
X0051306Y0115278D01*
X0051306Y0103006D01*
X0095227Y0059085D01*
X0097864Y0059085D01*
X0098584Y0059805D01*
X0106206Y0059805D01*
X0111595Y0054416D01*
X0111595Y0046794D01*
X0109925Y0045124D01*
X0109925Y0042892D01*
X0110328Y0043059D01*
X0114147Y0043059D01*
X0117676Y0041598D01*
X0120376Y0038897D01*
X0120433Y0038761D01*
X0120927Y0038921D01*
X0121797Y0039059D01*
X0122238Y0039059D01*
X0122238Y0030459D01*
X0122238Y0030459D01*
X0122238Y0039059D01*
X0122679Y0039059D01*
X0123549Y0038921D01*
X0124388Y0038649D01*
X0125173Y0038249D01*
X0125886Y0037731D01*
X0126509Y0037107D01*
X0127027Y0036394D01*
X0127238Y0035981D01*
X0127448Y0036394D01*
X0127966Y0037107D01*
X0128590Y0037731D01*
X0129303Y0038249D01*
X0130088Y0038649D01*
X0130927Y0038921D01*
X0131797Y0039059D01*
X0132238Y0039059D01*
X0132238Y0030459D01*
X0132238Y0031963D02*
X0132238Y0031963D01*
X0132238Y0035162D02*
X0132238Y0035162D01*
X0132238Y0038360D02*
X0132238Y0038360D01*
X0129522Y0038360D02*
X0124954Y0038360D01*
X0122238Y0038360D02*
X0122238Y0038360D01*
X0122238Y0035162D02*
X0122238Y0035162D01*
X0122238Y0031963D02*
X0122238Y0031963D01*
X0117715Y0041559D02*
X0136761Y0041559D01*
X0135232Y0044757D02*
X0109925Y0044757D01*
X0111595Y0047956D02*
X0133195Y0047956D01*
X0133195Y0051154D02*
X0111595Y0051154D01*
X0111595Y0054353D02*
X0133195Y0054353D01*
X0136331Y0057551D02*
X0108459Y0057551D01*
X0093562Y0060750D02*
X0146138Y0060750D01*
X0146163Y0063948D02*
X0090363Y0063948D01*
X0087165Y0067147D02*
X0146156Y0067147D01*
X0146149Y0070345D02*
X0083966Y0070345D01*
X0080768Y0073544D02*
X0146142Y0073544D01*
X0146135Y0076742D02*
X0077569Y0076742D01*
X0074371Y0079941D02*
X0146129Y0079941D01*
X0146122Y0083139D02*
X0106313Y0083139D01*
X0106869Y0086338D02*
X0146115Y0086338D01*
X0146108Y0089537D02*
X0110038Y0089537D01*
X0110924Y0092735D02*
X0146101Y0092735D01*
X0146094Y0095934D02*
X0122723Y0095934D01*
X0113457Y0095934D02*
X0110924Y0095934D01*
X0101724Y0095586D02*
X0101670Y0095640D01*
X0081444Y0095640D01*
X0073827Y0103257D01*
X0073827Y0106696D01*
X0064627Y0105529D02*
X0051306Y0105529D01*
X0051981Y0102331D02*
X0065181Y0102331D01*
X0066660Y0099132D02*
X0055180Y0099132D01*
X0059197Y0100314D02*
X0073925Y0085586D01*
X0101724Y0085586D01*
X0123916Y0085586D01*
X0101724Y0083139D02*
X0101723Y0083139D01*
X0097134Y0083139D02*
X0071172Y0083139D01*
X0067974Y0086338D02*
X0096578Y0086338D01*
X0075951Y0089537D02*
X0064775Y0089537D01*
X0061577Y0092735D02*
X0072753Y0092735D01*
X0069554Y0095934D02*
X0058378Y0095934D01*
X0059197Y0100314D02*
X0059197Y0115604D01*
X0059197Y0111926D02*
X0059197Y0111926D01*
X0062955Y0111926D02*
X0066047Y0111926D01*
X0066117Y0115125D02*
X0065351Y0115125D01*
X0064627Y0108728D02*
X0051306Y0108728D01*
X0051306Y0111926D02*
X0055440Y0111926D01*
X0053044Y0115125D02*
X0051306Y0115125D01*
X0047979Y0083139D02*
X0016937Y0083139D01*
X0016934Y0079941D02*
X0051178Y0079941D01*
X0054376Y0076742D02*
X0016931Y0076742D01*
X0016928Y0073544D02*
X0057575Y0073544D01*
X0060773Y0070345D02*
X0016925Y0070345D01*
X0016923Y0067147D02*
X0063972Y0067147D01*
X0067170Y0063948D02*
X0016920Y0063948D01*
X0016917Y0060750D02*
X0070369Y0060750D01*
X0073567Y0057551D02*
X0016914Y0057551D01*
X0016911Y0054353D02*
X0076766Y0054353D01*
X0079964Y0051154D02*
X0016908Y0051154D01*
X0016905Y0047956D02*
X0083163Y0047956D01*
X0086361Y0044757D02*
X0016902Y0044757D01*
X0016899Y0041559D02*
X0029172Y0041559D01*
X0026007Y0038360D02*
X0016896Y0038360D01*
X0016893Y0035162D02*
X0024321Y0035162D01*
X0023527Y0031963D02*
X0016890Y0031963D01*
X0016887Y0028765D02*
X0023527Y0028765D01*
X0024339Y0025566D02*
X0016884Y0025566D01*
X0016881Y0022368D02*
X0026046Y0022368D01*
X0045256Y0041559D02*
X0093525Y0041559D01*
X0093525Y0038360D02*
X0048421Y0038360D01*
X0050107Y0035162D02*
X0093525Y0035162D01*
X0093525Y0031963D02*
X0050901Y0031963D01*
X0050901Y0028765D02*
X0093525Y0028765D01*
X0093525Y0025566D02*
X0050089Y0025566D01*
X0048382Y0022368D02*
X0093929Y0022368D01*
X0142343Y0020377D02*
X0142238Y0030459D01*
X0162238Y0030459D02*
X0166923Y0030459D01*
X0171519Y0034726D01*
X0162238Y0030459D02*
X0162306Y0044068D01*
X0153551Y0050977D01*
X0143869Y0050908D01*
X0142395Y0050605D01*
X0230537Y0067147D02*
X0233898Y0067147D01*
X0230965Y0070345D02*
X0230592Y0070345D01*
X0233735Y0063948D02*
X0233841Y0063948D01*
X0126883Y0144601D02*
X0126395Y0144601D01*
X0047545Y0159904D02*
X0047435Y0159904D01*
D25*
X0059197Y0100314D03*
X0043019Y0086890D03*
X0171519Y0034726D03*
X0229094Y0104954D03*
M02*
